Alkalami-Regular.ufo
<glyph name="percent" format="2">
  <advance width="770"/>
  <unicode hex="0025"/>
  <outline>
    <contour>
      <point x="353" y="613"/>
      <point x="284" y="671"/>
      <point x="192" y="671" type="curve" smooth="yes"/>
      <point x="99" y="671"/>
      <point x="30" y="613"/>
      <point x="30" y="508" type="curve" smooth="yes"/>
      <point x="30" y="403"/>
      <point x="99" y="345"/>
      <point x="192" y="345" type="curve" smooth="yes"/>
      <point x="284" y="345"/>
      <point x="353" y="403"/>
      <point x="353" y="508" type="curve" smooth="yes"/>
    </contour>
    <contour>
      <point x="131" y="586"/>
      <point x="157" y="626"/>
      <point x="192" y="626" type="curve" smooth="yes"/>
      <point x="226" y="626"/>
      <point x="252" y="586"/>
      <point x="252" y="508" type="curve" smooth="yes"/>
      <point x="252" y="430"/>
      <point x="226" y="390"/>
      <point x="192" y="390" type="curve" smooth="yes"/>
      <point x="157" y="390"/>
      <point x="131" y="430"/>
      <point x="131" y="508" type="curve" smooth="yes"/>
    </contour>
    <contour>
      <point x="653" y="683" type="line"/>
      <point x="562" y="683" type="line"/>
      <point x="123" y="-18" type="line"/>
      <point x="213" y="-18" type="line"/>
    </contour>
    <contour>
      <point x="750" y="262"/>
      <point x="681" y="320"/>
      <point x="589" y="320" type="curve" smooth="yes"/>
      <point x="496" y="320"/>
      <point x="427" y="262"/>
      <point x="427" y="157" type="curve" smooth="yes"/>
      <point x="427" y="52"/>
      <point x="496" y="-6"/>
      <point x="589" y="-6" type="curve" smooth="yes"/>
      <point x="681" y="-6"/>
      <point x="750" y="52"/>
      <point x="750" y="157" type="curve" smooth="yes"/>
    </contour>
    <contour>
      <point x="528" y="235"/>
      <point x="554" y="275"/>
      <point x="589" y="275" type="curve" smooth="yes"/>
      <point x="623" y="275"/>
      <point x="649" y="235"/>
      <point x="649" y="157" type="curve" smooth="yes"/>
      <point x="649" y="79"/>
      <point x="623" y="39"/>
      <point x="589" y="39" type="curve" smooth="yes"/>
      <point x="554" y="39"/>
      <point x="528" y="79"/>
      <point x="528" y="157" type="curve" smooth="yes"/>
    </contour>
  </outline>
</glyph>
<glyph name="comma" format="2">
  <advance width="244"/>
  <unicode hex="002C"/>
  <outline>
    <contour>
      <point x="-13" y="-158" type="curve"/>
      <point x="19" y="-202" type="line"/>
      <point x="175" y="-87"/>
      <point x="201" y="-8"/>
      <point x="201" y="62" type="curve" smooth="yes"/>
      <point x="201" y="83"/>
      <point x="197" y="105"/>
      <point x="191" y="122" type="curve"/>
      <point x="173" y="129"/>
      <point x="152" y="133"/>
      <point x="128" y="133" type="curve" smooth="yes"/>
      <point x="104" y="133"/>
      <point x="87" y="128"/>
      <point x="69" y="121" type="curve"/>
      <point x="64" y="105"/>
      <point x="61" y="83"/>
      <point x="61" y="63" type="curve" smooth="yes"/>
      <point x="61" y="43"/>
      <point x="64" y="22"/>
      <point x="69" y="1" type="curve"/>
      <point x="79" y="-2"/>
      <point x="100" y="-7"/>
      <point x="114" y="-8" type="curve"/>
      <point x="104" y="-45"/>
      <point x="78" y="-86"/>
    </contour>
  </outline>
</glyph>
<glyph name="period" format="2">
  <advance width="255"/>
  <unicode hex="002E"/>
  <outline>
    <contour>
      <point x="123" y="133" type="curve" smooth="yes"/>
      <point x="102" y="133"/>
      <point x="83" y="128"/>
      <point x="62" y="122" type="curve"/>
      <point x="56" y="102"/>
      <point x="53" y="82"/>
      <point x="53" y="62" type="curve" smooth="yes"/>
      <point x="53" y="41"/>
      <point x="56" y="22"/>
      <point x="62" y="1" type="curve"/>
      <point x="83" y="-5"/>
      <point x="102" y="-10"/>
      <point x="123" y="-10" type="curve" smooth="yes"/>
      <point x="141" y="-10"/>
      <point x="162" y="-5"/>
      <point x="183" y="1" type="curve"/>
      <point x="189" y="22"/>
      <point x="192" y="41"/>
      <point x="192" y="62" type="curve" smooth="yes"/>
      <point x="192" y="82"/>
      <point x="189" y="102"/>
      <point x="183" y="122" type="curve"/>
      <point x="162" y="128"/>
      <point x="141" y="133"/>
    </contour>
  </outline>
</glyph>
<glyph name="slash" format="2">
  <advance width="438"/>
  <unicode hex="002F"/>
  <outline>
    <contour>
      <point x="412" y="763" type="line"/>
      <point x="326" y="763" type="line"/>
      <point x="26" y="-138" type="line"/>
      <point x="111" y="-138" type="line"/>
    </contour>
  </outline>
</glyph>
<glyph name="zero" format="2">
  <advance width="565"/>
  <unicode hex="0030"/>
  <outline>
    <contour>
      <point x="538" y="512"/>
      <point x="436" y="625"/>
      <point x="283" y="625" type="curve" smooth="yes"/>
      <point x="129" y="625"/>
      <point x="27" y="512"/>
      <point x="27" y="303" type="curve" smooth="yes"/>
      <point x="27" y="105"/>
      <point x="129" y="-6"/>
      <point x="283" y="-6" type="curve" smooth="yes"/>
      <point x="436" y="-6"/>
      <point x="538" y="105"/>
      <point x="538" y="303" type="curve" smooth="yes"/>
    </contour>
    <contour>
      <point x="164" y="500"/>
      <point x="225" y="572"/>
      <point x="277" y="572" type="curve" smooth="yes"/>
      <point x="341" y="572"/>
      <point x="401" y="500"/>
      <point x="401" y="303" type="curve" smooth="yes"/>
      <point x="401" y="116"/>
      <point x="341" y="47"/>
      <point x="290" y="47" type="curve" smooth="yes"/>
      <point x="225" y="47"/>
      <point x="164" y="116"/>
      <point x="164" y="303" type="curve" smooth="yes"/>
    </contour>
  </outline>
</glyph>
<glyph name="one" format="2">
  <advance width="565"/>
  <unicode hex="0031"/>
  <outline>
    <contour>
      <point x="366" y="630" type="curve"/>
      <point x="312" y="630" type="line"/>
      <point x="242" y="572"/>
      <point x="153" y="548"/>
      <point x="77" y="537" type="curve"/>
      <point x="95" y="487" type="line"/>
      <point x="213" y="490" type="line"/>
      <point x="216" y="410"/>
      <point x="217" y="383"/>
      <point x="217" y="305" type="curve" smooth="yes"/>
      <point x="217" y="219"/>
      <point x="216" y="164"/>
      <point x="213" y="70" type="curve"/>
      <point x="86" y="45" type="line"/>
      <point x="102" y="0" type="line"/>
      <point x="146" y="1"/>
      <point x="236" y="3"/>
      <point x="293" y="3" type="curve" smooth="yes"/>
      <point x="359" y="3"/>
      <point x="434" y="2"/>
      <point x="472" y="0" type="curve"/>
      <point x="488" y="45" type="line"/>
      <point x="366" y="70" type="line"/>
      <point x="363" y="168"/>
      <point x="362" y="228"/>
      <point x="362" y="319" type="curve" smooth="yes"/>
      <point x="362" y="402"/>
      <point x="364" y="451"/>
    </contour>
  </outline>
</glyph>
<glyph name="two" format="2">
  <advance width="565"/>
  <unicode hex="0032"/>
  <outline>
    <contour>
      <point x="51" y="459" type="curve"/>
      <point x="74" y="427" type="line"/>
      <point x="141" y="502"/>
      <point x="188" y="527"/>
      <point x="247" y="527" type="curve" smooth="yes"/>
      <point x="313" y="527"/>
      <point x="357" y="485"/>
      <point x="357" y="424" type="curve" smooth="yes"/>
      <point x="357" y="345"/>
      <point x="288" y="284"/>
      <point x="51" y="41" type="curve"/>
      <point x="69" y="0" type="line"/>
      <point x="133" y="3"/>
      <point x="182" y="4"/>
      <point x="279" y="4" type="curve" smooth="yes"/>
      <point x="363" y="4"/>
      <point x="435" y="3"/>
      <point x="507" y="0" type="curve"/>
      <point x="491" y="114" type="line"/>
      <point x="413" y="107"/>
      <point x="309" y="105"/>
      <point x="240" y="105" type="curve" smooth="yes"/>
      <point x="209" y="105"/>
      <point x="180" y="105"/>
      <point x="154" y="106" type="curve"/>
      <point x="139" y="47" type="line"/>
      <point x="447" y="312"/>
      <point x="496" y="369"/>
      <point x="496" y="470" type="curve" smooth="yes"/>
      <point x="496" y="582"/>
      <point x="402" y="629"/>
      <point x="310" y="629" type="curve" smooth="yes"/>
      <point x="206" y="629"/>
      <point x="116" y="565"/>
    </contour>
    <contour>
      <point x="422" y="105" type="curve"/>
      <point x="507" y="0" type="line"/>
      <point x="507" y="15"/>
      <point x="506" y="30"/>
      <point x="506" y="45" type="curve" smooth="yes"/>
      <point x="506" y="102"/>
      <point x="509" y="160"/>
      <point x="514" y="215" type="curve"/>
      <point x="461" y="215" type="line"/>
      <point x="447" y="179"/>
      <point x="438" y="145"/>
    </contour>
  </outline>
</glyph>
<glyph name="three" format="2">
  <advance width="565"/>
  <unicode hex="0033"/>
  <outline>
    <contour>
      <point x="267" y="-8" type="curve" smooth="yes"/>
      <point x="421" y="-8"/>
      <point x="509" y="103"/>
      <point x="509" y="212" type="curve" smooth="yes"/>
      <point x="509" y="297"/>
      <point x="459" y="381"/>
      <point x="329" y="409" type="curve"/>
      <point x="370" y="453"/>
      <point x="422" y="499"/>
      <point x="470" y="547" type="curve"/>
      <point x="460" y="620" type="line"/>
      <point x="392" y="618"/>
      <point x="333" y="617"/>
      <point x="263" y="617" type="curve" smooth="yes"/>
      <point x="203" y="617"/>
      <point x="136" y="618"/>
      <point x="78" y="620" type="curve"/>
      <point x="78" y="564"/>
      <point x="78" y="481"/>
      <point x="73" y="417" type="curve"/>
      <point x="122" y="417" type="line"/>
      <point x="136" y="452"/>
      <point x="146" y="484"/>
      <point x="159" y="514" type="curve"/>
      <point x="197" y="516"/>
      <point x="222" y="517"/>
      <point x="258" y="517" type="curve" smooth="yes"/>
      <point x="292" y="517"/>
      <point x="315" y="516"/>
      <point x="339" y="515" type="curve"/>
      <point x="301" y="456"/>
      <point x="270" y="421"/>
      <point x="198" y="346" type="curve"/>
      <point x="215" y="300" type="line"/>
      <point x="297" y="300"/>
      <point x="374" y="256"/>
      <point x="374" y="174" type="curve" smooth="yes"/>
      <point x="374" y="101"/>
      <point x="319" y="55"/>
      <point x="247" y="55" type="curve" smooth="yes"/>
      <point x="192" y="55"/>
      <point x="128" y="78"/>
      <point x="74" y="124" type="curve"/>
      <point x="55" y="80" type="line"/>
      <point x="127" y="10"/>
      <point x="206" y="-8"/>
    </contour>
  </outline>
</glyph>
<glyph name="four" format="2">
  <advance width="565"/>
  <unicode hex="0034"/>
  <outline>
    <contour>
      <point x="435" y="628" type="curve"/>
      <point x="381" y="628" type="line"/>
      <point x="272" y="468"/>
      <point x="144" y="328"/>
      <point x="27" y="198" type="curve"/>
      <point x="50" y="146" type="line"/>
      <point x="157" y="150"/>
      <point x="188" y="150"/>
      <point x="261" y="150" type="curve" smooth="yes"/>
      <point x="384" y="150"/>
      <point x="456" y="150"/>
      <point x="537" y="146" type="curve"/>
      <point x="537" y="228" type="line"/>
      <point x="461" y="221"/>
      <point x="450" y="220"/>
      <point x="330" y="220" type="curve" smooth="yes"/>
      <point x="267" y="220"/>
      <point x="194" y="221"/>
      <point x="160" y="228" type="curve"/>
      <point x="199" y="276"/>
      <point x="234" y="325"/>
      <point x="294" y="416" type="curve"/>
      <point x="294" y="329"/>
      <point x="296" y="272"/>
      <point x="296" y="203" type="curve" smooth="yes"/>
      <point x="296" y="135"/>
      <point x="296" y="85"/>
      <point x="292" y="10" type="curve"/>
      <point x="436" y="10" type="line"/>
      <point x="434" y="125"/>
      <point x="434" y="184"/>
      <point x="434" y="279" type="curve" smooth="yes"/>
      <point x="434" y="394"/>
      <point x="434" y="503"/>
    </contour>
    <contour>
      <point x="435" y="70" type="line"/>
      <point x="295" y="70" type="line"/>
      <point x="150" y="45" type="line"/>
      <point x="167" y="0" type="line"/>
      <point x="211" y="1"/>
      <point x="289" y="3"/>
      <point x="333" y="3" type="curve" smooth="yes"/>
      <point x="438" y="3"/>
      <point x="477" y="2"/>
      <point x="515" y="0" type="curve"/>
      <point x="532" y="45" type="line"/>
    </contour>
  </outline>
</glyph>
<glyph name="five" format="2">
  <advance width="565"/>
  <unicode hex="0035"/>
  <outline>
    <contour>
      <point x="77" y="321" type="curve"/>
      <point x="107" y="286" type="line"/>
      <point x="128" y="292"/>
      <point x="159" y="297"/>
      <point x="204" y="297" type="curve" smooth="yes"/>
      <point x="311" y="297"/>
      <point x="368" y="237"/>
      <point x="368" y="172" type="curve" smooth="yes"/>
      <point x="368" y="85"/>
      <point x="290" y="46"/>
      <point x="195" y="46" type="curve" smooth="yes"/>
      <point x="157" y="46"/>
      <point x="117" y="52"/>
      <point x="78" y="64" type="curve"/>
      <point x="70" y="10" type="line"/>
      <point x="116" y="-2"/>
      <point x="163" y="-8"/>
      <point x="207" y="-8" type="curve" smooth="yes"/>
      <point x="362" y="-8"/>
      <point x="494" y="64"/>
      <point x="494" y="215" type="curve" smooth="yes"/>
      <point x="494" y="320"/>
      <point x="401" y="428"/>
      <point x="237" y="428" type="curve" smooth="yes"/>
      <point x="199" y="428"/>
      <point x="180" y="427"/>
      <point x="155" y="423" type="curve"/>
      <point x="158" y="459"/>
      <point x="163" y="491"/>
      <point x="172" y="522" type="curve"/>
      <point x="200" y="522"/>
      <point x="380" y="522"/>
      <point x="461" y="497" type="curve"/>
      <point x="465" y="620" type="line"/>
      <point x="425" y="619"/>
      <point x="313" y="618"/>
      <point x="266" y="618" type="curve" smooth="yes"/>
      <point x="199" y="618"/>
      <point x="160" y="619"/>
      <point x="102" y="620" type="curve"/>
      <point x="101" y="543"/>
      <point x="92" y="414"/>
    </contour>
  </outline>
</glyph>
<glyph name="six" format="2">
  <advance width="565"/>
  <unicode hex="0036"/>
  <outline>
    <contour>
      <point x="172" y="347" type="curve"/>
      <point x="184" y="284" type="line"/>
      <point x="191" y="298"/>
      <point x="226" y="336"/>
      <point x="284" y="336" type="curve" smooth="yes"/>
      <point x="343" y="336"/>
      <point x="375" y="258"/>
      <point x="375" y="183" type="curve" smooth="yes"/>
      <point x="375" y="113"/>
      <point x="348" y="47"/>
      <point x="293" y="47" type="curve" smooth="yes"/>
      <point x="244" y="47"/>
      <point x="196" y="114"/>
      <point x="196" y="248" type="curve" smooth="yes"/>
      <point x="196" y="418"/>
      <point x="281" y="543"/>
      <point x="469" y="595" type="curve"/>
      <point x="452" y="633" type="line"/>
      <point x="202" y="587"/>
      <point x="51" y="420"/>
      <point x="51" y="232" type="curve" smooth="yes"/>
      <point x="51" y="108"/>
      <point x="132" y="-6"/>
      <point x="289" y="-6" type="curve" smooth="yes"/>
      <point x="439" y="-6"/>
      <point x="515" y="102"/>
      <point x="515" y="206" type="curve" smooth="yes"/>
      <point x="515" y="304"/>
      <point x="448" y="400"/>
      <point x="311" y="400" type="curve" smooth="yes"/>
      <point x="256" y="400"/>
      <point x="203" y="375"/>
    </contour>
  </outline>
</glyph>
<glyph name="seven" format="2">
  <advance width="474"/>
  <unicode hex="0037"/>
  <outline>
    <contour>
      <point x="110" y="510" type="curve"/>
      <point x="204" y="515"/>
      <point x="258" y="516"/>
      <point x="366" y="510" type="curve"/>
      <point x="239" y="333"/>
      <point x="164" y="155"/>
      <point x="137" y="0" type="curve"/>
      <point x="284" y="0" type="line"/>
      <point x="294" y="105"/>
      <point x="305" y="304"/>
      <point x="469" y="575" type="curve"/>
      <point x="441" y="620" type="line"/>
      <point x="377" y="618"/>
      <point x="320" y="617"/>
      <point x="230" y="617" type="curve" smooth="yes"/>
      <point x="174" y="617"/>
      <point x="92" y="618"/>
      <point x="31" y="620" type="curve"/>
      <point x="31" y="569"/>
      <point x="29" y="486"/>
      <point x="25" y="408" type="curve"/>
      <point x="74" y="408" type="line"/>
      <point x="84" y="441"/>
      <point x="95" y="474"/>
    </contour>
  </outline>
</glyph>
<glyph name="eight" format="2">
  <advance width="565"/>
  <unicode hex="0038"/>
  <outline>
    <contour>
      <point x="423" y="362"/>
      <point x="473" y="437"/>
      <point x="473" y="486" type="curve" smooth="yes"/>
      <point x="473" y="560"/>
      <point x="415" y="629"/>
      <point x="281" y="629" type="curve" smooth="yes"/>
      <point x="156" y="629"/>
      <point x="72" y="561"/>
      <point x="72" y="464" type="curve" smooth="yes"/>
      <point x="72" y="288"/>
      <point x="378" y="288"/>
      <point x="378" y="141" type="curve" smooth="yes"/>
      <point x="378" y="79"/>
      <point x="336" y="48"/>
      <point x="291" y="48" type="curve" smooth="yes"/>
      <point x="240" y="48"/>
      <point x="186" y="88"/>
      <point x="186" y="167" type="curve" smooth="yes"/>
      <point x="186" y="220"/>
      <point x="206" y="286"/>
      <point x="269" y="325" type="curve"/>
      <point x="236" y="347" type="line"/>
      <point x="105" y="313"/>
      <point x="55" y="229"/>
      <point x="55" y="163" type="curve" smooth="yes"/>
      <point x="55" y="76"/>
      <point x="124" y="-6"/>
      <point x="280" y="-6" type="curve" smooth="yes"/>
      <point x="417" y="-6"/>
      <point x="510" y="67"/>
      <point x="510" y="181" type="curve" smooth="yes"/>
      <point x="510" y="380"/>
      <point x="202" y="392"/>
      <point x="202" y="505" type="curve" smooth="yes"/>
      <point x="202" y="548"/>
      <point x="233" y="577"/>
      <point x="272" y="577" type="curve" smooth="yes"/>
      <point x="320" y="577"/>
      <point x="366" y="543"/>
      <point x="366" y="478" type="curve" smooth="yes"/>
      <point x="366" y="448"/>
      <point x="353" y="400"/>
      <point x="267" y="366" type="curve"/>
      <point x="314" y="334" type="line"/>
    </contour>
  </outline>
</glyph>
<glyph name="nine" format="2">
  <advance width="565"/>
  <unicode hex="0039"/>
  <outline>
    <contour>
      <point x="395" y="276" type="curve"/>
      <point x="383" y="339" type="line"/>
      <point x="376" y="325"/>
      <point x="337" y="287"/>
      <point x="279" y="287" type="curve" smooth="yes"/>
      <point x="220" y="287"/>
      <point x="188" y="365"/>
      <point x="188" y="440" type="curve" smooth="yes"/>
      <point x="188" y="510"/>
      <point x="215" y="576"/>
      <point x="270" y="576" type="curve" smooth="yes"/>
      <point x="319" y="576"/>
      <point x="371" y="509"/>
      <point x="371" y="375" type="curve" smooth="yes"/>
      <point x="371" y="205"/>
      <point x="296" y="80"/>
      <point x="108" y="28" type="curve"/>
      <point x="125" y="-10" type="line"/>
      <point x="375" y="36"/>
      <point x="516" y="203"/>
      <point x="516" y="391" type="curve" smooth="yes"/>
      <point x="516" y="515"/>
      <point x="431" y="629"/>
      <point x="274" y="629" type="curve" smooth="yes"/>
      <point x="124" y="629"/>
      <point x="48" y="521"/>
      <point x="48" y="417" type="curve" smooth="yes"/>
      <point x="48" y="319"/>
      <point x="115" y="223"/>
      <point x="252" y="223" type="curve" smooth="yes"/>
      <point x="307" y="223"/>
      <point x="364" y="248"/>
    </contour>
  </outline>
</glyph>
<glyph name="less" format="2">
  <advance width="571"/>
  <unicode hex="003C"/>
  <outline>
    <contour>
      <point x="35" y="370" type="line"/>
      <point x="35" y="300" type="line"/>
      <point x="530" y="69" type="line"/>
      <point x="530" y="149" type="line"/>
      <point x="67" y="371" type="line"/>
      <point x="67" y="298" type="line"/>
      <point x="530" y="520" type="line"/>
      <point x="530" y="600" type="line"/>
    </contour>
  </outline>
</glyph>
<glyph name="A" format="2">
  <advance width="715"/>
  <unicode hex="0041"/>
  <anchor x="569" y="10" name="ogonek"/>
  <anchor x="358" y="661" name="top"/>
  <outline>
    <contour>
      <point x="384" y="664" type="curve"/>
      <point x="299" y="481" type="line"/>
      <point x="368" y="316"/>
      <point x="432" y="161"/>
      <point x="472" y="59" type="curve"/>
      <point x="394" y="38" type="line"/>
      <point x="408" y="0" type="line"/>
      <point x="444" y="2"/>
      <point x="525" y="3"/>
      <point x="561" y="3" type="curve" smooth="yes"/>
      <point x="602" y="3"/>
      <point x="659" y="2"/>
      <point x="700" y="0" type="curve"/>
      <point x="713" y="38" type="line"/>
      <point x="635" y="59" type="line"/>
      <point x="559" y="236"/>
      <point x="463" y="444"/>
    </contour>
    <contour>
      <point x="384" y="664" type="curve"/>
      <point x="333" y="664" type="line"/>
      <point x="266" y="471"/>
      <point x="140" y="175"/>
      <point x="76" y="59" type="curve"/>
      <point x="2" y="38" type="line"/>
      <point x="15" y="0" type="line"/>
      <point x="51" y="2"/>
      <point x="84" y="3"/>
      <point x="119" y="3" type="curve" smooth="yes"/>
      <point x="155" y="3"/>
      <point x="194" y="2"/>
      <point x="237" y="0" type="curve"/>
      <point x="250" y="38" type="line"/>
      <point x="176" y="59" type="line"/>
      <point x="206" y="177"/>
      <point x="292" y="398"/>
      <point x="342" y="538" type="curve"/>
      <point x="358" y="610"/>
      <point x="370" y="628"/>
    </contour>
    <contour>
      <point x="477" y="225" type="line"/>
      <point x="420" y="217"/>
      <point x="368" y="215"/>
      <point x="325" y="215" type="curve" smooth="yes"/>
      <point x="280" y="215"/>
      <point x="239" y="217"/>
      <point x="187" y="224" type="curve"/>
      <point x="187" y="147" type="line"/>
      <point x="239" y="154"/>
      <point x="280" y="154"/>
      <point x="325" y="154" type="curve" smooth="yes"/>
      <point x="368" y="154"/>
      <point x="420" y="154"/>
      <point x="477" y="147" type="curve"/>
    </contour>
  </outline>
</glyph>
<glyph name="B" format="2">
  <advance width="644"/>
  <unicode hex="0042"/>
  <anchor x="309" y="0" name="bottom"/>
  <anchor x="309" y="660" name="top"/>
  <outline>
    <contour>
      <point x="33" y="0" type="line"/>
      <point x="74" y="1"/>
      <point x="118" y="4"/>
      <point x="178" y="3" type="curve"/>
      <point x="261" y="1"/>
      <point x="246" y="32"/>
      <point x="256" y="43" type="curve"/>
      <point x="259" y="62" type="line"/>
      <point x="257" y="132"/>
      <point x="257" y="183"/>
      <point x="257" y="344" type="curve" smooth="yes"/>
      <point x="257" y="344"/>
      <point x="258" y="453"/>
      <point x="259" y="592" type="curve"/>
      <point x="274" y="598"/>
      <point x="288" y="601"/>
      <point x="308" y="601" type="curve" smooth="yes"/>
      <point x="372" y="601"/>
      <point x="401" y="546"/>
      <point x="401" y="489" type="curve" smooth="yes"/>
      <point x="401" y="446"/>
      <point x="384" y="403"/>
      <point x="348" y="382" type="curve"/>
      <point x="323" y="380"/>
      <point x="336" y="380"/>
      <point x="301" y="380" type="curve" smooth="yes"/>
      <point x="269" y="380"/>
      <point x="243" y="383"/>
      <point x="202" y="390" type="curve"/>
      <point x="202" y="341" type="line"/>
      <point x="212" y="336"/>
      <point x="253" y="335"/>
      <point x="270" y="335" type="curve" smooth="yes"/>
      <point x="291" y="335"/>
      <point x="339" y="337"/>
      <point x="331" y="337" type="curve"/>
      <point x="456" y="337"/>
      <point x="546" y="412"/>
      <point x="546" y="504" type="curve" smooth="yes"/>
      <point x="546" y="583"/>
      <point x="496" y="660"/>
      <point x="362" y="660" type="curve" smooth="yes"/>
      <point x="309" y="660"/>
      <point x="242" y="656"/>
      <point x="182" y="656" type="curve" smooth="yes"/>
      <point x="121" y="656"/>
      <point x="73" y="657"/>
      <point x="30" y="660" type="curve"/>
      <point x="20" y="621" type="line"/>
      <point x="108" y="597" type="line"/>
      <point x="112" y="528"/>
      <point x="113" y="462"/>
      <point x="113" y="379" type="curve" smooth="yes"/>
      <point x="113" y="276"/>
      <point x="111" y="173"/>
      <point x="108" y="59" type="curve"/>
      <point x="20" y="38" type="line"/>
    </contour>
    <contour>
      <point x="347" y="-1" type="curve" smooth="yes"/>
      <point x="524" y="-1"/>
      <point x="604" y="81"/>
      <point x="604" y="183" type="curve" smooth="yes"/>
      <point x="604" y="316"/>
      <point x="495" y="367"/>
      <point x="336" y="367" type="curve" smooth="yes"/>
      <point x="299" y="367"/>
      <point x="247" y="364"/>
      <point x="205" y="359" type="curve"/>
      <point x="200" y="313" type="line"/>
      <point x="253" y="320"/>
      <point x="290" y="322"/>
      <point x="305" y="322" type="curve" smooth="yes"/>
      <point x="406" y="322"/>
      <point x="455" y="250"/>
      <point x="455" y="180" type="curve" smooth="yes"/>
      <point x="455" y="125"/>
      <point x="425" y="71"/>
      <point x="348" y="53" type="curve"/>
      <point x="319" y="53"/>
      <point x="290" y="57"/>
      <point x="247" y="70" type="curve"/>
      <point x="240" y="51"/>
      <point x="173" y="3"/>
      <point x="178" y="3" type="curve"/>
      <point x="261" y="3"/>
      <point x="300" y="-1"/>
    </contour>
  </outline>
</glyph>
<glyph name="C" format="2">
  <advance width="651"/>
  <unicode hex="0043"/>
  <anchor x="361" y="0" name="bottom"/>
  <anchor x="369" y="660" name="top"/>
  <outline>
    <contour>
      <point x="578" y="156" type="line"/>
      <point x="508" y="99"/>
      <point x="461" y="71"/>
      <point x="388" y="71" type="curve" smooth="yes"/>
      <point x="269" y="71"/>
      <point x="181" y="180"/>
      <point x="181" y="358" type="curve" smooth="yes"/>
      <point x="181" y="468"/>
      <point x="211" y="564"/>
      <point x="292" y="608" type="curve"/>
      <point x="366" y="608"/>
      <point x="440" y="595"/>
      <point x="492" y="556" type="curve"/>
      <point x="512" y="440" type="line"/>
      <point x="570" y="440" type="line"/>
      <point x="580" y="499"/>
      <point x="594" y="560"/>
      <point x="607" y="618" type="curve"/>
      <point x="534" y="653"/>
      <point x="449" y="671"/>
      <point x="365" y="671" type="curve" smooth="yes"/>
      <point x="145" y="671"/>
      <point x="40" y="503"/>
      <point x="40" y="335" type="curve" smooth="yes"/>
      <point x="40" y="135"/>
      <point x="167" y="-5"/>
      <point x="358" y="-5" type="curve" smooth="yes"/>
      <point x="460" y="-5"/>
      <point x="532" y="28"/>
      <point x="616" y="106" type="curve"/>
    </contour>
  </outline>
</glyph>
<glyph name="I" format="2">
  <advance width="393"/>
  <unicode hex="0049"/>
  <anchor x="210" y="2" name="ogonek"/>
  <anchor x="199" y="660" name="top"/>
  <outline>
    <contour>
      <point x="350" y="660" type="line"/>
      <point x="314" y="658"/>
      <point x="256" y="656"/>
      <point x="202" y="656" type="curve" smooth="yes"/>
      <point x="140" y="656"/>
      <point x="95" y="657"/>
      <point x="43" y="660" type="curve"/>
      <point x="30" y="621" type="line"/>
      <point x="122" y="597" type="line"/>
      <point x="129" y="369"/>
      <point x="128" y="275"/>
      <point x="122" y="59" type="curve"/>
      <point x="30" y="38" type="line"/>
      <point x="43" y="0" type="line"/>
      <point x="84" y="1"/>
      <point x="136" y="3"/>
      <point x="198" y="3" type="curve" smooth="yes"/>
      <point x="262" y="3"/>
      <point x="314" y="2"/>
      <point x="350" y="0" type="curve"/>
      <point x="363" y="38" type="line"/>
      <point x="272" y="59" type="line"/>
      <point x="270" y="278"/>
      <point x="271" y="369"/>
      <point x="272" y="597" type="curve"/>
      <point x="363" y="621" type="line"/>
    </contour>
  </outline>
</glyph>
<glyph name="L" format="2">
  <advance width="604"/>
  <unicode hex="004C"/>
  <anchor x="323" y="0" name="bottom"/>
  <anchor x="193" y="660" name="top"/>
  <anchor x="453" y="448" name="topright"/>
  <outline>
    <contour>
      <point x="20" y="621" type="line"/>
      <point x="110" y="597" type="line"/>
      <point x="118" y="489"/>
      <point x="115" y="394"/>
      <point x="115" y="303" type="curve" smooth="yes"/>
      <point x="115" y="239"/>
      <point x="112" y="164"/>
      <point x="110" y="59" type="curve"/>
      <point x="21" y="38" type="line"/>
      <point x="33" y="0" type="line"/>
      <point x="74" y="1"/>
      <point x="120" y="3"/>
      <point x="188" y="3" type="curve" smooth="yes"/>
      <point x="280" y="3"/>
      <point x="406" y="3"/>
      <point x="569" y="0" type="curve"/>
      <point x="564" y="65"/>
      <point x="560" y="148"/>
      <point x="560" y="210" type="curve"/>
      <point x="496" y="210" type="line"/>
      <point x="473" y="89" type="line"/>
      <point x="415" y="63"/>
      <point x="344" y="59"/>
      <point x="261" y="69" type="curve"/>
      <point x="258" y="145"/>
      <point x="260" y="243"/>
      <point x="260" y="313" type="curve" smooth="yes"/>
      <point x="260" y="403"/>
      <point x="260" y="487"/>
      <point x="261" y="598" type="curve"/>
      <point x="375" y="621" type="line"/>
      <point x="361" y="660" type="line"/>
      <point x="305" y="657"/>
      <point x="241" y="656"/>
      <point x="184" y="656" type="curve" smooth="yes"/>
      <point x="121" y="656"/>
      <point x="81" y="657"/>
      <point x="33" y="660" type="curve"/>
    </contour>
  </outline>
</glyph>
<glyph name="R" format="2">
  <advance width="695"/>
  <unicode hex="0052"/>
  <anchor x="366" y="0" name="bottom"/>
  <anchor x="326" y="660" name="top"/>
  <outline>
    <contour>
      <point x="364" y="660" type="curve" smooth="yes"/>
      <point x="270" y="660"/>
      <point x="245" y="656"/>
      <point x="183" y="656" type="curve" smooth="yes"/>
      <point x="147" y="656"/>
      <point x="72" y="657"/>
      <point x="31" y="660" type="curve"/>
      <point x="20" y="622" type="line"/>
      <point x="108" y="596" type="line"/>
      <point x="111" y="515"/>
      <point x="113" y="420"/>
      <point x="113" y="316" type="curve" smooth="yes"/>
      <point x="113" y="237"/>
      <point x="112" y="149"/>
      <point x="108" y="59" type="curve"/>
      <point x="20" y="38" type="line"/>
      <point x="35" y="0" type="line"/>
      <point x="76" y="1"/>
      <point x="118" y="3"/>
      <point x="179" y="3" type="curve" smooth="yes"/>
      <point x="262" y="3"/>
      <point x="298" y="2"/>
      <point x="333" y="0" type="curve"/>
      <point x="347" y="38" type="line"/>
      <point x="259" y="59" type="line"/>
      <point x="259" y="187"/>
      <point x="259" y="284"/>
      <point x="259" y="399" type="curve" smooth="yes"/>
      <point x="259" y="457"/>
      <point x="259" y="521"/>
      <point x="259" y="596" type="curve"/>
      <point x="281" y="602"/>
      <point x="301" y="605"/>
      <point x="320" y="605" type="curve" smooth="yes"/>
      <point x="379" y="605"/>
      <point x="425" y="563"/>
      <point x="425" y="483" type="curve" smooth="yes"/>
      <point x="425" y="403"/>
      <point x="401" y="367"/>
      <point x="370" y="343" type="curve"/>
      <point x="353" y="340"/>
      <point x="338" y="338"/>
      <point x="322" y="338" type="curve" smooth="yes"/>
      <point x="290" y="338"/>
      <point x="257" y="344"/>
      <point x="214" y="354" type="curve"/>
      <point x="214" y="291" type="line"/>
      <point x="258" y="282"/>
      <point x="289" y="280"/>
      <point x="335" y="280" type="curve" smooth="yes"/>
      <point x="512" y="280"/>
      <point x="580" y="399"/>
      <point x="580" y="490" type="curve" smooth="yes"/>
      <point x="580" y="581"/>
      <point x="513" y="660"/>
    </contour>
    <contour>
      <point x="410" y="327" type="curve"/>
      <point x="401" y="327"/>
      <point x="297" y="331"/>
      <point x="274" y="305" type="curve"/>
      <point x="305" y="259"/>
      <point x="397" y="100"/>
      <point x="453" y="0" type="curve"/>
      <point x="479" y="2"/>
      <point x="535" y="2"/>
      <point x="568" y="2" type="curve" smooth="yes"/>
      <point x="603" y="2"/>
      <point x="653" y="2"/>
      <point x="677" y="0" type="curve"/>
      <point x="693" y="38" type="line"/>
      <point x="603" y="59" type="line"/>
      <point x="524" y="152"/>
      <point x="439" y="274"/>
    </contour>
  </outline>
</glyph>
<glyph name="T" format="2">
  <advance width="670"/>
  <unicode hex="0054"/>
  <anchor x="335" y="0" name="bottom"/>
  <anchor x="335" y="353" name="center"/>
  <anchor x="335" y="660" name="top"/>
  <outline>
    <contour>
      <point x="407" y="600" type="curve"/>
      <point x="257" y="600" type="line"/>
      <point x="260" y="490"/>
      <point x="262" y="402"/>
      <point x="262" y="324" type="curve" smooth="yes"/>
      <point x="262" y="240"/>
      <point x="260" y="163"/>
      <point x="257" y="64" type="curve"/>
      <point x="149" y="38" type="line"/>
      <point x="163" y="0" type="line"/>
      <point x="204" y="1"/>
      <point x="271" y="3"/>
      <point x="333" y="3" type="curve" smooth="yes"/>
      <point x="397" y="3"/>
      <point x="465" y="2"/>
      <point x="500" y="0" type="curve"/>
      <point x="513" y="38" type="line"/>
      <point x="407" y="64" type="line"/>
      <point x="406" y="146"/>
      <point x="406" y="211"/>
      <point x="406" y="279" type="curve" smooth="yes"/>
      <point x="406" y="371"/>
      <point x="406" y="468"/>
    </contour>
    <contour>
      <point x="635" y="660" type="curve"/>
      <point x="577" y="657"/>
      <point x="461" y="656"/>
      <point x="342" y="656" type="curve" smooth="yes"/>
      <point x="224" y="656"/>
      <point x="103" y="657"/>
      <point x="35" y="660" type="curve"/>
      <point x="43" y="575"/>
      <point x="46" y="503"/>
      <point x="48" y="441" type="curve"/>
      <point x="113" y="441" type="line"/>
      <point x="139" y="586" type="line"/>
      <point x="160" y="587"/>
      <point x="185" y="588"/>
      <point x="210" y="588" type="curve" smooth="yes"/>
      <point x="254" y="588"/>
      <point x="300" y="586"/>
      <point x="335" y="580" type="curve"/>
      <point x="368" y="587"/>
      <point x="411" y="589"/>
      <point x="453" y="589" type="curve" smooth="yes"/>
      <point x="481" y="589"/>
      <point x="510" y="588"/>
      <point x="533" y="586" type="curve"/>
      <point x="559" y="441" type="line"/>
      <point x="624" y="441" type="line"/>
      <point x="624" y="503"/>
      <point x="626" y="579"/>
    </contour>
  </outline>
</glyph>
<glyph name="Y" format="2">
  <advance width="671"/>
  <unicode hex="0059"/>
  <anchor x="366" y="660" name="top"/>
  <outline>
    <contour>
      <point x="313" y="660" type="line"/>
      <point x="277" y="659"/>
      <point x="234" y="657"/>
      <point x="163" y="657" type="curve" smooth="yes"/>
      <point x="111" y="657"/>
      <point x="74" y="659"/>
      <point x="33" y="660" type="curve"/>
      <point x="20" y="621" type="line"/>
      <point x="97" y="603" type="line"/>
      <point x="154" y="505"/>
      <point x="232" y="328"/>
      <point x="292" y="198" type="curve"/>
      <point x="413" y="287" type="line"/>
      <point x="343" y="410"/>
      <point x="291" y="538"/>
      <point x="262" y="605" type="curve"/>
      <point x="328" y="621" type="line"/>
    </contour>
    <contour>
      <point x="413" y="297" type="curve"/>
      <point x="271" y="275" type="line"/>
      <point x="275" y="180"/>
      <point x="274" y="137"/>
      <point x="271" y="59" type="curve"/>
      <point x="169" y="38" type="line"/>
      <point x="182" y="0" type="line"/>
      <point x="222" y="1"/>
      <point x="258" y="3"/>
      <point x="339" y="3" type="curve" smooth="yes"/>
      <point x="418" y="3"/>
      <point x="467" y="2"/>
      <point x="502" y="0" type="curve"/>
      <point x="515" y="38" type="line"/>
      <point x="414" y="59" type="line"/>
      <point x="411" y="134"/>
      <point x="410" y="191"/>
    </contour>
    <contour>
      <point x="636" y="660" type="line"/>
      <point x="601" y="658"/>
      <point x="569" y="657"/>
      <point x="524" y="657" type="curve" smooth="yes"/>
      <point x="479" y="657"/>
      <point x="448" y="658"/>
      <point x="407" y="660" type="curve"/>
      <point x="393" y="621" type="line"/>
      <point x="476" y="602" type="line"/>
      <point x="450" y="520"/>
      <point x="394" y="366"/>
      <point x="346" y="279" type="curve"/>
      <point x="386" y="205" type="line"/>
      <point x="434" y="329"/>
      <point x="521" y="515"/>
      <point x="571" y="600" type="curve"/>
      <point x="651" y="621" type="line"/>
    </contour>
  </outline>
</glyph>
<glyph name="backslash" format="2">
  <advance width="278"/>
  <unicode hex="005C"/>
  <outline>
    <contour>
      <point x="304" y="-138" type="line"/>
      <point x="3" y="763" type="line"/>
      <point x="-82" y="763" type="line"/>
      <point x="218" y="-138" type="line"/>
    </contour>
  </outline>
</glyph>
<glyph name="underscore" format="2">
  <advance width="560"/>
  <unicode hex="005F"/>
  <outline>
    <contour>
      <point x="512" y="46" type="line"/>
      <point x="48" y="46" type="line"/>
      <point x="48" y="-31" type="line"/>
      <point x="512" y="-31" type="line"/>
    </contour>
  </outline>
</glyph>
<glyph name="grave" format="2">
  <advance width="149"/>
  <unicode hex="0060"/>
  <anchor x="110" y="430" name="_top"/>
  <outline>
    <contour>
      <point x="50" y="715" type="curve"/>
      <point x="24" y="699"/>
      <point x="-3" y="676"/>
      <point x="-20" y="649" type="curve"/>
      <point x="22" y="584"/>
      <point x="67" y="526"/>
      <point x="131" y="456" type="curve"/>
      <point x="174" y="483" type="line"/>
      <point x="136" y="553"/>
      <point x="108" y="624"/>
      <point x="88" y="696" type="curve"/>
      <point x="77" y="700"/>
      <point x="62" y="710"/>
    </contour>
  </outline>
</glyph>
<glyph name="h" format="2">
  <advance width="617"/>
  <unicode hex="0068"/>
  <anchor x="311" y="178" name="center"/>
  <anchor x="330" y="710" name="top"/>
  <outline>
    <contour>
      <point x="232" y="745" type="curve"/>
      <point x="145" y="736"/>
      <point x="62" y="728"/>
      <point x="-5" y="727" type="curve"/>
      <point x="6" y="686" type="line"/>
      <point x="84" y="673" type="line"/>
      <point x="92" y="577"/>
      <point x="95" y="476"/>
      <point x="95" y="358" type="curve" smooth="yes"/>
      <point x="95" y="252"/>
      <point x="93" y="145"/>
      <point x="89" y="58" type="curve"/>
      <point x="2" y="37" type="line"/>
      <point x="19" y="0" type="line"/>
      <point x="58" y="1"/>
      <point x="103" y="3"/>
      <point x="155" y="3" type="curve" smooth="yes"/>
      <point x="208" y="3"/>
      <point x="249" y="2"/>
      <point x="293" y="0" type="curve"/>
      <point x="307" y="37" type="line"/>
      <point x="233" y="58" type="line"/>
      <point x="230" y="291" type="line"/>
      <point x="232" y="369"/>
      <point x="232" y="543"/>
    </contour>
    <contour>
      <point x="400" y="435" type="curve" smooth="yes"/>
      <point x="294" y="435"/>
      <point x="208" y="351"/>
      <point x="195" y="237" type="curve"/>
      <point x="231" y="193" type="line"/>
      <point x="230" y="243"/>
      <point x="250" y="301"/>
      <point x="309" y="340" type="curve"/>
      <point x="372" y="340"/>
      <point x="403" y="311"/>
      <point x="404" y="218" type="curve" smooth="yes"/>
      <point x="405" y="154"/>
      <point x="403" y="125"/>
      <point x="400" y="58" type="curve"/>
      <point x="327" y="37" type="line"/>
      <point x="341" y="0" type="line"/>
      <point x="376" y="1"/>
      <point x="416" y="3"/>
      <point x="467" y="3" type="curve" smooth="yes"/>
      <point x="516" y="3"/>
      <point x="561" y="2"/>
      <point x="597" y="0" type="curve"/>
      <point x="612" y="37" type="line"/>
      <point x="538" y="58" type="line"/>
      <point x="537" y="134"/>
      <point x="542" y="245"/>
      <point x="539" y="281" type="curve" smooth="yes"/>
      <point x="534" y="372"/>
      <point x="482" y="435"/>
    </contour>
  </outline>
</glyph>
<glyph name="o" format="2">
  <advance width="504"/>
  <unicode hex="006F"/>
  <anchor x="253" y="434" name="top"/>
  <outline>
    <contour>
      <point x="257" y="434" type="curve" smooth="yes"/>
      <point x="100" y="434"/>
      <point x="25" y="332"/>
      <point x="25" y="216" type="curve" smooth="yes"/>
      <point x="25" y="97"/>
      <point x="104" y="-10"/>
      <point x="254" y="-10" type="curve" smooth="yes"/>
      <point x="403" y="-10"/>
      <point x="479" y="95"/>
      <point x="479" y="214" type="curve" smooth="yes"/>
      <point x="479" y="330"/>
      <point x="405" y="434"/>
    </contour>
    <contour>
      <point x="201" y="41"/>
      <point x="165" y="137"/>
      <point x="165" y="237" type="curve" smooth="yes"/>
      <point x="165" y="319"/>
      <point x="189" y="382"/>
      <point x="240" y="382" type="curve" smooth="yes"/>
      <point x="305" y="382"/>
      <point x="341" y="285"/>
      <point x="341" y="186" type="curve" smooth="yes"/>
      <point x="341" y="103"/>
      <point x="317" y="41"/>
      <point x="266" y="41" type="curve" smooth="yes"/>
    </contour>
  </outline>
</glyph>
<glyph name="brokenbar" format="2">
  <advance width="413"/>
  <unicode hex="00A6"/>
  <outline>
    <contour>
      <point x="248" y="430" type="line"/>
      <point x="245" y="536"/>
      <point x="245" y="635"/>
      <point x="248" y="741" type="curve"/>
      <point x="165" y="741" type="line"/>
      <point x="168" y="635"/>
      <point x="168" y="536"/>
      <point x="165" y="430" type="curve"/>
    </contour>
    <contour>
      <point x="248" y="-100" type="line"/>
      <point x="245" y="6"/>
      <point x="245" y="105"/>
      <point x="248" y="211" type="curve"/>
      <point x="165" y="211" type="line"/>
      <point x="168" y="105"/>
      <point x="168" y="6"/>
      <point x="165" y="-100" type="curve"/>
    </contour>
  </outline>
</glyph>
<glyph name="ordfeminine" format="2">
  <advance width="372"/>
  <unicode hex="00AA"/>
  <outline>
    <component base="a" xScale="0.75" yScale="0.75" yOffset="353"/>
    <contour>
      <point x="25" y="316" type="curve"/>
      <point x="25" y="274" type="line"/>
      <point x="119" y="276"/>
      <point x="244" y="276"/>
      <point x="338" y="274" type="curve"/>
      <point x="338" y="316" type="line"/>
      <point x="244" y="314"/>
      <point x="119" y="314"/>
    </contour>
  </outline>
</glyph>
<glyph name="logicalnot" format="2">
  <advance width="571"/>
  <unicode hex="00AC"/>
  <outline>
    <contour>
      <point x="536" y="471" type="line"/>
      <point x="386" y="468"/>
      <point x="185" y="468"/>
      <point x="35" y="471" type="curve"/>
      <point x="35" y="388" type="line"/>
      <point x="185" y="391"/>
      <point x="383" y="391"/>
      <point x="533" y="388" type="curve"/>
    </contour>
    <contour>
      <point x="453" y="465" type="line"/>
      <point x="456" y="315"/>
      <point x="456" y="290"/>
      <point x="453" y="140" type="curve"/>
      <point x="536" y="140" type="line"/>
      <point x="533" y="290"/>
      <point x="533" y="321"/>
      <point x="536" y="471" type="curve"/>
    </contour>
  </outline>
</glyph>
<glyph name="macron" format="2">
  <advance width="263"/>
  <unicode hex="00AF"/>
  <outline>
    <contour>
      <point x="-10" y="578" type="curve"/>
      <point x="-10" y="497" type="line"/>
      <point x="78" y="499"/>
      <point x="185" y="499"/>
      <point x="273" y="497" type="curve"/>
      <point x="273" y="578" type="line"/>
      <point x="185" y="574"/>
      <point x="78" y="574"/>
    </contour>
  </outline>
</glyph>
<glyph name="acute" format="2">
  <advance width="124"/>
  <unicode hex="00B4"/>
  <outline>
    <contour>
      <point x="104" y="715" type="curve"/>
      <point x="92" y="710"/>
      <point x="77" y="700"/>
      <point x="66" y="696" type="curve"/>
      <point x="46" y="624"/>
      <point x="18" y="553"/>
      <point x="-20" y="483" type="curve"/>
      <point x="23" y="456" type="line"/>
      <point x="87" y="526"/>
      <point x="132" y="584"/>
      <point x="174" y="649" type="curve"/>
      <point x="157" y="676"/>
      <point x="130" y="699"/>
    </contour>
  </outline>
</glyph>
<glyph name="cedilla" format="2">
  <advance width="162"/>
  <unicode hex="00B8"/>
  <outline>
    <contour>
      <point x="49" y="3" type="line"/>
      <point x="9" y="-126" type="line"/>
      <point x="66" y="-134"/>
      <point x="81" y="-151"/>
      <point x="84" y="-167" type="curve"/>
      <point x="71" y="-192"/>
      <point x="41" y="-213"/>
      <point x="-5" y="-243" type="curve"/>
      <point x="23" y="-284" type="line"/>
      <point x="143" y="-217"/>
      <point x="180" y="-175"/>
      <point x="180" y="-134" type="curve" smooth="yes"/>
      <point x="180" y="-95"/>
      <point x="143" y="-64"/>
      <point x="88" y="-52" type="curve"/>
      <point x="101" y="3" type="line"/>
    </contour>
  </outline>
</glyph>
<glyph name="onequarter" format="2">
  <advance width="865"/>
  <unicode hex="00BC"/>
  <outline>
    <contour>
      <point x="774" y="693" type="line"/>
      <point x="692" y="693" type="line"/>
      <point x="143" y="-48" type="line"/>
      <point x="224" y="-48" type="line"/>
    </contour>
    <contour>
      <point x="253" y="670" type="curve"/>
      <point x="208" y="670" type="line"/>
      <point x="150" y="630"/>
      <point x="106" y="620"/>
      <point x="35" y="613" type="curve"/>
      <point x="53" y="572" type="line"/>
      <point x="142" y="573" type="line"/>
      <point x="144" y="550"/>
      <point x="146" y="487"/>
      <point x="146" y="452" type="curve" smooth="yes"/>
      <point x="146" y="399"/>
      <point x="146" y="341"/>
      <point x="145" y="304" type="curve"/>
      <point x="53" y="282" type="line"/>
      <point x="64" y="251" type="line"/>
      <point x="95" y="251"/>
      <point x="161" y="253"/>
      <point x="201" y="253" type="curve" smooth="yes"/>
      <point x="255" y="253"/>
      <point x="295" y="252"/>
      <point x="326" y="251" type="curve"/>
      <point x="337" y="282" type="line"/>
      <point x="253" y="304" type="line"/>
      <point x="251" y="354"/>
      <point x="251" y="413"/>
      <point x="251" y="457" type="curve" smooth="yes"/>
      <point x="251" y="517"/>
      <point x="251" y="587"/>
    </contour>
    <contour>
      <point x="759" y="418" type="curve"/>
      <point x="722" y="418" type="line"/>
      <point x="638" y="313"/>
      <point x="564" y="235"/>
      <point x="477" y="139" type="curve"/>
      <point x="477" y="88" type="line"/>
      <point x="562" y="91"/>
      <point x="581" y="91"/>
      <point x="647" y="91" type="curve" smooth="yes"/>
      <point x="714" y="91"/>
      <point x="764" y="91"/>
      <point x="822" y="88" type="curve"/>
      <point x="822" y="143" type="line"/>
      <point x="767" y="139"/>
      <point x="728" y="139"/>
      <point x="679" y="139" type="curve" smooth="yes"/>
      <point x="634" y="139"/>
      <point x="580" y="142"/>
      <point x="562" y="143" type="curve"/>
      <point x="588" y="183"/>
      <point x="609" y="212"/>
      <point x="659" y="288" type="curve"/>
      <point x="659" y="224"/>
      <point x="657" y="53"/>
      <point x="654" y="-1" type="curve"/>
      <point x="763" y="-1" type="line"/>
      <point x="757" y="110"/>
      <point x="757" y="212"/>
    </contour>
  </outline>
</glyph>
<glyph name="Eth" format="2">
  <advance width="728"/>
  <unicode hex="00D0"/>
  <anchor x="350" y="679" name="top"/>
  <outline>
    <component base="D"/>
    <contour>
      <point x="16" y="365" type="curve"/>
      <point x="16" y="294" type="line"/>
      <point x="104" y="296"/>
      <point x="281" y="296"/>
      <point x="369" y="294" type="curve"/>
      <point x="369" y="365" type="line"/>
      <point x="281" y="361"/>
      <point x="104" y="361"/>
    </contour>
  </outline>
</glyph>
<glyph name="multiply" format="2">
  <advance width="571"/>
  <unicode hex="00D7"/>
  <outline>
    <contour>
      <point x="518" y="138" type="line"/>
      <point x="395" y="257"/>
      <point x="233" y="419"/>
      <point x="114" y="542" type="curve"/>
      <point x="55" y="483" type="line"/>
      <point x="178" y="364"/>
      <point x="340" y="202"/>
      <point x="459" y="79" type="curve"/>
    </contour>
    <contour>
      <point x="114" y="79" type="line"/>
      <point x="233" y="202"/>
      <point x="395" y="364"/>
      <point x="518" y="483" type="curve"/>
      <point x="459" y="542" type="line"/>
      <point x="340" y="419"/>
      <point x="178" y="257"/>
      <point x="55" y="138" type="curve"/>
    </contour>
  </outline>
</glyph>
<glyph name="eth" format="2">
  <advance width="503"/>
  <unicode hex="00F0"/>
  <anchor x="264" y="218" name="center"/>
  <anchor x="532" y="434" name="topright"/>
  <outline>
    <contour>
      <point x="336" y="336" type="curve"/>
      <point x="343" y="125"/>
      <point x="322" y="45"/>
      <point x="252" y="45" type="curve" smooth="yes"/>
      <point x="175" y="45"/>
      <point x="157" y="139"/>
      <point x="157" y="227" type="curve" smooth="yes"/>
      <point x="157" y="294"/>
      <point x="184" y="359"/>
      <point x="238" y="375" type="curve"/>
      <point x="276" y="367"/>
      <point x="338" y="307"/>
      <point x="338" y="237" type="curve"/>
      <point x="370" y="311" type="line"/>
      <point x="357" y="379"/>
      <point x="297" y="435"/>
      <point x="227" y="435" type="curve" smooth="yes"/>
      <point x="133" y="435"/>
      <point x="21" y="365"/>
      <point x="21" y="221" type="curve" smooth="yes"/>
      <point x="21" y="67"/>
      <point x="143" y="-15"/>
      <point x="267" y="-5" type="curve" smooth="yes"/>
      <point x="354" y="2"/>
      <point x="477" y="84"/>
      <point x="478" y="265" type="curve" smooth="yes"/>
      <point x="479" y="476"/>
      <point x="374" y="626"/>
      <point x="295" y="740" type="curve"/>
      <point x="235" y="718"/>
      <point x="125" y="689"/>
      <point x="79" y="681" type="curve"/>
      <point x="98" y="641" type="line"/>
      <point x="191" y="655" type="line"/>
      <point x="277" y="539"/>
      <point x="335" y="433"/>
    </contour>
    <contour>
      <point x="121" y="564" type="curve"/>
      <point x="134" y="494" type="line"/>
      <point x="220" y="511"/>
      <point x="394" y="542"/>
      <point x="481" y="555" type="curve"/>
      <point x="469" y="625" type="line"/>
      <point x="383" y="606"/>
      <point x="209" y="575"/>
    </contour>
  </outline>
</glyph>
<glyph name="oslash" format="2">
  <advance width="492"/>
  <unicode hex="00F8"/>
  <anchor x="246" y="430" name="top"/>
  <outline>
    <contour>
      <point x="382" y="493" type="line"/>
      <point x="297" y="493" type="line"/>
      <point x="110" y="-67" type="line"/>
      <point x="195" y="-67" type="line"/>
    </contour>
    <component base="o"/>
  </outline>
</glyph>
<glyph name="dcroat" format="2">
  <advance width="542"/>
  <unicode hex="0111"/>
  <anchor x="382" y="780" name="_top"/>
  <outline>
    <contour>
      <point x="194" y="588" type="curve"/>
      <point x="194" y="507" type="line"/>
      <point x="282" y="509"/>
      <point x="449" y="509"/>
      <point x="537" y="507" type="curve"/>
      <point x="537" y="588" type="line"/>
      <point x="449" y="584"/>
      <point x="282" y="584"/>
    </contour>
    <component base="d"/>
  </outline>
</glyph>
<glyph name="Tbar" format="2">
  <advance width="670"/>
  <unicode hex="0166"/>
  <outline>
    <contour>
      <point x="152" y="351" type="curve"/>
      <point x="152" y="270" type="line"/>
      <point x="254" y="272"/>
      <point x="413" y="272"/>
      <point x="515" y="270" type="curve"/>
      <point x="515" y="351" type="line"/>
      <point x="413" y="347"/>
      <point x="254" y="347"/>
    </contour>
    <component base="T"/>
  </outline>
</glyph>
<glyph name="tbar" format="2">
  <advance width="346"/>
  <unicode hex="0167"/>
  <anchor x="155" y="143" name="_top"/>
  <outline>
    <contour>
      <point x="3" y="291" type="curve"/>
      <point x="3" y="210" type="line"/>
      <point x="91" y="212"/>
      <point x="228" y="212"/>
      <point x="316" y="210" type="curve"/>
      <point x="316" y="291" type="line"/>
      <point x="228" y="287"/>
      <point x="91" y="287"/>
    </contour>
    <component base="t"/>
  </outline>
</glyph>
<glyph name="circumflex" format="2">
  <advance width="335"/>
  <unicode hex="02C6"/>
  <anchor x="174" y="430" name="_top"/>
  <outline>
    <contour>
      <point x="192" y="670" type="curve"/>
      <point x="151" y="670" type="line"/>
      <point x="107" y="626"/>
      <point x="46" y="564"/>
      <point x="0" y="515" type="curve"/>
      <point x="36" y="479" type="line"/>
      <point x="78" y="517"/>
      <point x="107" y="542"/>
      <point x="146" y="568" type="curve"/>
      <point x="197" y="546"/>
      <point x="244" y="516"/>
      <point x="304" y="477" type="curve"/>
      <point x="335" y="513" type="line"/>
      <point x="280" y="576"/>
      <point x="237" y="623"/>
    </contour>
  </outline>
</glyph>
<glyph name="caron" format="2">
  <advance width="335"/>
  <unicode hex="02C7"/>
  <outline>
    <contour>
      <point x="192" y="477" type="line"/>
      <point x="237" y="524"/>
      <point x="280" y="571"/>
      <point x="335" y="634" type="curve"/>
      <point x="304" y="670" type="line"/>
      <point x="244" y="631"/>
      <point x="197" y="601"/>
      <point x="146" y="579" type="curve"/>
      <point x="107" y="605"/>
      <point x="78" y="630"/>
      <point x="36" y="668" type="curve"/>
      <point x="0" y="632" type="line"/>
      <point x="46" y="583"/>
      <point x="107" y="521"/>
      <point x="151" y="477" type="curve"/>
    </contour>
  </outline>
</glyph>
<glyph name="firsttonechinese" format="2">
  <advance width="571"/>
  <unicode hex="02C9"/>
  <outline>
    <contour>
      <point x="536" y="580" type="line"/>
      <point x="386" y="577"/>
      <point x="185" y="577"/>
      <point x="35" y="580" type="curve"/>
      <point x="35" y="497" type="line"/>
      <point x="185" y="500"/>
      <point x="386" y="500"/>
      <point x="536" y="497" type="curve"/>
    </contour>
  </outline>
</glyph>
<glyph name="colontriangularmod" format="2">
  <advance width="269"/>
  <unicode hex="02D0"/>
  <outline>
    <contour>
      <point x="145" y="152" type="line"/>
      <point x="125" y="152" type="line"/>
      <point x="50" y="16" type="line"/>
      <point x="61" y="0" type="line"/>
      <point x="105" y="-6"/>
      <point x="164" y="-6"/>
      <point x="208" y="0" type="curve"/>
      <point x="219" y="16" type="line"/>
    </contour>
    <contour>
      <point x="145" y="263" type="line"/>
      <point x="219" y="400" type="line"/>
      <point x="208" y="416" type="line"/>
      <point x="164" y="422"/>
      <point x="105" y="422"/>
      <point x="61" y="416" type="curve"/>
      <point x="50" y="400" type="line"/>
      <point x="125" y="263" type="line"/>
    </contour>
  </outline>
</glyph>
<glyph name="dotaccent" format="2">
  <advance width="150"/>
  <unicode hex="02D9"/>
  <outline>
    <contour>
      <point x="75" y="480" type="curve"/>
      <point x="115" y="480"/>
      <point x="150" y="516"/>
      <point x="150" y="560" type="curve"/>
      <point x="150" y="604"/>
      <point x="115" y="639"/>
      <point x="75" y="639" type="curve"/>
      <point x="32" y="639"/>
      <point x="0" y="604"/>
      <point x="0" y="560" type="curve"/>
      <point x="0" y="516"/>
      <point x="32" y="480"/>
    </contour>
  </outline>
</glyph>
<glyph name="ogonek" format="2">
  <advance width="522"/>
  <unicode hex="02DB"/>
  <outline>
    <contour>
      <point x="177" y="32" type="curve"/>
      <point x="159" y="40" type="line"/>
      <point x="140" y="40" type="line"/>
      <point x="74" y="2"/>
      <point x="42" y="-61"/>
      <point x="42" y="-112" type="curve" smooth="yes"/>
      <point x="42" y="-157"/>
      <point x="67" y="-193"/>
      <point x="114" y="-193" type="curve" smooth="yes"/>
      <point x="158" y="-193"/>
      <point x="211" y="-162"/>
      <point x="249" y="-106" type="curve"/>
      <point x="232" y="-79" type="line"/>
      <point x="204" y="-98"/>
      <point x="187" y="-106"/>
      <point x="165" y="-106" type="curve" smooth="yes"/>
      <point x="142" y="-106"/>
      <point x="132" y="-90"/>
      <point x="132" y="-68" type="curve" smooth="yes"/>
      <point x="132" y="-39"/>
      <point x="149" y="1"/>
    </contour>
  </outline>
</glyph>
<glyph name="pi" format="2">
  <advance width="614"/>
  <unicode hex="03C0"/>
  <anchor x="184" y="10" name="ogonek"/>
  <anchor x="169" y="434" name="top"/>
  <outline>
    <contour>
      <point x="250" y="403" type="curve"/>
      <point x="193" y="398"/>
      <point x="150" y="404"/>
      <point x="104" y="404" type="curve"/>
      <point x="109" y="315"/>
      <point x="112" y="284"/>
      <point x="113" y="226" type="curve" smooth="yes"/>
      <point x="114" y="167"/>
      <point x="113" y="124"/>
      <point x="110" y="58" type="curve"/>
      <point x="41" y="37" type="line"/>
      <point x="57" y="0" type="line"/>
      <point x="97" y="1"/>
      <point x="115" y="3"/>
      <point x="181" y="3" type="curve" smooth="yes"/>
      <point x="242" y="3"/>
      <point x="216" y="2"/>
      <point x="252" y="0" type="curve"/>
      <point x="249" y="57"/>
      <point x="247" y="108"/>
      <point x="247" y="228" type="curve" smooth="yes"/>
      <point x="247" y="296"/>
      <point x="248" y="327"/>
    </contour>
    <contour>
      <point x="438" y="347" type="curve" smooth="yes"/>
      <point x="488" y="347"/>
      <point x="532" y="375"/>
      <point x="559" y="436" type="curve"/>
      <point x="526" y="456" type="line"/>
      <point x="506" y="429"/>
      <point x="494" y="426"/>
      <point x="474" y="416" type="curve"/>
      <point x="414" y="416"/>
      <point x="292" y="425"/>
      <point x="160" y="425" type="curve" smooth="yes"/>
      <point x="111" y="425"/>
      <point x="47" y="370"/>
      <point x="18" y="310" type="curve"/>
      <point x="54" y="290" type="line"/>
      <point x="72" y="313"/>
      <point x="106" y="341"/>
      <point x="127" y="352" type="curve"/>
      <point x="181" y="352"/>
      <point x="379" y="347"/>
    </contour>
    <contour>
      <point x="478" y="398" type="curve"/>
      <point x="441" y="398"/>
      <point x="406" y="394"/>
      <point x="342" y="394" type="curve"/>
      <point x="341" y="355"/>
      <point x="342" y="319"/>
      <point x="342" y="310" type="curve" smooth="yes"/>
      <point x="342" y="277"/>
      <point x="336" y="102"/>
      <point x="336" y="96" type="curve" smooth="yes"/>
      <point x="336" y="15"/>
      <point x="383" y="-10"/>
      <point x="430" y="-10" type="curve" smooth="yes"/>
      <point x="512" y="-10"/>
      <point x="569" y="37"/>
      <point x="620" y="80" type="curve"/>
      <point x="600" y="120" type="line"/>
      <point x="559" y="95"/>
      <point x="536" y="89"/>
      <point x="514" y="89" type="curve" smooth="yes"/>
      <point x="482" y="89"/>
      <point x="468" y="106"/>
      <point x="466" y="156" type="curve" smooth="yes"/>
      <point x="464" y="200"/>
      <point x="471" y="280"/>
    </contour>
  </outline>
</glyph>
<glyph name="number-ar" format="2">
  <advance width="883"/>
  <unicode hex="0600"/>
  <anchor x="40" y="190" name="digit"/>
  <outline>
    <contour>
      <point x="70" y="0" type="curve" smooth="yes"/>
      <point x="189" y="0"/>
      <point x="781" y="0"/>
      <point x="851" y="0" type="curve"/>
      <point x="852" y="9"/>
      <point x="853" y="21"/>
      <point x="853" y="35" type="curve" smooth="yes"/>
      <point x="853" y="64"/>
      <point x="849" y="100"/>
      <point x="842" y="121" type="curve" smooth="yes"/>
      <point x="837" y="137"/>
      <point x="826" y="140"/>
      <point x="805" y="140" type="curve" smooth="yes"/>
      <point x="30" y="140" type="line"/>
      <point x="30" y="78"/>
      <point x="38" y="0"/>
    </contour>
    <contour>
      <point x="610" y="198" type="curve" smooth="yes"/>
      <point x="609" y="243"/>
      <point x="674" y="229"/>
      <point x="813" y="221" type="curve"/>
      <point x="815" y="229"/>
      <point x="816" y="243"/>
      <point x="816" y="259" type="curve" smooth="yes"/>
      <point x="816" y="301"/>
      <point x="809" y="357"/>
      <point x="794" y="359" type="curve" smooth="yes"/>
      <point x="738" y="365"/>
      <point x="670" y="367"/>
      <point x="612" y="364" type="curve" smooth="yes"/>
      <point x="559" y="361"/>
      <point x="520" y="351"/>
      <point x="520" y="309" type="curve" smooth="yes"/>
      <point x="520" y="264"/>
      <point x="527" y="246"/>
      <point x="549" y="171" type="curve" smooth="yes"/>
      <point x="555" y="150"/>
      <point x="548" y="140"/>
      <point x="521" y="140" type="curve"/>
      <point x="557" y="113" type="line"/>
      <point x="600" y="103" type="line"/>
      <point x="654" y="140" type="line"/>
      <point x="616" y="140"/>
      <point x="611" y="168"/>
    </contour>
  </outline>
</glyph>
<glyph name="hamza-ar" format="2">
  <advance width="224"/>
  <unicode hex="0621"/>
  <anchor x="66" y="-40" name="bottom"/>
  <anchor x="77" y="261" name="top"/>
  <outline>
    <contour>
      <point x="-30" y="1" type="curve"/>
      <point x="194" y="1" type="line"/>
      <point x="194" y="15"/>
      <point x="193" y="48"/>
      <point x="186" y="48" type="curve" smooth="yes"/>
      <point x="65" y="48" type="line"/>
      <point x="52" y="48"/>
      <point x="57" y="81"/>
      <point x="70" y="81" type="curve"/>
      <point x="194" y="81" type="line"/>
      <point x="194" y="95"/>
      <point x="193" y="129"/>
      <point x="186" y="129" type="curve" smooth="yes"/>
      <point x="62" y="129" type="line"/>
      <point x="53" y="129"/>
      <point x="59" y="162"/>
      <point x="73" y="162" type="curve"/>
      <point x="194" y="162" type="line"/>
      <point x="194" y="175"/>
      <point x="193" y="209"/>
      <point x="186" y="209" type="curve" smooth="yes"/>
      <point x="-20" y="209" type="line" smooth="yes"/>
      <point x="-75" y="209"/>
      <point x="-48" y="148"/>
      <point x="-48" y="107" type="curve"/>
      <point x="-48" y="53"/>
      <point x="-71" y="1"/>
    </contour>
  </outline>
</glyph>
<glyph name="alefHamzaabove-ar" format="2">
  <advance width="275"/>
  <unicode hex="0623"/>
  <anchor x="99" y="-120" name="bottom"/>
  <anchor x="98" y="588" name="top"/>
  <outline>
    <component base="alef-ar" xOffset="10"/>
    <contour>
      <point x="104" y="325" type="curve"/>
      <point x="115" y="325"/>
      <point x="116" y="316"/>
      <point x="130" y="307" type="curve"/>
      <point x="130" y="321"/>
      <point x="133" y="325"/>
      <point x="138" y="325" type="curve"/>
      <point x="275" y="325" type="line"/>
      <point x="275" y="338"/>
      <point x="274" y="368"/>
      <point x="267" y="368" type="curve" smooth="yes"/>
      <point x="138" y="368" type="line"/>
      <point x="129" y="368"/>
      <point x="134" y="398"/>
      <point x="141" y="398" type="curve"/>
      <point x="275" y="398" type="line"/>
      <point x="275" y="411"/>
      <point x="274" y="442"/>
      <point x="267" y="442" type="curve" smooth="yes"/>
      <point x="139" y="442" type="line"/>
      <point x="131" y="442"/>
      <point x="136" y="472"/>
      <point x="144" y="472" type="curve"/>
      <point x="275" y="472" type="line"/>
      <point x="275" y="484"/>
      <point x="274" y="515"/>
      <point x="267" y="515" type="curve" smooth="yes"/>
      <point x="145" y="515" type="line" smooth="yes"/>
      <point x="137" y="515"/>
      <point x="136" y="516"/>
      <point x="136" y="533" type="curve"/>
      <point x="124" y="535"/>
      <point x="125" y="515"/>
      <point x="113" y="515" type="curve" smooth="yes"/>
      <point x="63" y="515"/>
      <point x="88" y="459"/>
      <point x="88" y="422" type="curve"/>
      <point x="88" y="373"/>
      <point x="67" y="325"/>
    </contour>
  </outline>
</glyph>
<glyph name="wawHamzaabove-ar" format="2">
  <advance width="546"/>
  <unicode hex="0624"/>
  <anchor x="329" y="-222" name="bottom"/>
  <anchor x="221" y="430" name="top"/>
  <outline>
    <component base="waw-ar"/>
    <contour>
      <point x="405" y="217" type="curve" smooth="yes"/>
      <point x="416" y="217"/>
      <point x="431" y="206"/>
      <point x="445" y="197" type="curve"/>
      <point x="445" y="211"/>
      <point x="448" y="217"/>
      <point x="453" y="217" type="curve"/>
      <point x="576" y="217" type="line"/>
      <point x="576" y="230"/>
      <point x="575" y="260"/>
      <point x="568" y="260" type="curve" smooth="yes"/>
      <point x="450" y="260" type="line"/>
      <point x="441" y="260"/>
      <point x="443" y="290"/>
      <point x="450" y="290" type="curve"/>
      <point x="576" y="290" type="line"/>
      <point x="576" y="303"/>
      <point x="575" y="334"/>
      <point x="568" y="334" type="curve" smooth="yes"/>
      <point x="447" y="334" type="line"/>
      <point x="439" y="334"/>
      <point x="444" y="364"/>
      <point x="452" y="364" type="curve"/>
      <point x="576" y="364" type="line"/>
      <point x="576" y="376"/>
      <point x="575" y="407"/>
      <point x="568" y="407" type="curve" smooth="yes"/>
      <point x="446" y="407" type="line" smooth="yes"/>
      <point x="439" y="407"/>
      <point x="438" y="408"/>
      <point x="437" y="425" type="curve"/>
      <point x="425" y="427"/>
      <point x="426" y="407"/>
      <point x="414" y="407" type="curve" smooth="yes"/>
      <point x="364" y="407"/>
      <point x="389" y="351"/>
      <point x="389" y="314" type="curve"/>
      <point x="389" y="265"/>
      <point x="368" y="217"/>
    </contour>
  </outline>
</glyph>
<glyph name="kaf-ar" format="2">
  <advance width="646"/>
  <unicode hex="0643"/>
  <anchor x="322" y="-40" name="bottom"/>
  <anchor x="295" y="490" name="top"/>
  <outline>
    <component base="hamza-ar" xOffset="217" yOffset="223"/>
    <contour>
      <point x="590" y="191" type="curve" smooth="yes"/>
      <point x="593" y="317"/>
      <point x="592" y="441"/>
      <point x="579" y="653" type="curve"/>
      <point x="574" y="658"/>
      <point x="568" y="661"/>
      <point x="562" y="661" type="curve" smooth="yes"/>
      <point x="557" y="661"/>
      <point x="551" y="659"/>
      <point x="545" y="654" type="curve" smooth="yes"/>
      <point x="524" y="638"/>
      <point x="500" y="621"/>
      <point x="481" y="603" type="curve"/>
      <point x="482" y="553"/>
      <point x="484" y="500"/>
      <point x="486" y="460" type="curve" smooth="yes"/>
      <point x="488" y="424"/>
      <point x="524" y="444"/>
      <point x="530" y="343" type="curve" smooth="yes"/>
      <point x="533" y="290"/>
      <point x="533" y="177"/>
      <point x="529" y="153" type="curve" smooth="yes"/>
      <point x="527" y="141"/>
      <point x="526" y="140"/>
      <point x="508" y="140" type="curve" smooth="yes"/>
      <point x="55" y="140" type="line"/>
      <point x="55" y="78"/>
      <point x="63" y="0"/>
      <point x="95" y="0" type="curve" smooth="yes"/>
      <point x="549" y="0" type="line" smooth="yes"/>
      <point x="578" y="0"/>
      <point x="587" y="65"/>
    </contour>
  </outline>
</glyph>
<glyph name="dammatan-ar" format="2">
  <unicode hex="064C"/>
  <anchor x="128" y="506" name="_top"/>
  <anchor x="72" y="832" name="top"/>
  <outline>
    <contour>
      <point x="74" y="715" type="curve" smooth="yes"/>
      <point x="74" y="705"/>
      <point x="73" y="698"/>
      <point x="59" y="698" type="curve" smooth="yes"/>
      <point x="-42" y="698" type="line"/>
      <point x="-42" y="679"/>
      <point x="-41" y="644"/>
      <point x="-34" y="644" type="curve" smooth="yes"/>
      <point x="79" y="644" type="line" smooth="yes"/>
      <point x="112" y="644"/>
      <point x="127" y="651"/>
      <point x="127" y="705" type="curve" smooth="yes"/>
      <point x="127" y="723"/>
      <point x="125" y="771"/>
      <point x="120" y="808" type="curve" smooth="yes"/>
      <point x="119" y="813"/>
      <point x="63" y="805"/>
      <point x="65" y="798" type="curve" smooth="yes"/>
      <point x="72" y="766"/>
      <point x="74" y="729"/>
    </contour>
    <component base="damma-ar"/>
  </outline>
</glyph>
<glyph name="fatha-ar" format="2">
  <unicode hex="064E"/>
  <anchor x="126" y="527" name="_top"/>
  <anchor x="114" y="624" name="top"/>
  <anchor x="-60" y="535" name="top_alef"/>
  <outline>
    <contour>
      <point x="11" y="606" type="line"/>
      <point x="11" y="591"/>
      <point x="12" y="551"/>
      <point x="19" y="551" type="curve" smooth="yes"/>
      <point x="232" y="551" type="line"/>
      <point x="232" y="566"/>
      <point x="231" y="606"/>
      <point x="224" y="606" type="curve" smooth="yes"/>
    </contour>
  </outline>
</glyph>
<glyph name="hamzaabove-ar" format="2">
  <unicode hex="0654"/>
  <anchor x="111" y="485" name="_top"/>
  <anchor x="111" y="735" name="top"/>
  <outline>
    <contour>
      <point x="37" y="525" type="curve"/>
      <point x="208" y="525" type="line"/>
      <point x="208" y="538"/>
      <point x="207" y="568"/>
      <point x="200" y="568" type="curve" smooth="yes"/>
      <point x="75" y="568" type="line"/>
      <point x="70" y="568"/>
      <point x="68" y="573"/>
      <point x="68" y="579" type="curve" smooth="yes"/>
      <point x="68" y="587"/>
      <point x="72" y="598"/>
      <point x="79" y="598" type="curve"/>
      <point x="208" y="598" type="line"/>
      <point x="208" y="611"/>
      <point x="207" y="642"/>
      <point x="200" y="642" type="curve" smooth="yes"/>
      <point x="72" y="642" type="line"/>
      <point x="69" y="642"/>
      <point x="68" y="645"/>
      <point x="68" y="650" type="curve" smooth="yes"/>
      <point x="68" y="658"/>
      <point x="73" y="672"/>
      <point x="82" y="672" type="curve"/>
      <point x="208" y="672" type="line"/>
      <point x="208" y="684"/>
      <point x="207" y="715"/>
      <point x="200" y="715" type="curve" smooth="yes"/>
      <point x="46" y="715" type="line" smooth="yes"/>
      <point x="21" y="715"/>
      <point x="15" y="701"/>
      <point x="15" y="682" type="curve" smooth="yes"/>
      <point x="15" y="664"/>
      <point x="21" y="641"/>
      <point x="21" y="622" type="curve"/>
      <point x="21" y="596"/>
      <point x="15" y="570"/>
      <point x="15" y="552" type="curve" smooth="yes"/>
      <point x="15" y="536"/>
      <point x="20" y="525"/>
    </contour>
  </outline>
</glyph>
<glyph name="dammainverted-ar" format="2">
  <unicode hex="0657"/>
  <anchor x="104" y="513" name="_top"/>
  <anchor x="117" y="814" name="top"/>
  <anchor x="-4" y="756" name="top_alef"/>
  <outline>
    <contour>
      <point x="63" y="655" type="curve"/>
      <point x="64" y="638"/>
      <point x="77" y="617"/>
      <point x="87" y="609" type="curve"/>
      <point x="92" y="615"/>
      <point x="101" y="618"/>
      <point x="109" y="618" type="curve" smooth="yes"/>
      <point x="121" y="618"/>
      <point x="133" y="612"/>
      <point x="133" y="598" type="curve" smooth="yes"/>
      <point x="133" y="585"/>
      <point x="118" y="576"/>
      <point x="101" y="576" type="curve" smooth="yes"/>
      <point x="75" y="576"/>
      <point x="44" y="594"/>
      <point x="44" y="643" type="curve" smooth="yes"/>
      <point x="44" y="708"/>
      <point x="105" y="763"/>
      <point x="244" y="750" type="curve"/>
      <point x="238" y="780"/>
      <point x="223" y="795"/>
      <point x="215" y="796" type="curve" smooth="yes"/>
      <point x="204" y="798"/>
      <point x="193" y="799"/>
      <point x="180" y="799" type="curve" smooth="yes"/>
      <point x="85" y="799"/>
      <point x="-7" y="740"/>
      <point x="-7" y="641" type="curve" smooth="yes"/>
      <point x="-7" y="560"/>
      <point x="48" y="524"/>
      <point x="99" y="524" type="curve" smooth="yes"/>
      <point x="144" y="524"/>
      <point x="186" y="552"/>
      <point x="186" y="601" type="curve" smooth="yes"/>
      <point x="186" y="648"/>
      <point x="151" y="671"/>
      <point x="114" y="671" type="curve" smooth="yes"/>
      <point x="96" y="671"/>
      <point x="78" y="665"/>
    </contour>
  </outline>
</glyph>
<glyph name="noonghunnaabove-ar" format="2">
  <unicode hex="0658"/>
  <anchor x="133" y="539" name="_top"/>
  <anchor x="132" y="749" name="top"/>
  <anchor x="-24" y="719" name="top_alef"/>
  <outline>
    <contour>
      <point x="132" y="555" type="curve" smooth="yes"/>
      <point x="214" y="556"/>
      <point x="249" y="617"/>
      <point x="250" y="721" type="curve"/>
      <point x="243" y="731"/>
      <point x="214" y="735"/>
      <point x="200" y="735" type="curve"/>
      <point x="198" y="691"/>
      <point x="199" y="610"/>
      <point x="132" y="608" type="curve"/>
      <point x="65" y="610"/>
      <point x="66" y="691"/>
      <point x="64" y="735" type="curve"/>
      <point x="50" y="735"/>
      <point x="21" y="731"/>
      <point x="14" y="721" type="curve"/>
      <point x="15" y="617"/>
      <point x="50" y="556"/>
    </contour>
  </outline>
</glyph>
<glyph name="one-ar" format="2">
  <advance width="303"/>
  <unicode hex="0661"/>
  <outline>
    <contour>
      <point x="155" y="-15" type="curve"/>
      <point x="175" y="-11"/>
      <point x="188" y="-6"/>
      <point x="198" y="11" type="curve"/>
      <point x="218" y="99"/>
      <point x="234" y="221"/>
      <point x="234" y="339" type="curve" smooth="yes"/>
      <point x="234" y="443"/>
      <point x="225" y="561"/>
      <point x="195" y="660" type="curve"/>
      <point x="144" y="660"/>
      <point x="84" y="606"/>
      <point x="69" y="574" type="curve"/>
      <point x="132" y="426"/>
      <point x="156" y="227"/>
    </contour>
  </outline>
</glyph>
<glyph name="qafDotless-ar" format="2">
  <advance width="510"/>
  <unicode hex="066F"/>
  <anchor x="355" y="-248" name="bottom"/>
  <anchor x="159" y="394" name="top"/>
  <outline>
    <contour>
      <point x="235" y="144" type="curve" smooth="yes"/>
      <point x="228" y="144"/>
      <point x="227" y="148"/>
      <point x="232" y="152" type="curve" smooth="yes"/>
      <point x="289" y="198"/>
      <point x="350" y="256"/>
      <point x="361" y="256" type="curve" smooth="yes"/>
      <point x="368" y="256"/>
      <point x="377" y="194"/>
      <point x="377" y="160" type="curve" smooth="yes"/>
      <point x="377" y="147"/>
      <point x="376" y="146"/>
      <point x="367" y="145" type="curve" smooth="yes"/>
      <point x="350" y="143"/>
      <point x="336" y="143"/>
      <point x="322" y="143" type="curve" smooth="yes"/>
      <point x="312" y="143"/>
      <point x="302" y="143"/>
      <point x="290" y="143" type="curve" smooth="yes"/>
      <point x="269" y="143"/>
      <point x="250" y="144"/>
    </contour>
    <contour>
      <point x="-267" y="-259" type="curve" smooth="yes"/>
      <point x="-348" y="-259"/>
      <point x="-452" y="-244"/>
      <point x="-550" y="-215" type="curve"/>
      <point x="-550" y="-274"/>
      <point x="-515" y="-348"/>
      <point x="-489" y="-356" type="curve" smooth="yes"/>
      <point x="-411" y="-380"/>
      <point x="-336" y="-390"/>
      <point x="-265" y="-390" type="curve" smooth="yes"/>
      <point x="45" y="-390"/>
      <point x="292" y="-241"/>
      <point x="389" y="-135" type="curve" smooth="yes"/>
      <point x="407" y="-115"/>
      <point x="425" y="-92"/>
      <point x="428" y="-78" type="curve" smooth="yes"/>
      <point x="445" y="5"/>
      <point x="450" y="104"/>
      <point x="450" y="193" type="curve" smooth="yes"/>
      <point x="450" y="298"/>
      <point x="442" y="389"/>
      <point x="436" y="425" type="curve"/>
      <point x="435" y="434"/>
      <point x="404" y="453"/>
      <point x="396" y="453" type="curve" smooth="yes"/>
      <point x="384" y="453"/>
      <point x="70" y="192"/>
      <point x="70" y="167" type="curve" smooth="yes"/>
      <point x="70" y="141"/>
      <point x="94" y="38"/>
      <point x="111" y="0" type="curve"/>
      <point x="365" y="0" type="line"/>
      <point x="366" y="-10"/>
      <point x="360" y="-38"/>
      <point x="355" y="-47" type="curve" smooth="yes"/>
      <point x="344" y="-67"/>
      <point x="108" y="-259"/>
    </contour>
  </outline>
</glyph>
<glyph name="fehDotless-ar" format="2">
  <advance width="530"/>
  <unicode hex="06A1"/>
  <anchor x="251" y="-40" name="bottom"/>
  <anchor x="170" y="578" name="top"/>
  <outline>
    <contour>
      <point x="241" y="344" type="curve" smooth="yes"/>
      <point x="234" y="344"/>
      <point x="233" y="345"/>
      <point x="238" y="349" type="curve" smooth="yes"/>
      <point x="292" y="398"/>
      <point x="366" y="456"/>
      <point x="377" y="456" type="curve" smooth="yes"/>
      <point x="386" y="456"/>
      <point x="394" y="384"/>
      <point x="395" y="360" type="curve" smooth="yes"/>
      <point x="395" y="347"/>
      <point x="390" y="346"/>
      <point x="376" y="345" type="curve" smooth="yes"/>
      <point x="353" y="343"/>
      <point x="335" y="343"/>
      <point x="306" y="343" type="curve" smooth="yes"/>
      <point x="285" y="343"/>
      <point x="256" y="343"/>
    </contour>
    <contour>
      <point x="411" y="659" type="curve"/>
      <point x="399" y="659"/>
      <point x="176" y="475"/>
      <point x="81" y="381" type="curve" smooth="yes"/>
      <point x="75" y="376"/>
      <point x="74" y="372"/>
      <point x="74" y="360" type="curve" smooth="yes"/>
      <point x="74" y="317"/>
      <point x="89" y="235"/>
      <point x="106" y="201" type="curve"/>
      <point x="163" y="203"/>
      <point x="193" y="204"/>
      <point x="236" y="204" type="curve" smooth="yes"/>
      <point x="281" y="204"/>
      <point x="310" y="203"/>
      <point x="384" y="200" type="curve" smooth="yes"/>
      <point x="393" y="200"/>
      <point x="396" y="199"/>
      <point x="396" y="193" type="curve" smooth="yes"/>
      <point x="396" y="142"/>
      <point x="389" y="140"/>
      <point x="382" y="140" type="curve"/>
      <point x="55" y="140" type="line"/>
      <point x="55" y="78"/>
      <point x="63" y="0"/>
      <point x="95" y="0" type="curve"/>
      <point x="403" y="0" type="line" smooth="yes"/>
      <point x="449" y="0"/>
      <point x="465" y="152"/>
      <point x="465" y="332" type="curve" smooth="yes"/>
      <point x="465" y="429"/>
      <point x="460" y="533"/>
      <point x="453" y="627" type="curve" smooth="yes"/>
      <point x="452" y="637"/>
      <point x="418" y="659"/>
    </contour>
  </outline>
</glyph>
<glyph name="endofayah-ar" format="2">
  <advance width="1250"/>
  <unicode hex="06DD"/>
  <outline>
    <contour>
      <point x="616" y="-354" type="line" smooth="yes"/>
      <point x="618" y="-356"/>
      <point x="621" y="-357"/>
      <point x="624" y="-357" type="curve" smooth="yes"/>
      <point x="627" y="-357"/>
      <point x="630" y="-356"/>
      <point x="632" y="-354" type="curve" smooth="yes"/>
      <point x="863" y="-180" type="line"/>
      <point x="897" y="-216"/>
      <point x="943" y="-238"/>
      <point x="990" y="-238" type="curve" smooth="yes"/>
      <point x="1062" y="-238"/>
      <point x="1113" y="-194"/>
      <point x="1113" y="-131" type="curve" smooth="yes"/>
      <point x="1113" y="-102"/>
      <point x="1102" y="-78"/>
      <point x="1084" y="-60" type="curve"/>
      <point x="1086" y="-60"/>
      <point x="1087" y="-60"/>
      <point x="1088" y="-60" type="curve" smooth="yes"/>
      <point x="1131" y="-60"/>
      <point x="1167" y="-24"/>
      <point x="1167" y="19" type="curve" smooth="yes"/>
      <point x="1167" y="62"/>
      <point x="1131" y="97"/>
      <point x="1088" y="97" type="curve" smooth="yes"/>
      <point x="1081" y="97"/>
      <point x="1074" y="96"/>
      <point x="1068" y="94" type="curve"/>
      <point x="1192" y="208" type="line"/>
      <point x="1192" y="221" type="line"/>
      <point x="1074" y="337" type="line"/>
      <point x="1079" y="336"/>
      <point x="1083" y="336"/>
      <point x="1088" y="336" type="curve" smooth="yes"/>
      <point x="1131" y="336"/>
      <point x="1167" y="372"/>
      <point x="1167" y="415" type="curve" smooth="yes"/>
      <point x="1167" y="458"/>
      <point x="1131" y="493"/>
      <point x="1088" y="493" type="curve" smooth="yes"/>
      <point x="1086" y="493"/>
      <point x="1084" y="493"/>
      <point x="1082" y="493" type="curve"/>
      <point x="1101" y="511"/>
      <point x="1113" y="536"/>
      <point x="1113" y="566" type="curve" smooth="yes"/>
      <point x="1113" y="629"/>
      <point x="1062" y="673"/>
      <point x="990" y="673" type="curve" smooth="yes"/>
      <point x="943" y="673"/>
      <point x="897" y="651"/>
      <point x="863" y="615" type="curve"/>
      <point x="624" y="792" type="line"/>
      <point x="381" y="615" type="line"/>
      <point x="347" y="651"/>
      <point x="301" y="673"/>
      <point x="254" y="673" type="curve" smooth="yes"/>
      <point x="182" y="673"/>
      <point x="131" y="629"/>
      <point x="131" y="566" type="curve" smooth="yes"/>
      <point x="131" y="536"/>
      <point x="143" y="511"/>
      <point x="162" y="493" type="curve"/>
      <point x="160" y="493"/>
      <point x="157" y="493"/>
      <point x="155" y="493" type="curve" smooth="yes"/>
      <point x="112" y="493"/>
      <point x="76" y="457"/>
      <point x="76" y="415" type="curve" smooth="yes"/>
      <point x="76" y="373"/>
      <point x="113" y="336"/>
      <point x="155" y="336" type="curve" smooth="yes"/>
      <point x="161" y="336"/>
      <point x="168" y="337"/>
      <point x="174" y="338" type="curve"/>
      <point x="50" y="221" type="line"/>
      <point x="50" y="208" type="line"/>
      <point x="173" y="95" type="line"/>
      <point x="167" y="96"/>
      <point x="161" y="97"/>
      <point x="155" y="97" type="curve" smooth="yes"/>
      <point x="112" y="97"/>
      <point x="76" y="61"/>
      <point x="76" y="19" type="curve" smooth="yes"/>
      <point x="76" y="-23"/>
      <point x="113" y="-60"/>
      <point x="155" y="-60" type="curve" smooth="yes"/>
      <point x="157" y="-60"/>
      <point x="158" y="-60"/>
      <point x="160" y="-60" type="curve"/>
      <point x="142" y="-78"/>
      <point x="131" y="-102"/>
      <point x="131" y="-131" type="curve" smooth="yes"/>
      <point x="131" y="-194"/>
      <point x="182" y="-238"/>
      <point x="254" y="-238" type="curve" smooth="yes"/>
      <point x="301" y="-238"/>
      <point x="347" y="-216"/>
      <point x="381" y="-180" type="curve"/>
    </contour>
    <contour>
      <point x="155" y="-36" type="curve" smooth="yes"/>
      <point x="126" y="-36"/>
      <point x="100" y="-10"/>
      <point x="100" y="19" type="curve" smooth="yes"/>
      <point x="100" y="48"/>
      <point x="125" y="73"/>
      <point x="155" y="73" type="curve" smooth="yes"/>
      <point x="185" y="73"/>
      <point x="210" y="49"/>
      <point x="210" y="19" type="curve" smooth="yes"/>
      <point x="210" y="-11"/>
      <point x="185" y="-36"/>
    </contour>
    <contour>
      <point x="502" y="-240" type="line"/>
      <point x="471" y="-217" type="line"/>
      <point x="471" y="-91" type="line"/>
      <point x="481" y="-97"/>
      <point x="492" y="-101"/>
      <point x="502" y="-106" type="curve"/>
    </contour>
    <contour>
      <point x="557" y="-280" type="line"/>
      <point x="526" y="-257" type="line"/>
      <point x="526" y="-115" type="line"/>
      <point x="536" y="-118"/>
      <point x="547" y="-121"/>
      <point x="557" y="-123" type="curve"/>
    </contour>
    <contour>
      <point x="612" y="-321" type="line"/>
      <point x="581" y="-298" type="line"/>
      <point x="581" y="-128" type="line"/>
      <point x="591" y="-129"/>
      <point x="602" y="-130"/>
      <point x="612" y="-130" type="curve"/>
    </contour>
    <contour>
      <point x="636" y="-321" type="line"/>
      <point x="636" y="-130" type="line"/>
      <point x="646" y="-130"/>
      <point x="657" y="-129"/>
      <point x="667" y="-127" type="curve"/>
      <point x="667" y="-298" type="line"/>
    </contour>
    <contour>
      <point x="447" y="-199" type="line"/>
      <point x="396" y="-161" type="line"/>
      <point x="403" y="-152"/>
      <point x="425" y="-114"/>
      <point x="425" y="-104" type="curve"/>
      <point x="83" y="215" type="line"/>
      <point x="424" y="540" type="line"/>
      <point x="424" y="549"/>
      <point x="405" y="584"/>
      <point x="396" y="596" type="curve"/>
      <point x="447" y="634" type="line"/>
      <point x="447" y="514" type="line"/>
      <point x="422" y="498"/>
      <point x="397" y="478"/>
      <point x="373" y="456" type="curve"/>
      <point x="119" y="215" type="line"/>
      <point x="373" y="-20" type="line"/>
      <point x="397" y="-42"/>
      <point x="422" y="-62"/>
      <point x="447" y="-77" type="curve"/>
    </contour>
    <contour>
      <point x="691" y="-279" type="line"/>
      <point x="691" y="-123" type="line"/>
      <point x="701" y="-120"/>
      <point x="712" y="-117"/>
      <point x="722" y="-114" type="curve"/>
      <point x="722" y="-256" type="line"/>
    </contour>
    <contour>
      <point x="155" y="360" type="curve" smooth="yes"/>
      <point x="126" y="360"/>
      <point x="100" y="386"/>
      <point x="100" y="415" type="curve" smooth="yes"/>
      <point x="100" y="444"/>
      <point x="125" y="469"/>
      <point x="155" y="469" type="curve" smooth="yes"/>
      <point x="185" y="469"/>
      <point x="210" y="445"/>
      <point x="210" y="415" type="curve" smooth="yes"/>
      <point x="210" y="385"/>
      <point x="185" y="360"/>
    </contour>
    <contour>
      <point x="746" y="-238" type="line"/>
      <point x="746" y="-104" type="line"/>
      <point x="756" y="-100"/>
      <point x="767" y="-95"/>
      <point x="777" y="-89" type="curve"/>
      <point x="777" y="-215" type="line"/>
    </contour>
    <contour>
      <point x="230" y="391" type="line"/>
      <point x="233" y="398"/>
      <point x="234" y="407"/>
      <point x="234" y="415" type="curve" smooth="yes"/>
      <point x="234" y="435"/>
      <point x="226" y="453"/>
      <point x="214" y="467" type="curve"/>
      <point x="221" y="466"/>
      <point x="229" y="465"/>
      <point x="237" y="465" type="curve" smooth="yes"/>
      <point x="287" y="465"/>
      <point x="323" y="499"/>
      <point x="323" y="545" type="curve" smooth="yes"/>
      <point x="323" y="586"/>
      <point x="293" y="616"/>
      <point x="251" y="616" type="curve" smooth="yes"/>
      <point x="218" y="616"/>
      <point x="195" y="595"/>
      <point x="195" y="566" type="curve" smooth="yes"/>
      <point x="195" y="540"/>
      <point x="211" y="521"/>
      <point x="252" y="521" type="curve"/>
      <point x="247" y="545" type="line"/>
      <point x="228" y="545"/>
      <point x="219" y="554"/>
      <point x="219" y="566" type="curve" smooth="yes"/>
      <point x="219" y="581"/>
      <point x="231" y="592"/>
      <point x="251" y="592" type="curve" smooth="yes"/>
      <point x="280" y="592"/>
      <point x="299" y="573"/>
      <point x="299" y="545" type="curve" smooth="yes"/>
      <point x="299" y="512"/>
      <point x="274" y="489"/>
      <point x="237" y="489" type="curve" smooth="yes"/>
      <point x="189" y="489"/>
      <point x="155" y="521"/>
      <point x="155" y="566" type="curve" smooth="yes"/>
      <point x="155" y="615"/>
      <point x="195" y="649"/>
      <point x="254" y="649" type="curve" smooth="yes"/>
      <point x="313" y="649"/>
      <point x="372" y="606"/>
      <point x="397" y="546" type="curve"/>
    </contour>
    <contour>
      <point x="622" y="-97" type="curve" smooth="yes"/>
      <point x="545" y="-97"/>
      <point x="468" y="-62"/>
      <point x="396" y="4" type="curve" smooth="yes"/>
      <point x="169" y="215" type="line"/>
      <point x="397" y="433" type="line" smooth="yes"/>
      <point x="468" y="501"/>
      <point x="545" y="535"/>
      <point x="622" y="535" type="curve" smooth="yes"/>
      <point x="699" y="535"/>
      <point x="777" y="501"/>
      <point x="848" y="432" type="curve" smooth="yes"/>
      <point x="1075" y="215" type="line"/>
      <point x="848" y="4" type="line" smooth="yes"/>
      <point x="776" y="-62"/>
      <point x="700" y="-97"/>
    </contour>
    <contour>
      <point x="471" y="527" type="curve"/>
      <point x="471" y="652" type="line"/>
      <point x="502" y="675" type="line"/>
      <point x="502" y="542" type="line"/>
      <point x="492" y="538"/>
      <point x="481" y="533"/>
    </contour>
    <contour>
      <point x="1088" y="-36" type="curve" smooth="yes"/>
      <point x="1059" y="-36"/>
      <point x="1033" y="-10"/>
      <point x="1033" y="19" type="curve" smooth="yes"/>
      <point x="1033" y="48"/>
      <point x="1058" y="73"/>
      <point x="1088" y="73" type="curve" smooth="yes"/>
      <point x="1118" y="73"/>
      <point x="1143" y="49"/>
      <point x="1143" y="19" type="curve" smooth="yes"/>
      <point x="1143" y="-11"/>
      <point x="1118" y="-36"/>
    </contour>
    <contour>
      <point x="526" y="551" type="curve"/>
      <point x="526" y="692" type="line"/>
      <point x="557" y="715" type="line"/>
      <point x="557" y="560" type="line"/>
      <point x="547" y="557"/>
      <point x="536" y="554"/>
    </contour>
    <contour>
      <point x="801" y="-196" type="line"/>
      <point x="801" y="-75" type="line"/>
      <point x="825" y="-60"/>
      <point x="849" y="-41"/>
      <point x="871" y="-20" type="curve"/>
      <point x="1119" y="215" type="line"/>
      <point x="871" y="456" type="line" smooth="yes"/>
      <point x="849" y="478"/>
      <point x="825" y="495"/>
      <point x="801" y="511" type="curve"/>
      <point x="801" y="631" type="line"/>
      <point x="848" y="596" type="line"/>
      <point x="837" y="582"/>
      <point x="818" y="549"/>
      <point x="818" y="540" type="curve"/>
      <point x="1161" y="215" type="line"/>
      <point x="821" y="-104" type="line"/>
      <point x="821" y="-117"/>
      <point x="839" y="-149"/>
      <point x="848" y="-161" type="curve"/>
    </contour>
    <contour>
      <point x="581" y="564" type="curve"/>
      <point x="581" y="733" type="line"/>
      <point x="612" y="756" type="line"/>
      <point x="612" y="566" type="line"/>
      <point x="602" y="566"/>
      <point x="591" y="565"/>
    </contour>
    <contour>
      <point x="667" y="563" type="line"/>
      <point x="657" y="565"/>
      <point x="646" y="566"/>
      <point x="636" y="566" type="curve"/>
      <point x="636" y="756" type="line"/>
      <point x="667" y="733" type="line"/>
    </contour>
    <contour>
      <point x="722" y="549" type="line"/>
      <point x="712" y="553"/>
      <point x="701" y="556"/>
      <point x="691" y="558" type="curve"/>
      <point x="691" y="714" type="line"/>
      <point x="722" y="691" type="line"/>
    </contour>
    <contour>
      <point x="777" y="525" type="line"/>
      <point x="767" y="531"/>
      <point x="756" y="536"/>
      <point x="746" y="540" type="curve"/>
      <point x="746" y="673" type="line"/>
      <point x="777" y="650" type="line"/>
    </contour>
    <contour>
      <point x="1012" y="395" type="curve"/>
      <point x="847" y="546" type="line"/>
      <point x="872" y="606"/>
      <point x="931" y="649"/>
      <point x="990" y="649" type="curve" smooth="yes"/>
      <point x="1049" y="649"/>
      <point x="1089" y="615"/>
      <point x="1089" y="566" type="curve" smooth="yes"/>
      <point x="1089" y="521"/>
      <point x="1055" y="489"/>
      <point x="1007" y="489" type="curve" smooth="yes"/>
      <point x="970" y="489"/>
      <point x="945" y="512"/>
      <point x="945" y="545" type="curve" smooth="yes"/>
      <point x="945" y="573"/>
      <point x="964" y="592"/>
      <point x="993" y="592" type="curve" smooth="yes"/>
      <point x="1013" y="592"/>
      <point x="1025" y="581"/>
      <point x="1025" y="566" type="curve" smooth="yes"/>
      <point x="1025" y="554"/>
      <point x="1016" y="545"/>
      <point x="998" y="545" type="curve"/>
      <point x="993" y="521" type="line"/>
      <point x="1033" y="521"/>
      <point x="1049" y="540"/>
      <point x="1049" y="566" type="curve" smooth="yes"/>
      <point x="1049" y="595"/>
      <point x="1026" y="616"/>
      <point x="993" y="616" type="curve" smooth="yes"/>
      <point x="951" y="616"/>
      <point x="921" y="586"/>
      <point x="921" y="545" type="curve" smooth="yes"/>
      <point x="921" y="499"/>
      <point x="957" y="465"/>
      <point x="1007" y="465" type="curve" smooth="yes"/>
      <point x="1015" y="465"/>
      <point x="1022" y="466"/>
      <point x="1030" y="467" type="curve"/>
      <point x="1017" y="453"/>
      <point x="1009" y="435"/>
      <point x="1009" y="415" type="curve" smooth="yes"/>
      <point x="1009" y="408"/>
      <point x="1010" y="401"/>
    </contour>
    <contour>
      <point x="1088" y="360" type="curve" smooth="yes"/>
      <point x="1059" y="360"/>
      <point x="1033" y="386"/>
      <point x="1033" y="415" type="curve" smooth="yes"/>
      <point x="1033" y="444"/>
      <point x="1058" y="469"/>
      <point x="1088" y="469" type="curve" smooth="yes"/>
      <point x="1118" y="469"/>
      <point x="1143" y="445"/>
      <point x="1143" y="415" type="curve" smooth="yes"/>
      <point x="1143" y="385"/>
      <point x="1118" y="360"/>
    </contour>
    <contour>
      <point x="230" y="44" type="curve"/>
      <point x="397" y="-111" type="line"/>
      <point x="372" y="-172"/>
      <point x="313" y="-214"/>
      <point x="254" y="-214" type="curve" smooth="yes"/>
      <point x="195" y="-214"/>
      <point x="155" y="-180"/>
      <point x="155" y="-131" type="curve" smooth="yes"/>
      <point x="155" y="-86"/>
      <point x="189" y="-54"/>
      <point x="237" y="-54" type="curve" smooth="yes"/>
      <point x="274" y="-54"/>
      <point x="299" y="-78"/>
      <point x="299" y="-110" type="curve" smooth="yes"/>
      <point x="299" y="-138"/>
      <point x="280" y="-157"/>
      <point x="251" y="-157" type="curve" smooth="yes"/>
      <point x="231" y="-157"/>
      <point x="219" y="-147"/>
      <point x="219" y="-131" type="curve" smooth="yes"/>
      <point x="219" y="-119"/>
      <point x="228" y="-110"/>
      <point x="247" y="-110" type="curve"/>
      <point x="252" y="-86" type="line"/>
      <point x="211" y="-86"/>
      <point x="195" y="-105"/>
      <point x="195" y="-131" type="curve" smooth="yes"/>
      <point x="195" y="-160"/>
      <point x="218" y="-181"/>
      <point x="251" y="-181" type="curve" smooth="yes"/>
      <point x="293" y="-181"/>
      <point x="323" y="-152"/>
      <point x="323" y="-110" type="curve" smooth="yes"/>
      <point x="323" y="-64"/>
      <point x="287" y="-30"/>
      <point x="237" y="-30" type="curve" smooth="yes"/>
      <point x="229" y="-30"/>
      <point x="221" y="-31"/>
      <point x="214" y="-32" type="curve"/>
      <point x="226" y="-19"/>
      <point x="234" y="0"/>
      <point x="234" y="20" type="curve" smooth="yes"/>
      <point x="234" y="28"/>
      <point x="233" y="36"/>
    </contour>
    <contour>
      <point x="1012" y="40" type="line"/>
      <point x="1010" y="34"/>
      <point x="1009" y="27"/>
      <point x="1009" y="20" type="curve" smooth="yes"/>
      <point x="1009" y="0"/>
      <point x="1017" y="-18"/>
      <point x="1030" y="-32" type="curve"/>
      <point x="1022" y="-31"/>
      <point x="1015" y="-30"/>
      <point x="1007" y="-30" type="curve" smooth="yes"/>
      <point x="957" y="-30"/>
      <point x="921" y="-64"/>
      <point x="921" y="-110" type="curve" smooth="yes"/>
      <point x="921" y="-152"/>
      <point x="951" y="-181"/>
      <point x="993" y="-181" type="curve" smooth="yes"/>
      <point x="1026" y="-181"/>
      <point x="1049" y="-160"/>
      <point x="1049" y="-131" type="curve" smooth="yes"/>
      <point x="1049" y="-105"/>
      <point x="1033" y="-86"/>
      <point x="993" y="-86" type="curve"/>
      <point x="998" y="-110" type="line"/>
      <point x="1016" y="-110"/>
      <point x="1025" y="-119"/>
      <point x="1025" y="-131" type="curve" smooth="yes"/>
      <point x="1025" y="-147"/>
      <point x="1013" y="-157"/>
      <point x="993" y="-157" type="curve" smooth="yes"/>
      <point x="964" y="-157"/>
      <point x="945" y="-138"/>
      <point x="945" y="-110" type="curve" smooth="yes"/>
      <point x="945" y="-78"/>
      <point x="970" y="-54"/>
      <point x="1007" y="-54" type="curve" smooth="yes"/>
      <point x="1055" y="-54"/>
      <point x="1089" y="-86"/>
      <point x="1089" y="-131" type="curve" smooth="yes"/>
      <point x="1089" y="-180"/>
      <point x="1049" y="-214"/>
      <point x="990" y="-214" type="curve" smooth="yes"/>
      <point x="931" y="-214"/>
      <point x="872" y="-172"/>
      <point x="847" y="-112" type="curve"/>
    </contour>
  </outline>
</glyph>
<glyph name="fathaRing-ar" format="2">
  <unicode hex="08F4"/>
  <anchor x="115" y="527" name="_top"/>
  <anchor x="117" y="765" name="top"/>
  <anchor x="-29" y="725" name="top_alef"/>
  <outline>
    <component base="fatha-ar" xScale="1.13887" yScale="0.84713" xOffset="-21" yOffset="167"/>
    <contour>
      <point x="118" y="570" type="curve" smooth="yes"/>
      <point x="166" y="570"/>
      <point x="205" y="608"/>
      <point x="205" y="657" type="curve" smooth="yes"/>
      <point x="205" y="706"/>
      <point x="166" y="744"/>
      <point x="118" y="744" type="curve" smooth="yes"/>
      <point x="69" y="744"/>
      <point x="30" y="706"/>
      <point x="30" y="657" type="curve" smooth="yes"/>
      <point x="30" y="606"/>
      <point x="71" y="570"/>
    </contour>
    <contour>
      <point x="118" y="610" type="curve" smooth="yes"/>
      <point x="91" y="610"/>
      <point x="71" y="630"/>
      <point x="71" y="657" type="curve" smooth="yes"/>
      <point x="71" y="683"/>
      <point x="91" y="705"/>
      <point x="118" y="705" type="curve" smooth="yes"/>
      <point x="143" y="705"/>
      <point x="165" y="683"/>
      <point x="165" y="657" type="curve" smooth="yes"/>
      <point x="165" y="630"/>
      <point x="143" y="610"/>
    </contour>
  </outline>
</glyph>
<glyph name="leftarrowheadabove-ar" format="2">
  <unicode hex="08F7"/>
  <anchor x="114" y="527" name="_top"/>
  <anchor x="96" y="803" name="top"/>
  <anchor x="-40" y="671" name="top_alef"/>
  <outline>
    <contour>
      <point x="66" y="620" type="curve" smooth="yes"/>
      <point x="65" y="621"/>
      <point x="65" y="625"/>
      <point x="65" y="631" type="curve" smooth="yes"/>
      <point x="65" y="648"/>
      <point x="70" y="686"/>
      <point x="91" y="765" type="curve"/>
      <point x="84" y="770"/>
      <point x="49" y="787"/>
      <point x="42" y="783" type="curve"/>
      <point x="25" y="726"/>
      <point x="13" y="663"/>
      <point x="13" y="614" type="curve" smooth="yes"/>
      <point x="13" y="579"/>
      <point x="26" y="571"/>
      <point x="59" y="561" type="curve" smooth="yes"/>
      <point x="97" y="549"/>
      <point x="148" y="543"/>
      <point x="210" y="545" type="curve" smooth="yes"/>
      <point x="217" y="545"/>
      <point x="226" y="582"/>
      <point x="225" y="600" type="curve"/>
      <point x="214" y="599"/>
      <point x="203" y="599"/>
      <point x="193" y="599" type="curve" smooth="yes"/>
      <point x="109" y="599"/>
      <point x="70" y="614"/>
    </contour>
  </outline>
</glyph>
<glyph name="foursuperior" format="2">
  <advance width="385"/>
  <unicode hex="2074"/>
  <outline>
    <contour>
      <point x="302" y="672" type="curve"/>
      <point x="265" y="672" type="line"/>
      <point x="181" y="567"/>
      <point x="107" y="489"/>
      <point x="20" y="393" type="curve"/>
      <point x="20" y="342" type="line"/>
      <point x="105" y="345"/>
      <point x="124" y="345"/>
      <point x="190" y="345" type="curve" smooth="yes"/>
      <point x="257" y="345"/>
      <point x="307" y="345"/>
      <point x="365" y="342" type="curve"/>
      <point x="365" y="397" type="line"/>
      <point x="310" y="393"/>
      <point x="271" y="393"/>
      <point x="222" y="393" type="curve" smooth="yes"/>
      <point x="177" y="393"/>
      <point x="123" y="396"/>
      <point x="105" y="397" type="curve"/>
      <point x="131" y="437"/>
      <point x="152" y="466"/>
      <point x="202" y="542" type="curve"/>
      <point x="202" y="478"/>
      <point x="200" y="307"/>
      <point x="197" y="253" type="curve"/>
      <point x="306" y="253" type="line"/>
      <point x="300" y="364"/>
      <point x="300" y="466"/>
    </contour>
  </outline>
</glyph>
<glyph name="trademark" format="2">
  <advance width="856"/>
  <unicode hex="2122"/>
  <outline>
    <contour>
      <point x="668" y="662" type="line"/>
      <point x="628" y="545"/>
      <point x="589" y="478"/>
      <point x="556" y="410" type="curve"/>
      <point x="547" y="347" type="line"/>
      <point x="573" y="347" type="line"/>
      <point x="625" y="476"/>
      <point x="655" y="518"/>
      <point x="701" y="611" type="curve"/>
    </contour>
    <contour>
      <point x="794" y="662" type="line"/>
      <point x="776" y="661"/>
      <point x="763" y="660"/>
      <point x="717" y="660" type="curve" smooth="yes"/>
      <point x="701" y="660"/>
      <point x="686" y="661"/>
      <point x="668" y="662" type="curve"/>
      <point x="674" y="631" type="line"/>
      <point x="681" y="516"/>
      <point x="680" y="478"/>
      <point x="680" y="386" type="curve"/>
      <point x="633" y="374" type="line"/>
      <point x="642" y="351" type="line"/>
      <point x="666" y="352"/>
      <point x="689" y="353"/>
      <point x="724" y="353" type="curve" smooth="yes"/>
      <point x="758" y="353"/>
      <point x="780" y="352"/>
      <point x="803" y="351" type="curve"/>
      <point x="811" y="374" type="line"/>
      <point x="765" y="386" type="line"/>
      <point x="759" y="478"/>
      <point x="757" y="530"/>
      <point x="757" y="625" type="curve"/>
      <point x="803" y="638" type="line"/>
    </contour>
    <contour>
      <point x="339" y="374" type="line"/>
      <point x="347" y="351" type="line"/>
      <point x="369" y="352"/>
      <point x="384" y="353"/>
      <point x="408" y="353" type="curve"/>
      <point x="431" y="353"/>
      <point x="454" y="352"/>
      <point x="479" y="351" type="curve"/>
      <point x="487" y="374" type="line"/>
      <point x="441" y="386" type="line"/>
      <point x="438" y="466"/>
      <point x="436" y="544"/>
      <point x="435" y="613" type="curve"/>
      <point x="426" y="584" type="line"/>
      <point x="469" y="501"/>
      <point x="496" y="464"/>
      <point x="547" y="347" type="curve"/>
      <point x="573" y="347" type="line"/>
      <point x="601" y="433" type="line"/>
      <point x="555" y="521"/>
      <point x="517" y="572"/>
      <point x="480" y="662" type="curve"/>
      <point x="448" y="661"/>
      <point x="433" y="660"/>
      <point x="419" y="660" type="curve" smooth="yes"/>
      <point x="393" y="660"/>
      <point x="382" y="661"/>
      <point x="356" y="662" type="curve"/>
      <point x="347" y="638" type="line"/>
      <point x="394" y="625" type="line"/>
      <point x="396" y="542"/>
      <point x="395" y="467"/>
      <point x="386" y="386" type="curve"/>
    </contour>
    <component base="t.sc" xScale="0.6" yScale="0.6" xOffset="9" yOffset="351"/>
  </outline>
</glyph>
<glyph name="Ohm" format="2">
  <advance width="758"/>
  <unicode hex="2126"/>
  <anchor x="373" y="660" name="top"/>
  <outline>
    <contour>
      <point x="2" y="0" type="curve"/>
      <point x="60" y="3"/>
      <point x="101" y="3"/>
      <point x="179" y="3" type="curve" smooth="yes"/>
      <point x="226" y="3"/>
      <point x="276" y="2"/>
      <point x="349" y="0" type="curve"/>
      <point x="349" y="60" type="line"/>
      <point x="267" y="122"/>
      <point x="228" y="249"/>
      <point x="228" y="366" type="curve" smooth="yes"/>
      <point x="228" y="496"/>
      <point x="277" y="613"/>
      <point x="379" y="613" type="curve" smooth="yes"/>
      <point x="481" y="613"/>
      <point x="530" y="496"/>
      <point x="530" y="366" type="curve" smooth="yes"/>
      <point x="530" y="249"/>
      <point x="491" y="122"/>
      <point x="409" y="60" type="curve"/>
      <point x="409" y="0" type="line"/>
      <point x="482" y="2"/>
      <point x="532" y="3"/>
      <point x="579" y="3" type="curve" smooth="yes"/>
      <point x="657" y="3"/>
      <point x="698" y="3"/>
      <point x="756" y="0" type="curve"/>
      <point x="747" y="81"/>
      <point x="745" y="127"/>
      <point x="745" y="189" type="curve"/>
      <point x="680" y="189" type="line"/>
      <point x="654" y="81" type="line"/>
      <point x="627" y="67"/>
      <point x="589" y="60"/>
      <point x="552" y="60" type="curve" smooth="yes"/>
      <point x="542" y="60"/>
      <point x="533" y="60"/>
      <point x="524" y="61" type="curve"/>
      <point x="606" y="129"/>
      <point x="668" y="239"/>
      <point x="668" y="358" type="curve" smooth="yes"/>
      <point x="668" y="514"/>
      <point x="563" y="670"/>
      <point x="379" y="670" type="curve" smooth="yes"/>
      <point x="195" y="670"/>
      <point x="90" y="514"/>
      <point x="90" y="358" type="curve" smooth="yes"/>
      <point x="90" y="239"/>
      <point x="152" y="129"/>
      <point x="234" y="61" type="curve"/>
      <point x="225" y="60"/>
      <point x="216" y="60"/>
      <point x="206" y="60" type="curve" smooth="yes"/>
      <point x="169" y="60"/>
      <point x="131" y="67"/>
      <point x="104" y="81" type="curve"/>
      <point x="78" y="189" type="line"/>
      <point x="13" y="189" type="line"/>
      <point x="13" y="127"/>
      <point x="11" y="81"/>
    </contour>
  </outline>
</glyph>
<glyph name="partialdiff" format="2">
  <advance width="503"/>
  <unicode hex="2202"/>
  <anchor x="264" y="218" name="center"/>
  <anchor x="532" y="434" name="topright"/>
  <outline>
    <contour>
      <point x="336" y="336" type="curve"/>
      <point x="343" y="125"/>
      <point x="322" y="45"/>
      <point x="252" y="45" type="curve" smooth="yes"/>
      <point x="175" y="45"/>
      <point x="157" y="139"/>
      <point x="157" y="227" type="curve" smooth="yes"/>
      <point x="157" y="288"/>
      <point x="181" y="375"/>
      <point x="234" y="375" type="curve" smooth="yes"/>
      <point x="276" y="375"/>
      <point x="338" y="307"/>
      <point x="338" y="237" type="curve"/>
      <point x="370" y="311" type="line"/>
      <point x="357" y="379"/>
      <point x="297" y="435"/>
      <point x="227" y="435" type="curve" smooth="yes"/>
      <point x="133" y="435"/>
      <point x="21" y="365"/>
      <point x="21" y="221" type="curve" smooth="yes"/>
      <point x="21" y="67"/>
      <point x="133" y="-5"/>
      <point x="267" y="-5" type="curve" smooth="yes"/>
      <point x="370" y="-5"/>
      <point x="479" y="80"/>
      <point x="478" y="295" type="curve" smooth="yes"/>
      <point x="477" y="562"/>
      <point x="402" y="710"/>
      <point x="249" y="710" type="curve" smooth="yes"/>
      <point x="137" y="710"/>
      <point x="73" y="626"/>
      <point x="56" y="564" type="curve"/>
      <point x="64" y="549"/>
      <point x="75" y="539"/>
      <point x="65" y="539" type="curve"/>
      <point x="106" y="615"/>
      <point x="154" y="658"/>
      <point x="227" y="656" type="curve" smooth="yes"/>
      <point x="316" y="654"/>
      <point x="334" y="486"/>
    </contour>
  </outline>
</glyph>
<glyph name="Delta" format="2">
  <advance width="621"/>
  <unicode hex="2206"/>
  <anchor x="525" y="10" name="ogonek"/>
  <anchor x="314" y="661" name="top"/>
  <outline>
    <contour>
      <point x="428" y="59" type="curve"/>
      <point x="388" y="161"/>
      <point x="324" y="316"/>
      <point x="255" y="481" type="curve"/>
      <point x="340" y="664" type="line"/>
      <point x="419" y="444"/>
      <point x="524" y="214"/>
      <point x="600" y="37" type="curve"/>
      <point x="586" y="1" type="line"/>
      <point x="520" y="4"/>
      <point x="346" y="3"/>
      <point x="287" y="3" type="curve" smooth="yes"/>
      <point x="143" y="3"/>
      <point x="133" y="5"/>
      <point x="35" y="0" type="curve"/>
      <point x="21" y="37" type="line"/>
      <point x="85" y="153"/>
      <point x="222" y="471"/>
      <point x="289" y="664" type="curve"/>
      <point x="340" y="664" type="line"/>
      <point x="326" y="628"/>
      <point x="314" y="610"/>
      <point x="298" y="538" type="curve"/>
      <point x="248" y="398"/>
      <point x="162" y="177"/>
      <point x="132" y="59" type="curve"/>
      <point x="182" y="61"/>
      <point x="232" y="62"/>
      <point x="282" y="62" type="curve" smooth="yes"/>
      <point x="331" y="62"/>
      <point x="379" y="61"/>
    </contour>
  </outline>
</glyph>
<glyph name="product" format="2">
  <advance width="393"/>
  <unicode hex="220F"/>
  <anchor x="210" y="2" name="ogonek"/>
  <anchor x="199" y="660" name="top"/>
  <outline>
    <contour>
      <point x="407" y="621" type="curve" smooth="yes"/>
      <point x="444" y="618"/>
      <point x="479" y="605"/>
      <point x="515" y="597" type="curve"/>
      <point x="518" y="501"/>
      <point x="520" y="425"/>
      <point x="520" y="354" type="curve" smooth="yes"/>
      <point x="520" y="258"/>
      <point x="517" y="172"/>
      <point x="515" y="59" type="curve"/>
      <point x="427" y="38" type="line"/>
      <point x="440" y="0" type="line"/>
      <point x="481" y="1"/>
      <point x="530" y="3"/>
      <point x="592" y="3" type="curve" smooth="yes"/>
      <point x="655" y="3"/>
      <point x="706" y="2"/>
      <point x="742" y="0" type="curve"/>
      <point x="753" y="38" type="line"/>
      <point x="665" y="59" type="line"/>
      <point x="664" y="124"/>
      <point x="663" y="180"/>
      <point x="663" y="234" type="curve" smooth="yes"/>
      <point x="663" y="343"/>
      <point x="665" y="445"/>
      <point x="665" y="597" type="curve"/>
      <point x="753" y="621" type="line"/>
      <point x="742" y="660" type="line"/>
      <point x="706" y="658"/>
      <point x="649" y="655"/>
      <point x="596" y="655" type="curve" smooth="yes"/>
      <point x="534" y="655"/>
      <point x="241" y="655"/>
      <point x="188" y="655" type="curve" smooth="yes"/>
      <point x="126" y="655"/>
      <point x="74" y="657"/>
      <point x="32" y="660" type="curve"/>
      <point x="20" y="621" type="line"/>
      <point x="108" y="597" type="line"/>
      <point x="111" y="504"/>
      <point x="112" y="428"/>
      <point x="112" y="359" type="curve" smooth="yes"/>
      <point x="112" y="259"/>
      <point x="110" y="172"/>
      <point x="108" y="59" type="curve"/>
      <point x="20" y="38" type="line"/>
      <point x="33" y="0" type="line"/>
      <point x="74" y="1"/>
      <point x="122" y="3"/>
      <point x="183" y="3" type="curve" smooth="yes"/>
      <point x="248" y="3"/>
      <point x="299" y="2"/>
      <point x="335" y="0" type="curve"/>
      <point x="346" y="38" type="line"/>
      <point x="258" y="59" type="line"/>
      <point x="256" y="132"/>
      <point x="256" y="194"/>
      <point x="256" y="325" type="curve" smooth="yes"/>
      <point x="256" y="356"/>
      <point x="257" y="455"/>
      <point x="258" y="597" type="curve"/>
      <point x="294" y="605"/>
      <point x="329" y="618"/>
      <point x="366" y="621" type="curve" smooth="yes"/>
      <point x="380" y="622"/>
      <point x="393" y="622"/>
    </contour>
  </outline>
</glyph>
<glyph name="summation" format="2">
  <advance width="570"/>
  <unicode hex="2211"/>
  <anchor x="284" y="0" name="bottom"/>
  <anchor x="284" y="660" name="top"/>
  <outline>
    <contour>
      <point x="41" y="660" type="line"/>
      <point x="107" y="657"/>
      <point x="153" y="655"/>
      <point x="192" y="655" type="curve" smooth="yes"/>
      <point x="290" y="655"/>
      <point x="476" y="657"/>
      <point x="526" y="660" type="curve"/>
      <point x="517" y="579"/>
      <point x="515" y="503"/>
      <point x="515" y="441" type="curve"/>
      <point x="450" y="441" type="line"/>
      <point x="424" y="572" type="line"/>
      <point x="390" y="589"/>
      <point x="264" y="598"/>
      <point x="202" y="591" type="curve"/>
      <point x="254" y="503"/>
      <point x="293" y="447"/>
      <point x="355" y="368" type="curve"/>
      <point x="291" y="292"/>
      <point x="203" y="163"/>
      <point x="145" y="73" type="curve"/>
      <point x="249" y="63"/>
      <point x="399" y="72"/>
      <point x="433" y="89" type="curve"/>
      <point x="459" y="220" type="line"/>
      <point x="524" y="220" type="line"/>
      <point x="524" y="158"/>
      <point x="526" y="82"/>
      <point x="535" y="1" type="curve"/>
      <point x="477" y="4"/>
      <point x="331" y="4"/>
      <point x="188" y="3" type="curve" smooth="yes"/>
      <point x="141" y="3"/>
      <point x="107" y="2"/>
      <point x="34" y="0" type="curve"/>
      <point x="20" y="31" type="line"/>
      <point x="95" y="117"/>
      <point x="182" y="239"/>
      <point x="232" y="316" type="curve"/>
      <point x="175" y="410"/>
      <point x="111" y="508"/>
      <point x="27" y="624" type="curve"/>
    </contour>
  </outline>
</glyph>
<glyph name="minus" format="2">
  <advance width="571"/>
  <unicode hex="2212"/>
  <outline>
    <contour>
      <point x="536" y="372" type="line"/>
      <point x="35" y="372" type="line"/>
      <point x="35" y="289" type="line"/>
      <point x="536" y="289" type="line"/>
    </contour>
  </outline>
</glyph>
<glyph name="uni2219" format="2">
  <advance width="210"/>
  <unicode hex="2219"/>
  <outline>
    <contour>
      <point x="105" y="210" type="curve"/>
      <point x="145" y="210"/>
      <point x="180" y="246"/>
      <point x="180" y="290" type="curve"/>
      <point x="180" y="334"/>
      <point x="145" y="369"/>
      <point x="105" y="369" type="curve"/>
      <point x="62" y="369"/>
      <point x="30" y="334"/>
      <point x="30" y="290" type="curve"/>
      <point x="30" y="246"/>
      <point x="62" y="210"/>
    </contour>
  </outline>
</glyph>
<glyph name="radical" format="2">
  <advance width="653"/>
  <unicode hex="221A"/>
  <outline>
    <contour>
      <point x="340" y="-46" type="line"/>
      <point x="427" y="-46" type="line"/>
      <point x="671" y="683" type="line"/>
      <point x="788" y="715" type="line"/>
      <point x="771" y="763" type="line"/>
      <point x="771" y="763"/>
      <point x="627" y="762"/>
      <point x="610" y="763" type="curve"/>
      <point x="395" y="118" type="line"/>
      <point x="238" y="371" type="line"/>
      <point x="221" y="370"/>
      <point x="20" y="371"/>
      <point x="20" y="371" type="curve"/>
      <point x="20" y="323" type="line"/>
      <point x="137" y="291" type="line"/>
    </contour>
  </outline>
</glyph>
<glyph name="infinity" format="2">
  <advance width="680"/>
  <unicode hex="221E"/>
  <outline>
    <contour>
      <point x="524" y="270" type="curve" smooth="yes"/>
      <point x="422" y="270"/>
      <point x="328" y="494"/>
      <point x="163" y="494" type="curve" smooth="yes"/>
      <point x="74" y="494"/>
      <point x="24" y="424"/>
      <point x="24" y="318" type="curve" smooth="yes"/>
      <point x="24" y="216"/>
      <point x="83" y="154"/>
      <point x="149" y="154" type="curve" smooth="yes"/>
      <point x="242" y="154"/>
      <point x="304" y="246"/>
      <point x="346" y="291" type="curve"/>
      <point x="310" y="341" type="line"/>
      <point x="275" y="309"/>
      <point x="197" y="245"/>
      <point x="155" y="245" type="curve" smooth="yes"/>
      <point x="104" y="245"/>
      <point x="73" y="283"/>
      <point x="73" y="320" type="curve" smooth="yes"/>
      <point x="73" y="357"/>
      <point x="117" y="376"/>
      <point x="157" y="376" type="curve" smooth="yes"/>
      <point x="259" y="376"/>
      <point x="353" y="154"/>
      <point x="517" y="154" type="curve" smooth="yes"/>
      <point x="612" y="154"/>
      <point x="656" y="224"/>
      <point x="656" y="330" type="curve" smooth="yes"/>
      <point x="656" y="432"/>
      <point x="598" y="494"/>
      <point x="532" y="494" type="curve" smooth="yes"/>
      <point x="438" y="494"/>
      <point x="376" y="400"/>
      <point x="334" y="355" type="curve"/>
      <point x="370" y="307" type="line"/>
      <point x="405" y="339"/>
      <point x="484" y="402"/>
      <point x="526" y="402" type="curve" smooth="yes"/>
      <point x="576" y="402"/>
      <point x="607" y="365"/>
      <point x="607" y="328" type="curve" smooth="yes"/>
      <point x="607" y="291"/>
      <point x="564" y="270"/>
    </contour>
  </outline>
</glyph>
<glyph name="integral" format="2">
  <advance width="400"/>
  <unicode hex="222B"/>
  <outline>
    <contour>
      <point x="248" y="-63" type="curve" smooth="yes"/>
      <point x="251" y="-31"/>
      <point x="265" y="534"/>
      <point x="268" y="566" type="curve" smooth="yes"/>
      <point x="276" y="652"/>
      <point x="296" y="708"/>
      <point x="334" y="739" type="curve"/>
      <point x="380" y="726"/>
      <point x="409" y="673"/>
      <point x="413" y="616" type="curve"/>
      <point x="457" y="616" type="line"/>
      <point x="491" y="644"/>
      <point x="510" y="687"/>
      <point x="510" y="738" type="curve"/>
      <point x="474" y="775"/>
      <point x="427" y="794"/>
      <point x="377" y="794" type="curve" smooth="yes"/>
      <point x="278" y="794"/>
      <point x="167" y="717"/>
      <point x="141" y="552" type="curve" smooth="yes"/>
      <point x="136" y="520"/>
      <point x="128" y="-15"/>
      <point x="126" y="-47" type="curve" smooth="yes"/>
      <point x="120" y="-132"/>
      <point x="94" y="-189"/>
      <point x="56" y="-220" type="curve"/>
      <point x="10" y="-207"/>
      <point x="-19" y="-154"/>
      <point x="-23" y="-97" type="curve"/>
      <point x="-67" y="-97" type="line"/>
      <point x="-101" y="-125"/>
      <point x="-120" y="-168"/>
      <point x="-120" y="-219" type="curve"/>
      <point x="-84" y="-256"/>
      <point x="-37" y="-273"/>
      <point x="13" y="-273" type="curve" smooth="yes"/>
      <point x="112" y="-273"/>
      <point x="233" y="-201"/>
    </contour>
  </outline>
</glyph>
<glyph name="approxequal" format="2">
  <advance width="599"/>
  <unicode hex="2248"/>
  <outline>
    <contour>
      <point x="401" y="346" type="curve" smooth="yes"/>
      <point x="463" y="346"/>
      <point x="526" y="414"/>
      <point x="575" y="495" type="curve"/>
      <point x="547" y="515" type="line"/>
      <point x="518" y="488"/>
      <point x="462" y="455"/>
      <point x="423" y="445" type="curve"/>
      <point x="336" y="445"/>
      <point x="312" y="530"/>
      <point x="205" y="530" type="curve" smooth="yes"/>
      <point x="129" y="530"/>
      <point x="66" y="441"/>
      <point x="24" y="381" type="curve"/>
      <point x="56" y="361" type="line"/>
      <point x="82" y="384"/>
      <point x="132" y="430"/>
      <point x="162" y="441" type="curve"/>
      <point x="260" y="441"/>
      <point x="295" y="346"/>
    </contour>
    <contour>
      <point x="401" y="146" type="curve"/>
      <point x="463" y="146"/>
      <point x="526" y="214"/>
      <point x="575" y="295" type="curve"/>
      <point x="547" y="315" type="line"/>
      <point x="518" y="288"/>
      <point x="462" y="255"/>
      <point x="423" y="245" type="curve"/>
      <point x="336" y="245"/>
      <point x="312" y="330"/>
      <point x="205" y="330" type="curve" smooth="yes"/>
      <point x="129" y="330"/>
      <point x="66" y="241"/>
      <point x="24" y="181" type="curve"/>
      <point x="56" y="161" type="line"/>
      <point x="82" y="184"/>
      <point x="132" y="230"/>
      <point x="162" y="241" type="curve" smooth="yes"/>
      <point x="254" y="275"/>
      <point x="295" y="146"/>
    </contour>
  </outline>
</glyph>
<glyph name="notequal" format="2">
  <advance width="571"/>
  <unicode hex="2260"/>
  <outline>
    <contour>
      <point x="425" y="630" type="line"/>
      <point x="339" y="630" type="line"/>
      <point x="146" y="59" type="line"/>
      <point x="231" y="59" type="line"/>
    </contour>
    <component base="equal"/>
  </outline>
</glyph>
<glyph name="lessequal" format="2">
  <advance width="565"/>
  <unicode hex="2264"/>
  <outline>
    <contour>
      <point x="35" y="425" type="line"/>
      <point x="35" y="355" type="line"/>
      <point x="530" y="165" type="line"/>
      <point x="530" y="245" type="line"/>
      <point x="67" y="428" type="line"/>
      <point x="67" y="352" type="line"/>
      <point x="530" y="535" type="line"/>
      <point x="530" y="615" type="line"/>
    </contour>
    <contour>
      <point x="530" y="121" type="line"/>
      <point x="380" y="118"/>
      <point x="185" y="118"/>
      <point x="35" y="121" type="curve"/>
      <point x="35" y="38" type="line"/>
      <point x="185" y="41"/>
      <point x="380" y="41"/>
      <point x="530" y="38" type="curve"/>
    </contour>
  </outline>
</glyph>
<glyph name="greaterequal" format="2">
  <advance width="565"/>
  <unicode hex="2265"/>
  <outline>
    <contour>
      <point x="530" y="425" type="line"/>
      <point x="530" y="355" type="line"/>
      <point x="35" y="165" type="line"/>
      <point x="35" y="245" type="line"/>
      <point x="498" y="428" type="line"/>
      <point x="498" y="352" type="line"/>
      <point x="35" y="535" type="line"/>
      <point x="35" y="615" type="line"/>
    </contour>
    <contour>
      <point x="530" y="111" type="line"/>
      <point x="380" y="108"/>
      <point x="185" y="108"/>
      <point x="35" y="111" type="curve"/>
      <point x="35" y="28" type="line"/>
      <point x="185" y="31"/>
      <point x="380" y="31"/>
      <point x="530" y="28" type="curve"/>
    </contour>
  </outline>
</glyph>
<glyph name="blank" format="2">
  <advance width="546"/>
  <unicode hex="2423"/>
  <outline>
    <contour>
      <point x="0" y="-297" type="line"/>
      <point x="546" y="-297" type="line"/>
      <point x="546" y="-2" type="line"/>
      <point x="490" y="-2" type="line"/>
      <point x="490" y="-241" type="line"/>
      <point x="60" y="-241" type="line"/>
      <point x="60" y="-2" type="line"/>
      <point x="0" y="-2" type="line"/>
    </contour>
  </outline>
</glyph>
<glyph name="lozenge" format="2">
  <advance width="610"/>
  <unicode hex="25CA"/>
  <outline>
    <contour>
      <point x="600" y="370" type="line"/>
      <point x="305" y="760" type="line"/>
      <point x="10" y="370" type="line"/>
      <point x="305" y="-20" type="line"/>
    </contour>
    <contour>
      <point x="305" y="622" type="line"/>
      <point x="495" y="370" type="line"/>
      <point x="305" y="118" type="line"/>
      <point x="115" y="370" type="line"/>
    </contour>
  </outline>
</glyph>
<glyph name="dottedCircle" format="2">
  <advance width="521"/>
  <unicode hex="25CC"/>
  <anchor x="262" y="-9" name="bottom"/>
  <anchor x="261" y="442" name="top"/>
  <outline>
    <contour>
      <point x="261" y="52" type="curve" smooth="yes"/>
      <point x="252" y="52"/>
      <point x="244" y="50"/>
      <point x="235" y="47" type="curve"/>
      <point x="232" y="39"/>
      <point x="231" y="30"/>
      <point x="231" y="22" type="curve" smooth="yes"/>
      <point x="231" y="13"/>
      <point x="232" y="5"/>
      <point x="235" y="-4" type="curve"/>
      <point x="244" y="-7"/>
      <point x="252" y="-9"/>
      <point x="261" y="-9" type="curve" smooth="yes"/>
      <point x="268" y="-9"/>
      <point x="277" y="-7"/>
      <point x="286" y="-4" type="curve"/>
      <point x="289" y="5"/>
      <point x="290" y="13"/>
      <point x="290" y="22" type="curve" smooth="yes"/>
      <point x="290" y="30"/>
      <point x="289" y="39"/>
      <point x="286" y="47" type="curve"/>
      <point x="277" y="50"/>
      <point x="268" y="52"/>
    </contour>
    <contour>
      <point x="261" y="442" type="curve" smooth="yes"/>
      <point x="252" y="442"/>
      <point x="244" y="440"/>
      <point x="235" y="437" type="curve"/>
      <point x="232" y="429"/>
      <point x="231" y="420"/>
      <point x="231" y="412" type="curve" smooth="yes"/>
      <point x="231" y="403"/>
      <point x="232" y="395"/>
      <point x="235" y="386" type="curve"/>
      <point x="244" y="383"/>
      <point x="252" y="381"/>
      <point x="261" y="381" type="curve" smooth="yes"/>
      <point x="268" y="381"/>
      <point x="277" y="383"/>
      <point x="286" y="386" type="curve"/>
      <point x="289" y="395"/>
      <point x="290" y="403"/>
      <point x="290" y="412" type="curve" smooth="yes"/>
      <point x="290" y="420"/>
      <point x="289" y="429"/>
      <point x="286" y="437" type="curve"/>
      <point x="277" y="440"/>
      <point x="268" y="442"/>
    </contour>
    <contour>
      <point x="261" y="52" type="curve" smooth="yes"/>
      <point x="252" y="52"/>
      <point x="244" y="50"/>
      <point x="235" y="47" type="curve"/>
      <point x="232" y="39"/>
      <point x="231" y="30"/>
      <point x="231" y="22" type="curve" smooth="yes"/>
      <point x="231" y="13"/>
      <point x="232" y="5"/>
      <point x="235" y="-4" type="curve"/>
      <point x="244" y="-7"/>
      <point x="252" y="-9"/>
      <point x="261" y="-9" type="curve" smooth="yes"/>
      <point x="268" y="-9"/>
      <point x="277" y="-7"/>
      <point x="286" y="-4" type="curve"/>
      <point x="289" y="5"/>
      <point x="290" y="13"/>
      <point x="290" y="22" type="curve" smooth="yes"/>
      <point x="290" y="30"/>
      <point x="289" y="39"/>
      <point x="286" y="47" type="curve"/>
      <point x="277" y="50"/>
      <point x="268" y="52"/>
    </contour>
    <contour>
      <point x="261" y="442" type="curve" smooth="yes"/>
      <point x="252" y="442"/>
      <point x="244" y="440"/>
      <point x="235" y="437" type="curve"/>
      <point x="232" y="429"/>
      <point x="231" y="420"/>
      <point x="231" y="412" type="curve" smooth="yes"/>
      <point x="231" y="403"/>
      <point x="232" y="395"/>
      <point x="235" y="386" type="curve"/>
      <point x="244" y="383"/>
      <point x="252" y="381"/>
      <point x="261" y="381" type="curve" smooth="yes"/>
      <point x="268" y="381"/>
      <point x="277" y="383"/>
      <point x="286" y="386" type="curve"/>
      <point x="289" y="395"/>
      <point x="290" y="403"/>
      <point x="290" y="412" type="curve" smooth="yes"/>
      <point x="290" y="420"/>
      <point x="289" y="429"/>
      <point x="286" y="437" type="curve"/>
      <point x="277" y="440"/>
      <point x="268" y="442"/>
    </contour>
    <contour>
      <point x="179" y="74" type="curve" smooth="yes"/>
      <point x="171" y="78"/>
      <point x="163" y="81"/>
      <point x="154" y="82" type="curve"/>
      <point x="147" y="77"/>
      <point x="142" y="70"/>
      <point x="138" y="63" type="curve" smooth="yes"/>
      <point x="133" y="55"/>
      <point x="130" y="48"/>
      <point x="128" y="38" type="curve"/>
      <point x="134" y="31"/>
      <point x="140" y="25"/>
      <point x="148" y="21" type="curve" smooth="yes"/>
      <point x="154" y="17"/>
      <point x="163" y="15"/>
      <point x="172" y="13" type="curve"/>
      <point x="179" y="19"/>
      <point x="184" y="26"/>
      <point x="189" y="33" type="curve" smooth="yes"/>
      <point x="193" y="40"/>
      <point x="196" y="49"/>
      <point x="198" y="57" type="curve"/>
      <point x="192" y="64"/>
      <point x="185" y="70"/>
    </contour>
    <contour>
      <point x="374" y="412" type="curve" smooth="yes"/>
      <point x="366" y="416"/>
      <point x="358" y="418"/>
      <point x="349" y="420" type="curve"/>
      <point x="342" y="415"/>
      <point x="337" y="407"/>
      <point x="333" y="401" type="curve" smooth="yes"/>
      <point x="328" y="393"/>
      <point x="325" y="385"/>
      <point x="323" y="376" type="curve"/>
      <point x="329" y="369"/>
      <point x="335" y="363"/>
      <point x="343" y="359" type="curve" smooth="yes"/>
      <point x="349" y="355"/>
      <point x="358" y="352"/>
      <point x="367" y="351" type="curve"/>
      <point x="374" y="357"/>
      <point x="379" y="363"/>
      <point x="384" y="371" type="curve" smooth="yes"/>
      <point x="388" y="378"/>
      <point x="391" y="386"/>
      <point x="393" y="395" type="curve"/>
      <point x="387" y="402"/>
      <point x="380" y="408"/>
    </contour>
    <contour>
      <point x="179" y="74" type="curve" smooth="yes"/>
      <point x="171" y="78"/>
      <point x="163" y="81"/>
      <point x="154" y="82" type="curve"/>
      <point x="147" y="77"/>
      <point x="142" y="70"/>
      <point x="138" y="63" type="curve" smooth="yes"/>
      <point x="133" y="55"/>
      <point x="130" y="48"/>
      <point x="128" y="38" type="curve"/>
      <point x="134" y="31"/>
      <point x="140" y="25"/>
      <point x="148" y="21" type="curve" smooth="yes"/>
      <point x="154" y="17"/>
      <point x="163" y="15"/>
      <point x="172" y="13" type="curve"/>
      <point x="179" y="19"/>
      <point x="184" y="26"/>
      <point x="189" y="33" type="curve" smooth="yes"/>
      <point x="193" y="40"/>
      <point x="196" y="49"/>
      <point x="198" y="57" type="curve"/>
      <point x="192" y="64"/>
      <point x="185" y="70"/>
    </contour>
    <contour>
      <point x="374" y="412" type="curve" smooth="yes"/>
      <point x="366" y="416"/>
      <point x="358" y="418"/>
      <point x="349" y="420" type="curve"/>
      <point x="342" y="415"/>
      <point x="337" y="407"/>
      <point x="333" y="401" type="curve" smooth="yes"/>
      <point x="328" y="393"/>
      <point x="325" y="385"/>
      <point x="323" y="376" type="curve"/>
      <point x="329" y="369"/>
      <point x="335" y="363"/>
      <point x="343" y="359" type="curve" smooth="yes"/>
      <point x="349" y="355"/>
      <point x="358" y="352"/>
      <point x="367" y="351" type="curve"/>
      <point x="374" y="357"/>
      <point x="379" y="363"/>
      <point x="384" y="371" type="curve" smooth="yes"/>
      <point x="388" y="378"/>
      <point x="391" y="386"/>
      <point x="393" y="395" type="curve"/>
      <point x="387" y="402"/>
      <point x="380" y="408"/>
    </contour>
    <contour>
      <point x="118" y="134" type="curve" smooth="yes"/>
      <point x="114" y="142"/>
      <point x="108" y="148"/>
      <point x="101" y="154" type="curve"/>
      <point x="93" y="152"/>
      <point x="84" y="149"/>
      <point x="77" y="145" type="curve" smooth="yes"/>
      <point x="70" y="140"/>
      <point x="63" y="135"/>
      <point x="57" y="128" type="curve"/>
      <point x="59" y="119"/>
      <point x="61" y="111"/>
      <point x="65" y="103" type="curve" smooth="yes"/>
      <point x="69" y="97"/>
      <point x="75" y="90"/>
      <point x="82" y="84" type="curve"/>
      <point x="92" y="86"/>
      <point x="99" y="89"/>
      <point x="107" y="94" type="curve" smooth="yes"/>
      <point x="114" y="98"/>
      <point x="121" y="103"/>
      <point x="126" y="110" type="curve"/>
      <point x="125" y="119"/>
      <point x="122" y="128"/>
    </contour>
    <contour>
      <point x="456" y="329" type="curve" smooth="yes"/>
      <point x="452" y="337"/>
      <point x="446" y="343"/>
      <point x="439" y="349" type="curve"/>
      <point x="430" y="347"/>
      <point x="422" y="344"/>
      <point x="415" y="340" type="curve" smooth="yes"/>
      <point x="407" y="335"/>
      <point x="401" y="330"/>
      <point x="395" y="323" type="curve"/>
      <point x="396" y="314"/>
      <point x="399" y="306"/>
      <point x="403" y="298" type="curve" smooth="yes"/>
      <point x="407" y="292"/>
      <point x="413" y="285"/>
      <point x="420" y="279" type="curve"/>
      <point x="429" y="281"/>
      <point x="437" y="284"/>
      <point x="445" y="289" type="curve" smooth="yes"/>
      <point x="451" y="293"/>
      <point x="459" y="298"/>
      <point x="464" y="305" type="curve"/>
      <point x="462" y="314"/>
      <point x="460" y="323"/>
    </contour>
    <contour>
      <point x="118" y="134" type="curve" smooth="yes"/>
      <point x="114" y="142"/>
      <point x="108" y="148"/>
      <point x="101" y="154" type="curve"/>
      <point x="93" y="152"/>
      <point x="84" y="149"/>
      <point x="77" y="145" type="curve" smooth="yes"/>
      <point x="70" y="140"/>
      <point x="63" y="135"/>
      <point x="57" y="128" type="curve"/>
      <point x="59" y="119"/>
      <point x="61" y="111"/>
      <point x="65" y="103" type="curve" smooth="yes"/>
      <point x="69" y="97"/>
      <point x="75" y="90"/>
      <point x="82" y="84" type="curve"/>
      <point x="92" y="86"/>
      <point x="99" y="89"/>
      <point x="107" y="94" type="curve" smooth="yes"/>
      <point x="114" y="98"/>
      <point x="121" y="103"/>
      <point x="126" y="110" type="curve"/>
      <point x="125" y="119"/>
      <point x="122" y="128"/>
    </contour>
    <contour>
      <point x="456" y="329" type="curve" smooth="yes"/>
      <point x="452" y="337"/>
      <point x="446" y="343"/>
      <point x="439" y="349" type="curve"/>
      <point x="430" y="347"/>
      <point x="422" y="344"/>
      <point x="415" y="340" type="curve" smooth="yes"/>
      <point x="407" y="335"/>
      <point x="401" y="330"/>
      <point x="395" y="323" type="curve"/>
      <point x="396" y="314"/>
      <point x="399" y="306"/>
      <point x="403" y="298" type="curve" smooth="yes"/>
      <point x="407" y="292"/>
      <point x="413" y="285"/>
      <point x="420" y="279" type="curve"/>
      <point x="429" y="281"/>
      <point x="437" y="284"/>
      <point x="445" y="289" type="curve" smooth="yes"/>
      <point x="451" y="293"/>
      <point x="459" y="298"/>
      <point x="464" y="305" type="curve"/>
      <point x="462" y="314"/>
      <point x="460" y="323"/>
    </contour>
    <contour>
      <point x="96" y="216" type="curve" smooth="yes"/>
      <point x="96" y="225"/>
      <point x="94" y="233"/>
      <point x="91" y="242" type="curve"/>
      <point x="83" y="245"/>
      <point x="74" y="246"/>
      <point x="66" y="246" type="curve" smooth="yes"/>
      <point x="57" y="246"/>
      <point x="49" y="245"/>
      <point x="40" y="242" type="curve"/>
      <point x="37" y="233"/>
      <point x="35" y="225"/>
      <point x="35" y="216" type="curve" smooth="yes"/>
      <point x="35" y="209"/>
      <point x="37" y="200"/>
      <point x="40" y="191" type="curve"/>
      <point x="49" y="188"/>
      <point x="57" y="187"/>
      <point x="66" y="187" type="curve" smooth="yes"/>
      <point x="74" y="187"/>
      <point x="83" y="188"/>
      <point x="91" y="191" type="curve"/>
      <point x="94" y="200"/>
      <point x="96" y="209"/>
    </contour>
    <contour>
      <point x="486" y="216" type="curve" smooth="yes"/>
      <point x="486" y="225"/>
      <point x="484" y="233"/>
      <point x="481" y="242" type="curve"/>
      <point x="473" y="245"/>
      <point x="464" y="246"/>
      <point x="456" y="246" type="curve" smooth="yes"/>
      <point x="447" y="246"/>
      <point x="439" y="245"/>
      <point x="430" y="242" type="curve"/>
      <point x="427" y="233"/>
      <point x="425" y="225"/>
      <point x="425" y="216" type="curve" smooth="yes"/>
      <point x="425" y="209"/>
      <point x="427" y="200"/>
      <point x="430" y="191" type="curve"/>
      <point x="439" y="188"/>
      <point x="447" y="187"/>
      <point x="456" y="187" type="curve" smooth="yes"/>
      <point x="464" y="187"/>
      <point x="473" y="188"/>
      <point x="481" y="191" type="curve"/>
      <point x="484" y="200"/>
      <point x="486" y="209"/>
    </contour>
    <contour>
      <point x="96" y="216" type="curve" smooth="yes"/>
      <point x="96" y="225"/>
      <point x="94" y="233"/>
      <point x="91" y="242" type="curve"/>
      <point x="83" y="245"/>
      <point x="74" y="246"/>
      <point x="66" y="246" type="curve" smooth="yes"/>
      <point x="57" y="246"/>
      <point x="49" y="245"/>
      <point x="40" y="242" type="curve"/>
      <point x="37" y="233"/>
      <point x="35" y="225"/>
      <point x="35" y="216" type="curve" smooth="yes"/>
      <point x="35" y="209"/>
      <point x="37" y="200"/>
      <point x="40" y="191" type="curve"/>
      <point x="49" y="188"/>
      <point x="57" y="187"/>
      <point x="66" y="187" type="curve" smooth="yes"/>
      <point x="74" y="187"/>
      <point x="83" y="188"/>
      <point x="91" y="191" type="curve"/>
      <point x="94" y="200"/>
      <point x="96" y="209"/>
    </contour>
    <contour>
      <point x="486" y="216" type="curve" smooth="yes"/>
      <point x="486" y="225"/>
      <point x="484" y="233"/>
      <point x="481" y="242" type="curve"/>
      <point x="473" y="245"/>
      <point x="464" y="246"/>
      <point x="456" y="246" type="curve" smooth="yes"/>
      <point x="447" y="246"/>
      <point x="439" y="245"/>
      <point x="430" y="242" type="curve"/>
      <point x="427" y="233"/>
      <point x="425" y="225"/>
      <point x="425" y="216" type="curve" smooth="yes"/>
      <point x="425" y="209"/>
      <point x="427" y="200"/>
      <point x="430" y="191" type="curve"/>
      <point x="439" y="188"/>
      <point x="447" y="187"/>
      <point x="456" y="187" type="curve" smooth="yes"/>
      <point x="464" y="187"/>
      <point x="473" y="188"/>
      <point x="481" y="191" type="curve"/>
      <point x="484" y="200"/>
      <point x="486" y="209"/>
    </contour>
    <contour>
      <point x="118" y="298" type="curve" smooth="yes"/>
      <point x="122" y="306"/>
      <point x="125" y="314"/>
      <point x="126" y="323" type="curve"/>
      <point x="121" y="330"/>
      <point x="114" y="335"/>
      <point x="107" y="339" type="curve" smooth="yes"/>
      <point x="99" y="344"/>
      <point x="92" y="347"/>
      <point x="82" y="349" type="curve"/>
      <point x="75" y="343"/>
      <point x="69" y="337"/>
      <point x="65" y="329" type="curve" smooth="yes"/>
      <point x="61" y="323"/>
      <point x="59" y="314"/>
      <point x="57" y="305" type="curve"/>
      <point x="63" y="298"/>
      <point x="70" y="293"/>
      <point x="77" y="288" type="curve" smooth="yes"/>
      <point x="84" y="284"/>
      <point x="93" y="281"/>
      <point x="101" y="279" type="curve"/>
      <point x="108" y="285"/>
      <point x="114" y="292"/>
    </contour>
    <contour>
      <point x="456" y="103" type="curve" smooth="yes"/>
      <point x="460" y="111"/>
      <point x="462" y="119"/>
      <point x="464" y="128" type="curve"/>
      <point x="459" y="135"/>
      <point x="451" y="140"/>
      <point x="445" y="144" type="curve" smooth="yes"/>
      <point x="437" y="149"/>
      <point x="429" y="152"/>
      <point x="420" y="154" type="curve"/>
      <point x="413" y="148"/>
      <point x="407" y="142"/>
      <point x="403" y="134" type="curve" smooth="yes"/>
      <point x="399" y="128"/>
      <point x="396" y="119"/>
      <point x="395" y="110" type="curve"/>
      <point x="401" y="103"/>
      <point x="407" y="98"/>
      <point x="415" y="93" type="curve" smooth="yes"/>
      <point x="422" y="89"/>
      <point x="430" y="86"/>
      <point x="439" y="84" type="curve"/>
      <point x="446" y="90"/>
      <point x="452" y="97"/>
    </contour>
    <contour>
      <point x="118" y="298" type="curve" smooth="yes"/>
      <point x="122" y="306"/>
      <point x="125" y="314"/>
      <point x="126" y="323" type="curve"/>
      <point x="121" y="330"/>
      <point x="114" y="335"/>
      <point x="107" y="339" type="curve" smooth="yes"/>
      <point x="99" y="344"/>
      <point x="92" y="347"/>
      <point x="82" y="349" type="curve"/>
      <point x="75" y="343"/>
      <point x="69" y="337"/>
      <point x="65" y="329" type="curve" smooth="yes"/>
      <point x="61" y="323"/>
      <point x="59" y="314"/>
      <point x="57" y="305" type="curve"/>
      <point x="63" y="298"/>
      <point x="70" y="293"/>
      <point x="77" y="288" type="curve" smooth="yes"/>
      <point x="84" y="284"/>
      <point x="93" y="281"/>
      <point x="101" y="279" type="curve"/>
      <point x="108" y="285"/>
      <point x="114" y="292"/>
    </contour>
    <contour>
      <point x="456" y="103" type="curve" smooth="yes"/>
      <point x="460" y="111"/>
      <point x="462" y="119"/>
      <point x="464" y="128" type="curve"/>
      <point x="459" y="135"/>
      <point x="451" y="140"/>
      <point x="445" y="144" type="curve" smooth="yes"/>
      <point x="437" y="149"/>
      <point x="429" y="152"/>
      <point x="420" y="154" type="curve"/>
      <point x="413" y="148"/>
      <point x="407" y="142"/>
      <point x="403" y="134" type="curve" smooth="yes"/>
      <point x="399" y="128"/>
      <point x="396" y="119"/>
      <point x="395" y="110" type="curve"/>
      <point x="401" y="103"/>
      <point x="407" y="98"/>
      <point x="415" y="93" type="curve" smooth="yes"/>
      <point x="422" y="89"/>
      <point x="430" y="86"/>
      <point x="439" y="84" type="curve"/>
      <point x="446" y="90"/>
      <point x="452" y="97"/>
    </contour>
    <contour>
      <point x="343" y="74" type="curve" smooth="yes"/>
      <point x="335" y="70"/>
      <point x="329" y="64"/>
      <point x="323" y="57" type="curve"/>
      <point x="325" y="49"/>
      <point x="328" y="40"/>
      <point x="332" y="33" type="curve" smooth="yes"/>
      <point x="337" y="26"/>
      <point x="342" y="19"/>
      <point x="349" y="13" type="curve"/>
      <point x="358" y="15"/>
      <point x="366" y="17"/>
      <point x="374" y="21" type="curve" smooth="yes"/>
      <point x="380" y="25"/>
      <point x="387" y="31"/>
      <point x="393" y="38" type="curve"/>
      <point x="391" y="48"/>
      <point x="388" y="55"/>
      <point x="383" y="63" type="curve" smooth="yes"/>
      <point x="379" y="70"/>
      <point x="374" y="77"/>
      <point x="367" y="82" type="curve"/>
      <point x="358" y="81"/>
      <point x="349" y="78"/>
    </contour>
    <contour>
      <point x="148" y="412" type="curve" smooth="yes"/>
      <point x="140" y="408"/>
      <point x="134" y="402"/>
      <point x="128" y="395" type="curve"/>
      <point x="130" y="386"/>
      <point x="133" y="378"/>
      <point x="137" y="371" type="curve" smooth="yes"/>
      <point x="142" y="363"/>
      <point x="147" y="357"/>
      <point x="154" y="351" type="curve"/>
      <point x="163" y="352"/>
      <point x="171" y="355"/>
      <point x="179" y="359" type="curve" smooth="yes"/>
      <point x="185" y="363"/>
      <point x="192" y="369"/>
      <point x="198" y="376" type="curve"/>
      <point x="196" y="385"/>
      <point x="193" y="393"/>
      <point x="188" y="401" type="curve" smooth="yes"/>
      <point x="184" y="407"/>
      <point x="179" y="415"/>
      <point x="172" y="420" type="curve"/>
      <point x="163" y="418"/>
      <point x="154" y="416"/>
    </contour>
    <contour>
      <point x="343" y="74" type="curve" smooth="yes"/>
      <point x="335" y="70"/>
      <point x="329" y="64"/>
      <point x="323" y="57" type="curve"/>
      <point x="325" y="49"/>
      <point x="328" y="40"/>
      <point x="332" y="33" type="curve" smooth="yes"/>
      <point x="337" y="26"/>
      <point x="342" y="19"/>
      <point x="349" y="13" type="curve"/>
      <point x="358" y="15"/>
      <point x="366" y="17"/>
      <point x="374" y="21" type="curve" smooth="yes"/>
      <point x="380" y="25"/>
      <point x="387" y="31"/>
      <point x="393" y="38" type="curve"/>
      <point x="391" y="48"/>
      <point x="388" y="55"/>
      <point x="383" y="63" type="curve" smooth="yes"/>
      <point x="379" y="70"/>
      <point x="374" y="77"/>
      <point x="367" y="82" type="curve"/>
      <point x="358" y="81"/>
      <point x="349" y="78"/>
    </contour>
    <contour>
      <point x="148" y="412" type="curve" smooth="yes"/>
      <point x="140" y="408"/>
      <point x="134" y="402"/>
      <point x="128" y="395" type="curve"/>
      <point x="130" y="386"/>
      <point x="133" y="378"/>
      <point x="137" y="371" type="curve" smooth="yes"/>
      <point x="142" y="363"/>
      <point x="147" y="357"/>
      <point x="154" y="351" type="curve"/>
      <point x="163" y="352"/>
      <point x="171" y="355"/>
      <point x="179" y="359" type="curve" smooth="yes"/>
      <point x="185" y="363"/>
      <point x="192" y="369"/>
      <point x="198" y="376" type="curve"/>
      <point x="196" y="385"/>
      <point x="193" y="393"/>
      <point x="188" y="401" type="curve" smooth="yes"/>
      <point x="184" y="407"/>
      <point x="179" y="415"/>
      <point x="172" y="420" type="curve"/>
      <point x="163" y="418"/>
      <point x="154" y="416"/>
    </contour>
  </outline>
</glyph>
<glyph name="peh-ar.fina" format="2">
  <advance width="430"/>
  <unicode hex="FB57"/>
  <anchor x="205" y="-444" name="bottom"/>
  <anchor x="225" y="297" name="top"/>
  <outline>
    <contour>
      <point x="30" y="140" type="line"/>
      <point x="30" y="78"/>
      <point x="38" y="0"/>
      <point x="70" y="0" type="curve"/>
      <point x="464" y="0" type="line"/>
      <point x="464" y="140" type="line"/>
      <point x="374" y="140" type="line" smooth="yes"/>
      <point x="362" y="140"/>
      <point x="358" y="141"/>
      <point x="357" y="148" type="curve" smooth="yes"/>
      <point x="354" y="188"/>
      <point x="355" y="216"/>
      <point x="347" y="256" type="curve"/>
      <point x="328" y="256"/>
      <point x="306" y="252"/>
      <point x="291" y="246" type="curve" smooth="yes"/>
      <point x="282" y="242"/>
      <point x="279" y="240"/>
      <point x="279" y="234" type="curve" smooth="yes"/>
      <point x="279" y="226"/>
      <point x="292" y="187"/>
      <point x="292" y="159" type="curve" smooth="yes"/>
      <point x="292" y="146"/>
      <point x="289" y="140"/>
      <point x="280" y="140" type="curve" smooth="yes"/>
    </contour>
    <component base="threedotsdownbelow-ar" xOffset="31"/>
  </outline>
</glyph>
<glyph name="bismillah-ar" format="2">
  <advance width="5901" height="1892"/>
  <unicode hex="FDFD"/>
  <outline>
    <component base="seen-ar.medi" xOffset="5178"/>
    <component base="meem-ar.fina" xOffset="4700"/>
    <component base="dotbelow-ar" xOffset="5614"/>
    <component base="reh-ar.fina" xOffset="2897"/>
    <component base="hah-ar.init" xOffset="2597"/>
    <component base="meem-ar.medi" xOffset="2187"/>
    <component base="yeh-ar.medi" xOffset="507"/>
    <component base="lam-ar.init" xOffset="1547"/>
    <component base="hah-ar.init" xOffset="857"/>
    <component base="meem-ar.fina" xOffset="-3"/>
    <component base="shadda-ar" xOffset="1270" yOffset="-244"/>
    <component base="shadda-ar" xOffset="4101"/>
    <component base="shadda-ar" xOffset="3005" yOffset="-244"/>
    <component base="fatha-ar" xOffset="1269" yOffset="-52"/>
    <component base="fatha-ar" xOffset="2294" yOffset="-52"/>
    <component base="fatha-ar" xOffset="4099" yOffset="188"/>
    <component base="fatha-ar" xOffset="4892" yOffset="-662"/>
    <component base="fatha-ar" xOffset="914" yOffset="-662"/>
    <component base="fatha-ar" xOffset="5609" yOffset="-842"/>
    <component base="fatha-ar" xOffset="3759" yOffset="-662"/>
    <component base="fatha-ar" xOffset="4433" yOffset="-636"/>
    <component base="fatha-ar" xOffset="3393" yOffset="-636"/>
    <component base="fatha-ar" xOffset="3009" yOffset="-52"/>
    <component base="fatha-ar" xOffset="199" yOffset="-662"/>
    <component base="sukun-ar" xOffset="5277" yOffset="-150"/>
    <component base="sukun-ar" xOffset="2681" yOffset="-150"/>
    <component base="alef-ar.high" xOffset="2141" yOffset="129"/>
    <component base="fatha-ar" xOffset="2159" yOffset="-662"/>
    <component base="noonghunna-ar.fina.longtail" xOffset="1826"/>
    <contour>
      <point x="5651" y="0" type="line"/>
      <point x="5800" y="0" type="line" smooth="yes"/>
      <point x="5820" y="0"/>
      <point x="5840" y="42"/>
      <point x="5840" y="249" type="curve" smooth="yes"/>
      <point x="5840" y="529"/>
      <point x="5836" y="733"/>
      <point x="5832" y="773" type="curve"/>
      <point x="5827" y="778"/>
      <point x="5821" y="781"/>
      <point x="5815" y="781" type="curve" smooth="yes"/>
      <point x="5810" y="781"/>
      <point x="5804" y="779"/>
      <point x="5798" y="774" type="curve" smooth="yes"/>
      <point x="5777" y="758"/>
      <point x="5750" y="741"/>
      <point x="5731" y="723" type="curve"/>
      <point x="5732" y="673"/>
      <point x="5734" y="614"/>
      <point x="5736" y="574" type="curve" smooth="yes"/>
      <point x="5738" y="524"/>
      <point x="5779" y="575"/>
      <point x="5779" y="323" type="curve" smooth="yes"/>
      <point x="5779" y="297"/>
      <point x="5781" y="178"/>
      <point x="5781" y="166" type="curve" smooth="yes"/>
      <point x="5781" y="140"/>
      <point x="5778" y="140"/>
      <point x="5772" y="140" type="curve" smooth="yes"/>
      <point x="5651" y="140" type="line"/>
    </contour>
    <contour>
      <point x="4049" y="157" type="curve" smooth="yes"/>
      <point x="4049" y="142"/>
      <point x="4049" y="140"/>
      <point x="3972" y="138" type="curve" smooth="yes"/>
      <point x="3945" y="137"/>
      <point x="3892" y="138"/>
      <point x="3892" y="145" type="curve" smooth="yes"/>
      <point x="3892" y="155"/>
      <point x="4010" y="243"/>
      <point x="4019" y="243" type="curve" smooth="yes"/>
      <point x="4043" y="243"/>
      <point x="4049" y="199"/>
    </contour>
    <contour>
      <point x="3732" y="170" type="curve" smooth="yes"/>
      <point x="3732" y="118"/>
      <point x="3747" y="39"/>
      <point x="3766" y="0" type="curve"/>
      <point x="4419" y="0" type="line" smooth="yes"/>
      <point x="4451" y="0"/>
      <point x="4455" y="22"/>
      <point x="4458" y="178" type="curve" smooth="yes"/>
      <point x="4459" y="228"/>
      <point x="4453" y="488"/>
      <point x="4449" y="528" type="curve"/>
      <point x="4439" y="534"/>
      <point x="4429" y="538"/>
      <point x="4415" y="533" type="curve" smooth="yes"/>
      <point x="4394" y="525"/>
      <point x="4367" y="501"/>
      <point x="4348" y="486" type="curve"/>
      <point x="4349" y="436"/>
      <point x="4351" y="390"/>
      <point x="4353" y="340" type="curve" smooth="yes"/>
      <point x="4355" y="300"/>
      <point x="4396" y="325"/>
      <point x="4400" y="253" type="curve" smooth="yes"/>
      <point x="4405" y="143"/>
      <point x="4400" y="140"/>
      <point x="4391" y="140" type="curve" smooth="yes"/>
      <point x="4319" y="140" type="line" smooth="yes"/>
      <point x="4300" y="140"/>
      <point x="4296" y="168"/>
      <point x="4296" y="192" type="curve" smooth="yes"/>
      <point x="4296" y="271"/>
      <point x="4292" y="475"/>
      <point x="4288" y="515" type="curve"/>
      <point x="4278" y="524"/>
      <point x="4267" y="526"/>
      <point x="4254" y="516" type="curve" smooth="yes"/>
      <point x="4233" y="500"/>
      <point x="4206" y="483"/>
      <point x="4187" y="465" type="curve"/>
      <point x="4188" y="415"/>
      <point x="4190" y="362"/>
      <point x="4192" y="322" type="curve" smooth="yes"/>
      <point x="4194" y="282"/>
      <point x="4231" y="317"/>
      <point x="4236" y="216" type="curve" smooth="yes"/>
      <point x="4238" y="170"/>
      <point x="4238" y="140"/>
      <point x="4223" y="140" type="curve" smooth="yes"/>
      <point x="4119" y="140" type="line" smooth="yes"/>
      <point x="4112" y="140"/>
      <point x="4110" y="144"/>
      <point x="4109" y="166" type="curve" smooth="yes"/>
      <point x="4107" y="202"/>
      <point x="4107" y="340"/>
      <point x="4102" y="387" type="curve" smooth="yes"/>
      <point x="4100" y="406"/>
      <point x="4069" y="429"/>
      <point x="4050" y="429" type="curve"/>
      <point x="4021" y="419"/>
      <point x="3732" y="194"/>
    </contour>
    <contour>
      <point x="4576" y="-14" type="curve" smooth="yes"/>
      <point x="4579" y="89"/>
      <point x="4589" y="329"/>
      <point x="4594" y="556" type="curve"/>
      <point x="4567" y="556"/>
      <point x="4539" y="550"/>
      <point x="4522" y="542" type="curve" smooth="yes"/>
      <point x="4515" y="538"/>
      <point x="4512" y="536"/>
      <point x="4512" y="529" type="curve" smooth="yes"/>
      <point x="4512" y="528"/>
      <point x="4512" y="527"/>
      <point x="4512" y="526" type="curve" smooth="yes"/>
      <point x="4523" y="315"/>
      <point x="4530" y="129"/>
      <point x="4535" y="-36" type="curve"/>
      <point x="4550" y="-36"/>
      <point x="4575" y="-32"/>
    </contour>
    <contour>
      <point x="3263" y="0" type="line"/>
      <point x="3392" y="0" type="line" smooth="yes"/>
      <point x="3412" y="0"/>
      <point x="3430" y="42"/>
      <point x="3432" y="199" type="curve" smooth="yes"/>
      <point x="3432" y="289"/>
      <point x="3428" y="493"/>
      <point x="3424" y="533" type="curve"/>
      <point x="3419" y="538"/>
      <point x="3413" y="541"/>
      <point x="3407" y="541" type="curve" smooth="yes"/>
      <point x="3402" y="541"/>
      <point x="3396" y="539"/>
      <point x="3390" y="534" type="curve" smooth="yes"/>
      <point x="3369" y="518"/>
      <point x="3342" y="501"/>
      <point x="3323" y="483" type="curve"/>
      <point x="3324" y="433"/>
      <point x="3326" y="380"/>
      <point x="3328" y="340" type="curve" smooth="yes"/>
      <point x="3330" y="290"/>
      <point x="3367" y="335"/>
      <point x="3371" y="223" type="curve" smooth="yes"/>
      <point x="3372" y="197"/>
      <point x="3373" y="178"/>
      <point x="3373" y="166" type="curve" smooth="yes"/>
      <point x="3373" y="140"/>
      <point x="3370" y="140"/>
      <point x="3364" y="140" type="curve" smooth="yes"/>
      <point x="3263" y="140" type="line"/>
    </contour>
    <contour>
      <point x="882" y="-398" type="curve"/>
      <point x="882" y="-410"/>
      <point x="895" y="-426"/>
      <point x="903" y="-426" type="curve"/>
      <point x="1184" y="-254"/>
      <point x="1325" y="-173"/>
      <point x="1518" y="0" type="curve"/>
      <point x="1550" y="0" type="line"/>
      <point x="1550" y="140" type="line"/>
      <point x="1489" y="140" type="line" smooth="yes"/>
      <point x="1474" y="140"/>
      <point x="1473" y="141"/>
      <point x="1472" y="148" type="curve" smooth="yes"/>
      <point x="1466" y="188"/>
      <point x="1463" y="216"/>
      <point x="1455" y="256" type="curve"/>
      <point x="1436" y="256"/>
      <point x="1411" y="252"/>
      <point x="1392" y="245" type="curve"/>
      <point x="1384" y="242"/>
      <point x="1380" y="238"/>
      <point x="1380" y="234" type="curve" smooth="yes"/>
      <point x="1380" y="233"/>
      <point x="1380" y="232"/>
      <point x="1380" y="231" type="curve" smooth="yes"/>
      <point x="1396" y="177"/>
      <point x="1402" y="133"/>
      <point x="1402" y="112" type="curve" smooth="yes"/>
      <point x="1402" y="90"/>
      <point x="1398" y="66"/>
      <point x="1387" y="53" type="curve" smooth="yes"/>
      <point x="1286" y="-69"/>
      <point x="1087" y="-249"/>
    </contour>
    <contour>
      <point x="3546" y="-14" type="curve" smooth="yes"/>
      <point x="3549" y="89"/>
      <point x="3559" y="329"/>
      <point x="3564" y="556" type="curve"/>
      <point x="3537" y="556"/>
      <point x="3509" y="550"/>
      <point x="3492" y="542" type="curve" smooth="yes"/>
      <point x="3485" y="538"/>
      <point x="3482" y="536"/>
      <point x="3482" y="529" type="curve" smooth="yes"/>
      <point x="3482" y="528"/>
      <point x="3482" y="527"/>
      <point x="3482" y="526" type="curve" smooth="yes"/>
      <point x="3493" y="315"/>
      <point x="3500" y="129"/>
      <point x="3505" y="-36" type="curve"/>
      <point x="3520" y="-36"/>
      <point x="3545" y="-32"/>
    </contour>
    <contour>
      <point x="1826" y="-14" type="curve" smooth="yes"/>
      <point x="1829" y="89"/>
      <point x="1839" y="329"/>
      <point x="1844" y="556" type="curve"/>
      <point x="1817" y="556"/>
      <point x="1789" y="550"/>
      <point x="1772" y="542" type="curve" smooth="yes"/>
      <point x="1765" y="538"/>
      <point x="1762" y="536"/>
      <point x="1762" y="529" type="curve" smooth="yes"/>
      <point x="1762" y="528"/>
      <point x="1762" y="527"/>
      <point x="1762" y="526" type="curve" smooth="yes"/>
      <point x="1773" y="315"/>
      <point x="1780" y="129"/>
      <point x="1785" y="-36" type="curve"/>
      <point x="1800" y="-36"/>
      <point x="1825" y="-32"/>
    </contour>
    <contour>
      <point x="1694" y="-30" type="line"/>
      <point x="1694" y="-45"/>
      <point x="1695" y="-85"/>
      <point x="1702" y="-85" type="curve" smooth="yes"/>
      <point x="1915" y="-85" type="line"/>
      <point x="1915" y="-70"/>
      <point x="1914" y="-30"/>
      <point x="1907" y="-30" type="curve" smooth="yes"/>
    </contour>
  </outline>
</glyph>
<glyph name="hah-ar.init" format="2">
  <advance width="505"/>
  <unicode hex="FEA3"/>
  <anchor x="192" y="-40" name="bottom"/>
  <anchor x="223" y="401" name="top"/>
  <outline>
    <contour>
      <point x="-20" y="0" type="line"/>
      <point x="39" y="0"/>
      <point x="344" y="0"/>
      <point x="429" y="0" type="curve"/>
      <point x="430" y="20"/>
      <point x="430" y="9"/>
      <point x="430" y="29" type="curve" smooth="yes"/>
      <point x="430" y="85"/>
      <point x="417" y="140"/>
      <point x="399" y="140" type="curve"/>
      <point x="-20" y="140" type="line"/>
    </contour>
    <contour>
      <point x="382" y="94" type="line"/>
      <point x="397" y="140" type="line"/>
      <point x="379" y="140"/>
      <point x="377" y="142"/>
      <point x="377" y="175" type="curve" smooth="yes"/>
      <point x="377" y="238"/>
      <point x="386" y="233"/>
      <point x="386" y="269" type="curve" smooth="yes"/>
      <point x="386" y="365"/>
      <point x="371" y="365"/>
      <point x="344" y="367" type="curve" smooth="yes"/>
      <point x="302" y="370"/>
      <point x="151" y="369"/>
      <point x="86" y="366" type="curve"/>
      <point x="83" y="353"/>
      <point x="82" y="339"/>
      <point x="82" y="326" type="curve" smooth="yes"/>
      <point x="82" y="268"/>
      <point x="101" y="231"/>
      <point x="117" y="231" type="curve" smooth="yes"/>
      <point x="124" y="231"/>
      <point x="177" y="233"/>
      <point x="232" y="232" type="curve" smooth="yes"/>
      <point x="313" y="231"/>
      <point x="315" y="218"/>
      <point x="315" y="160" type="curve" smooth="yes"/>
      <point x="315" y="140"/>
      <point x="314" y="140"/>
      <point x="279" y="140" type="curve"/>
      <point x="336" y="97" type="line"/>
    </contour>
  </outline>
</glyph>
<glyph name="heh-ar.medi" format="2">
  <advance width="501"/>
  <unicode hex="FEEC"/>
  <anchor x="242" y="-40" name="bottom"/>
  <anchor x="254" y="460" name="top"/>
  <outline>
    <contour>
      <point x="287" y="140" type="curve"/>
      <point x="285" y="196"/>
      <point x="283" y="231"/>
      <point x="283" y="252" type="curve" smooth="yes"/>
      <point x="283" y="278"/>
      <point x="286" y="283"/>
      <point x="299" y="283" type="curve" smooth="yes"/>
      <point x="314" y="283"/>
      <point x="337" y="283"/>
      <point x="362" y="282" type="curve"/>
      <point x="366" y="250"/>
      <point x="370" y="194"/>
      <point x="370" y="159" type="curve" smooth="yes"/>
      <point x="370" y="144"/>
      <point x="365" y="140"/>
      <point x="352" y="140" type="curve" smooth="yes"/>
      <point x="325" y="140"/>
      <point x="303" y="140"/>
    </contour>
    <contour>
      <point x="-20" y="0" type="line"/>
      <point x="521" y="0" type="line"/>
      <point x="521" y="140" type="line"/>
      <point x="450" y="140" type="line" smooth="yes"/>
      <point x="434" y="140"/>
      <point x="429" y="143"/>
      <point x="428" y="174" type="curve" smooth="yes"/>
      <point x="425" y="279"/>
      <point x="420" y="395"/>
      <point x="415" y="416" type="curve"/>
      <point x="321" y="415"/>
      <point x="240" y="420"/>
      <point x="180" y="420" type="curve" smooth="yes"/>
      <point x="107" y="420"/>
      <point x="64" y="412"/>
      <point x="66" y="377" type="curve" smooth="yes"/>
      <point x="70" y="276"/>
      <point x="75" y="213"/>
      <point x="75" y="178" type="curve" smooth="yes"/>
      <point x="75" y="151"/>
      <point x="72" y="140"/>
      <point x="64" y="140" type="curve" smooth="yes"/>
      <point x="-20" y="140" type="line"/>
    </contour>
    <contour>
      <point x="138" y="196"/>
      <point x="136" y="231"/>
      <point x="136" y="252" type="curve" smooth="yes"/>
      <point x="136" y="278"/>
      <point x="139" y="283"/>
      <point x="152" y="283" type="curve" smooth="yes"/>
      <point x="167" y="283"/>
      <point x="190" y="283"/>
      <point x="215" y="282" type="curve"/>
      <point x="219" y="250"/>
      <point x="223" y="194"/>
      <point x="223" y="159" type="curve" smooth="yes"/>
      <point x="223" y="144"/>
      <point x="218" y="140"/>
      <point x="205" y="140" type="curve" smooth="yes"/>
      <point x="178" y="140"/>
      <point x="156" y="140"/>
      <point x="140" y="140" type="curve"/>
    </contour>
  </outline>
</glyph>
<glyph name="replacementCharacter" format="2">
  <advance width="1018"/>
  <unicode hex="FFFD"/>
  <outline>
    <contour>
      <point x="528" y="639" type="curve" smooth="yes"/>
      <point x="656" y="639"/>
      <point x="732" y="555"/>
      <point x="732" y="452" type="curve" smooth="yes"/>
      <point x="732" y="352"/>
      <point x="662" y="249"/>
      <point x="523" y="243" type="curve"/>
      <point x="520" y="215"/>
      <point x="519" y="192"/>
      <point x="518" y="152" type="curve"/>
      <point x="462" y="152" type="line"/>
      <point x="455" y="222"/>
      <point x="449" y="267"/>
      <point x="435" y="358" type="curve"/>
      <point x="446" y="357"/>
      <point x="457" y="357"/>
      <point x="485" y="357" type="curve" smooth="yes"/>
      <point x="588" y="357"/>
      <point x="624" y="410"/>
      <point x="624" y="481" type="curve" smooth="yes"/>
      <point x="624" y="509"/>
      <point x="607" y="539"/>
      <point x="589" y="566" type="curve"/>
      <point x="583" y="568"/>
      <point x="576" y="568"/>
      <point x="568" y="568" type="curve" smooth="yes"/>
      <point x="523" y="568"/>
      <point x="489" y="556"/>
      <point x="458" y="539" type="curve"/>
      <point x="440" y="456" type="line"/>
      <point x="394" y="456" type="line"/>
      <point x="385" y="509"/>
      <point x="380" y="544"/>
      <point x="367" y="598" type="curve"/>
      <point x="409" y="616"/>
      <point x="462" y="639"/>
    </contour>
    <contour>
      <point x="490" y="102" type="curve" smooth="yes"/>
      <point x="509" y="102"/>
      <point x="524" y="100"/>
      <point x="542" y="95" type="curve"/>
      <point x="546" y="76"/>
      <point x="548" y="62"/>
      <point x="548" y="44" type="curve" smooth="yes"/>
      <point x="548" y="27"/>
      <point x="546" y="11"/>
      <point x="542" y="-6" type="curve"/>
      <point x="524" y="-9"/>
      <point x="509" y="-13"/>
      <point x="490" y="-13" type="curve" smooth="yes"/>
      <point x="476" y="-13"/>
      <point x="461" y="-9"/>
      <point x="441" y="-6" type="curve"/>
      <point x="438" y="11"/>
      <point x="435" y="27"/>
      <point x="435" y="44" type="curve" smooth="yes"/>
      <point x="435" y="62"/>
      <point x="438" y="76"/>
      <point x="441" y="95" type="curve"/>
      <point x="461" y="100"/>
      <point x="476" y="102"/>
    </contour>
    <contour>
      <point x="509" y="879" type="line"/>
      <point x="15" y="352" type="line"/>
      <point x="509" y="-162" type="line"/>
      <point x="1003" y="352" type="line"/>
    </contour>
  </outline>
</glyph>
<glyph name="uniFFFD" format="2">
  <advance width="780"/>
  <unicode hex="FFFD"/>
  <outline>
    <contour>
      <point x="397" y="564" type="curve" smooth="yes"/>
      <point x="495" y="564"/>
      <point x="554" y="499"/>
      <point x="554" y="420" type="curve" smooth="yes"/>
      <point x="554" y="343"/>
      <point x="500" y="264"/>
      <point x="393" y="259" type="curve"/>
      <point x="391" y="238"/>
      <point x="390" y="220"/>
      <point x="389" y="189" type="curve"/>
      <point x="346" y="189" type="line"/>
      <point x="341" y="243"/>
      <point x="336" y="278"/>
      <point x="325" y="348" type="curve"/>
      <point x="334" y="347"/>
      <point x="342" y="347"/>
      <point x="364" y="347" type="curve" smooth="yes"/>
      <point x="443" y="347"/>
      <point x="471" y="388"/>
      <point x="471" y="442" type="curve" smooth="yes"/>
      <point x="471" y="464"/>
      <point x="458" y="487"/>
      <point x="444" y="508" type="curve"/>
      <point x="439" y="509"/>
      <point x="434" y="509"/>
      <point x="428" y="509" type="curve" smooth="yes"/>
      <point x="393" y="509"/>
      <point x="367" y="500"/>
      <point x="343" y="487" type="curve"/>
      <point x="329" y="423" type="line"/>
      <point x="294" y="423" type="line"/>
      <point x="287" y="464"/>
      <point x="283" y="491"/>
      <point x="273" y="532" type="curve"/>
      <point x="305" y="546"/>
      <point x="346" y="564"/>
    </contour>
    <contour>
      <point x="368" y="151" type="curve" smooth="yes"/>
      <point x="382" y="151"/>
      <point x="394" y="149"/>
      <point x="408" y="145" type="curve"/>
      <point x="411" y="131"/>
      <point x="412" y="120"/>
      <point x="412" y="106" type="curve" smooth="yes"/>
      <point x="412" y="93"/>
      <point x="411" y="81"/>
      <point x="408" y="68" type="curve"/>
      <point x="394" y="65"/>
      <point x="382" y="62"/>
      <point x="368" y="62" type="curve" smooth="yes"/>
      <point x="357" y="62"/>
      <point x="345" y="65"/>
      <point x="330" y="68" type="curve"/>
      <point x="328" y="81"/>
      <point x="325" y="93"/>
      <point x="325" y="106" type="curve" smooth="yes"/>
      <point x="325" y="120"/>
      <point x="328" y="131"/>
      <point x="330" y="145" type="curve"/>
      <point x="345" y="149"/>
      <point x="357" y="151"/>
    </contour>
    <contour>
      <point x="390" y="761" type="line"/>
      <point x="10" y="355" type="line"/>
      <point x="390" y="-40" type="line"/>
      <point x="770" y="355" type="line"/>
    </contour>
  </outline>
</glyph>
<glyph name="_dot2vAbove" format="2">
  <anchor x="89" y="293" name="_top"/>
  <outline>
    <contour>
      <point x="40" y="480" type="curve" smooth="yes"/>
      <point x="22" y="478"/>
      <point x="15" y="445"/>
      <point x="15" y="408" type="curve" smooth="yes"/>
      <point x="15" y="378"/>
      <point x="19" y="346"/>
      <point x="28" y="325" type="curve"/>
      <point x="40" y="324"/>
      <point x="52" y="323"/>
      <point x="64" y="323" type="curve" smooth="yes"/>
      <point x="91" y="323"/>
      <point x="118" y="324"/>
      <point x="142" y="329" type="curve" smooth="yes"/>
      <point x="156" y="332"/>
      <point x="162" y="364"/>
      <point x="162" y="400" type="curve" smooth="yes"/>
      <point x="162" y="428"/>
      <point x="159" y="463"/>
      <point x="150" y="485" type="curve"/>
      <point x="138" y="486"/>
      <point x="127" y="486"/>
      <point x="116" y="486" type="curve" smooth="yes"/>
      <point x="88" y="486"/>
      <point x="63" y="484"/>
    </contour>
    <contour>
      <point x="41" y="666" type="curve" smooth="yes"/>
      <point x="22" y="662"/>
      <point x="15" y="631"/>
      <point x="15" y="594" type="curve" smooth="yes"/>
      <point x="15" y="564"/>
      <point x="19" y="532"/>
      <point x="28" y="511" type="curve"/>
      <point x="40" y="510"/>
      <point x="52" y="509"/>
      <point x="64" y="509" type="curve" smooth="yes"/>
      <point x="91" y="509"/>
      <point x="118" y="510"/>
      <point x="142" y="515" type="curve" smooth="yes"/>
      <point x="156" y="518"/>
      <point x="162" y="550"/>
      <point x="162" y="586" type="curve" smooth="yes"/>
      <point x="162" y="614"/>
      <point x="159" y="649"/>
      <point x="150" y="671" type="curve"/>
      <point x="138" y="672"/>
      <point x="127" y="672"/>
      <point x="116" y="672" type="curve" smooth="yes"/>
      <point x="88" y="672"/>
      <point x="64" y="671"/>
    </contour>
  </outline>
</glyph>
<glyph name="_gafBar" format="2">
  <anchor x="126" y="646" name="_top"/>
  <anchor x="93" y="766" name="top"/>
  <outline>
    <contour>
      <point x="26" y="641" type="curve"/>
      <point x="17" y="614"/>
      <point x="21" y="567"/>
      <point x="34" y="556" type="curve"/>
      <point x="162" y="648"/>
      <point x="281" y="719"/>
      <point x="422" y="801" type="curve"/>
      <point x="419" y="815"/>
      <point x="410" y="824"/>
      <point x="397" y="827" type="curve"/>
      <point x="294" y="786"/>
      <point x="145" y="711"/>
    </contour>
  </outline>
</glyph>
<glyph name="ain-ar.init" format="2">
  <advance width="483"/>
  <anchor x="262" y="-40" name="bottom"/>
  <anchor x="0" y="0" name="exit"/>
  <anchor x="271" y="390" name="top"/>
  <outline>
    <contour>
      <point x="-20" y="140" type="line"/>
      <point x="-20" y="0" type="line"/>
      <point x="39" y="0"/>
      <point x="384" y="0"/>
      <point x="454" y="0" type="curve"/>
      <point x="455" y="9"/>
      <point x="456" y="21"/>
      <point x="456" y="35" type="curve" smooth="yes"/>
      <point x="456" y="64"/>
      <point x="452" y="100"/>
      <point x="445" y="121" type="curve" smooth="yes"/>
      <point x="440" y="137"/>
      <point x="429" y="140"/>
      <point x="408" y="140" type="curve" smooth="yes"/>
    </contour>
    <contour>
      <point x="212" y="243"/>
      <point x="277" y="229"/>
      <point x="416" y="221" type="curve"/>
      <point x="418" y="229"/>
      <point x="419" y="243"/>
      <point x="419" y="259" type="curve" smooth="yes"/>
      <point x="419" y="301"/>
      <point x="412" y="357"/>
      <point x="397" y="359" type="curve" smooth="yes"/>
      <point x="341" y="365"/>
      <point x="273" y="367"/>
      <point x="215" y="364" type="curve" smooth="yes"/>
      <point x="162" y="361"/>
      <point x="123" y="351"/>
      <point x="123" y="309" type="curve" smooth="yes"/>
      <point x="123" y="264"/>
      <point x="130" y="246"/>
      <point x="152" y="171" type="curve" smooth="yes"/>
      <point x="158" y="150"/>
      <point x="151" y="140"/>
      <point x="124" y="140" type="curve"/>
      <point x="160" y="113" type="line"/>
      <point x="203" y="103" type="line"/>
      <point x="257" y="140" type="line"/>
      <point x="219" y="140"/>
      <point x="214" y="168"/>
      <point x="213" y="198" type="curve" smooth="yes"/>
    </contour>
  </outline>
</glyph>
<glyph name="alef-ar.allah" format="2">
  <advance width="157"/>
  <anchor x="66" y="-61" name="bottom"/>
  <anchor x="60" y="587" name="top"/>
  <outline>
    <contour>
      <point x="88" y="-14" type="curve" smooth="yes"/>
      <point x="91" y="89"/>
      <point x="101" y="329"/>
      <point x="106" y="556" type="curve"/>
      <point x="79" y="556"/>
      <point x="51" y="550"/>
      <point x="34" y="542" type="curve" smooth="yes"/>
      <point x="27" y="538"/>
      <point x="24" y="536"/>
      <point x="24" y="529" type="curve" smooth="yes"/>
      <point x="24" y="528"/>
      <point x="24" y="527"/>
      <point x="24" y="526" type="curve" smooth="yes"/>
      <point x="35" y="315"/>
      <point x="42" y="129"/>
      <point x="47" y="-36" type="curve"/>
      <point x="62" y="-36"/>
      <point x="87" y="-32"/>
    </contour>
  </outline>
</glyph>
<glyph name="alef-ar.wide.fina" format="2">
  <advance width="314"/>
  <anchor x="92" y="-220" name="bottom"/>
  <anchor x="314" y="0" name="entry"/>
  <anchor x="191" y="312" name="top"/>
  <outline>
    <contour>
      <point x="115" y="-30" type="curve" smooth="yes"/>
      <point x="115" y="-4"/>
      <point x="116" y="0"/>
      <point x="124" y="0" type="curve" smooth="yes"/>
      <point x="333" y="0" type="line"/>
      <point x="333" y="7" type="line"/>
      <point x="334" y="140" type="line"/>
      <point x="136" y="140"/>
      <point x="121" y="140"/>
      <point x="121" y="162" type="curve" smooth="yes"/>
      <point x="125" y="294"/>
      <point x="128" y="439"/>
      <point x="131" y="556" type="curve"/>
      <point x="104" y="556"/>
      <point x="76" y="550"/>
      <point x="59" y="542" type="curve" smooth="yes"/>
      <point x="52" y="538"/>
      <point x="49" y="536"/>
      <point x="49" y="529" type="curve" smooth="yes"/>
      <point x="49" y="528"/>
      <point x="49" y="527"/>
      <point x="49" y="526" type="curve" smooth="yes"/>
      <point x="60" y="315"/>
      <point x="67" y="49"/>
      <point x="72" y="-176" type="curve"/>
      <point x="87" y="-176"/>
      <point x="112" y="-172"/>
      <point x="112" y="-154" type="curve" smooth="yes"/>
      <point x="113" y="-119"/>
      <point x="114" y="-77"/>
    </contour>
  </outline>
</glyph>
<glyph name="alef-ar.wide.fina.low" format="2">
  <advance width="314"/>
  <anchor x="92" y="-427" name="bottom"/>
  <anchor x="191" y="105" name="top"/>
  <outline>
    <contour>
      <point x="115" y="-237" type="curve" smooth="yes"/>
      <point x="116" y="-211"/>
      <point x="116" y="-207"/>
      <point x="124" y="-207" type="curve" smooth="yes"/>
      <point x="333" y="-207" type="line"/>
      <point x="333" y="-200" type="line"/>
      <point x="334" y="-67" type="line"/>
      <point x="136" y="-67"/>
      <point x="121" y="-67"/>
      <point x="121" y="-45" type="curve" smooth="yes"/>
      <point x="121" y="87"/>
      <point x="128" y="232"/>
      <point x="131" y="349" type="curve"/>
      <point x="104" y="349"/>
      <point x="76" y="342"/>
      <point x="59" y="335" type="curve" smooth="yes"/>
      <point x="52" y="332"/>
      <point x="49" y="329"/>
      <point x="49" y="322" type="curve" smooth="yes"/>
      <point x="49" y="321"/>
      <point x="49" y="320"/>
      <point x="49" y="319" type="curve" smooth="yes"/>
      <point x="49" y="108"/>
      <point x="67" y="-158"/>
      <point x="72" y="-383" type="curve"/>
      <point x="87" y="-383"/>
      <point x="112" y="-379"/>
      <point x="112" y="-361" type="curve" smooth="yes"/>
      <point x="112" y="-326"/>
      <point x="113" y="-284"/>
    </contour>
  </outline>
</glyph>
<glyph name="alef-ar.wideshort.fina.low" format="2">
  <advance width="314"/>
  <anchor x="172" y="-226" name="bottom"/>
  <anchor x="314" y="0" name="entry"/>
  <anchor x="92" y="391" name="top"/>
  <outline>
    <contour>
      <point x="115" y="-257" type="curve" smooth="yes"/>
      <point x="116" y="-231"/>
      <point x="116" y="-207"/>
      <point x="124" y="-207" type="curve" smooth="yes"/>
      <point x="333" y="-207" type="line"/>
      <point x="333" y="-200" type="line"/>
      <point x="334" y="-67" type="line"/>
      <point x="136" y="-67"/>
      <point x="121" y="-67"/>
      <point x="121" y="-45" type="curve" smooth="yes"/>
      <point x="121" y="87"/>
      <point x="128" y="232"/>
      <point x="131" y="349" type="curve"/>
      <point x="104" y="349"/>
      <point x="76" y="342"/>
      <point x="59" y="335" type="curve" smooth="yes"/>
      <point x="52" y="332"/>
      <point x="49" y="329"/>
      <point x="49" y="322" type="curve" smooth="yes"/>
      <point x="49" y="321"/>
      <point x="49" y="320"/>
      <point x="49" y="319" type="curve" smooth="yes"/>
      <point x="49" y="108"/>
      <point x="72" y="-397"/>
      <point x="73" y="-437" type="curve"/>
      <point x="95" y="-437"/>
      <point x="113" y="-433"/>
      <point x="113" y="-415" type="curve" smooth="yes"/>
      <point x="113" y="-400"/>
      <point x="113" y="-304"/>
    </contour>
  </outline>
</glyph>
<glyph name="alef-ar.wideshort" format="2">
  <advance width="287"/>
  <anchor x="176" y="211" name="bottom"/>
  <anchor x="87" y="588" name="top"/>
  <outline>
    <contour>
      <point x="110" y="0" type="line"/>
      <point x="110" y="163"/>
      <point x="122" y="329"/>
      <point x="127" y="556" type="curve"/>
      <point x="100" y="556"/>
      <point x="72" y="550"/>
      <point x="55" y="542" type="curve" smooth="yes"/>
      <point x="48" y="538"/>
      <point x="45" y="536"/>
      <point x="45" y="529" type="curve" smooth="yes"/>
      <point x="45" y="528"/>
      <point x="45" y="527"/>
      <point x="45" y="526" type="curve" smooth="yes"/>
      <point x="56" y="315"/>
      <point x="61" y="0"/>
      <point x="74" y="0" type="curve"/>
    </contour>
  </outline>
</glyph>
<glyph name="alefHamzaabove-ar.allah" format="2">
  <advance width="197"/>
  <anchor x="66" y="-61" name="bottom"/>
  <anchor x="98" y="588" name="top"/>
  <outline>
    <component base="alef-ar.allah"/>
    <contour>
      <point x="73" y="325" type="curve"/>
      <point x="84" y="325"/>
      <point x="85" y="316"/>
      <point x="99" y="307" type="curve"/>
      <point x="99" y="321"/>
      <point x="102" y="325"/>
      <point x="107" y="325" type="curve"/>
      <point x="244" y="325" type="line"/>
      <point x="244" y="338"/>
      <point x="243" y="368"/>
      <point x="236" y="368" type="curve" smooth="yes"/>
      <point x="107" y="368" type="line"/>
      <point x="98" y="368"/>
      <point x="103" y="398"/>
      <point x="110" y="398" type="curve"/>
      <point x="244" y="398" type="line"/>
      <point x="244" y="411"/>
      <point x="243" y="442"/>
      <point x="236" y="442" type="curve" smooth="yes"/>
      <point x="108" y="442" type="line"/>
      <point x="100" y="442"/>
      <point x="105" y="472"/>
      <point x="113" y="472" type="curve"/>
      <point x="244" y="472" type="line"/>
      <point x="244" y="484"/>
      <point x="243" y="515"/>
      <point x="236" y="515" type="curve" smooth="yes"/>
      <point x="114" y="515" type="line" smooth="yes"/>
      <point x="106" y="515"/>
      <point x="105" y="516"/>
      <point x="105" y="533" type="curve"/>
      <point x="93" y="535"/>
      <point x="94" y="515"/>
      <point x="82" y="515" type="curve" smooth="yes"/>
      <point x="32" y="515"/>
      <point x="57" y="459"/>
      <point x="57" y="422" type="curve"/>
      <point x="57" y="373"/>
      <point x="36" y="325"/>
    </contour>
  </outline>
</glyph>
<glyph name="alefHamzaabove-ar.fina.allah" format="2">
  <advance width="224"/>
  <anchor x="92" y="-58" name="bottom"/>
  <anchor x="224" y="0" name="entry"/>
  <anchor x="92" y="598" name="top"/>
  <outline>
    <component base="alef-ar.fina.allah"/>
    <contour>
      <point x="99" y="325" type="curve"/>
      <point x="110" y="325"/>
      <point x="111" y="316"/>
      <point x="125" y="307" type="curve"/>
      <point x="125" y="321"/>
      <point x="128" y="325"/>
      <point x="133" y="325" type="curve"/>
      <point x="270" y="325" type="line"/>
      <point x="270" y="338"/>
      <point x="269" y="368"/>
      <point x="262" y="368" type="curve" smooth="yes"/>
      <point x="133" y="368" type="line"/>
      <point x="124" y="368"/>
      <point x="129" y="398"/>
      <point x="136" y="398" type="curve"/>
      <point x="270" y="398" type="line"/>
      <point x="270" y="411"/>
      <point x="269" y="442"/>
      <point x="262" y="442" type="curve" smooth="yes"/>
      <point x="134" y="442" type="line"/>
      <point x="126" y="442"/>
      <point x="131" y="472"/>
      <point x="139" y="472" type="curve"/>
      <point x="270" y="472" type="line"/>
      <point x="270" y="484"/>
      <point x="269" y="515"/>
      <point x="262" y="515" type="curve" smooth="yes"/>
      <point x="140" y="515" type="line" smooth="yes"/>
      <point x="132" y="515"/>
      <point x="131" y="516"/>
      <point x="131" y="533" type="curve"/>
      <point x="119" y="535"/>
      <point x="120" y="515"/>
      <point x="108" y="515" type="curve" smooth="yes"/>
      <point x="58" y="515"/>
      <point x="83" y="459"/>
      <point x="83" y="422" type="curve"/>
      <point x="83" y="373"/>
      <point x="62" y="325"/>
    </contour>
  </outline>
</glyph>
<glyph name="alefMadda-ar.fina" format="2">
  <advance width="344"/>
  <anchor x="142" y="-220" name="bottom"/>
  <anchor x="344" y="0" name="entry"/>
  <anchor x="149" y="730" name="top"/>
  <outline>
    <component base="madda-ar" xOffset="-25" yOffset="9"/>
    <contour>
      <point x="165" y="-30" type="curve" smooth="yes"/>
      <point x="165" y="-4"/>
      <point x="166" y="0"/>
      <point x="174" y="0" type="curve" smooth="yes"/>
      <point x="363" y="0" type="line"/>
      <point x="363" y="7" type="line"/>
      <point x="364" y="140" type="line"/>
      <point x="183" y="140"/>
      <point x="171" y="143"/>
      <point x="171" y="162" type="curve" smooth="yes"/>
      <point x="175" y="294"/>
      <point x="178" y="439"/>
      <point x="181" y="556" type="curve"/>
      <point x="154" y="556"/>
      <point x="126" y="550"/>
      <point x="109" y="542" type="curve" smooth="yes"/>
      <point x="102" y="538"/>
      <point x="99" y="536"/>
      <point x="99" y="529" type="curve" smooth="yes"/>
      <point x="99" y="528"/>
      <point x="99" y="527"/>
      <point x="99" y="526" type="curve" smooth="yes"/>
      <point x="110" y="315"/>
      <point x="117" y="49"/>
      <point x="122" y="-176" type="curve"/>
      <point x="137" y="-176"/>
      <point x="162" y="-172"/>
      <point x="162" y="-154" type="curve" smooth="yes"/>
      <point x="163" y="-119"/>
      <point x="164" y="-77"/>
    </contour>
  </outline>
</glyph>
<glyph name="alefMaksura-ar.fina.low" format="2">
  <advance width="562"/>
  <anchor x="391" y="-346" name="bottom"/>
  <anchor x="562" y="0" name="entry"/>
  <anchor x="187" y="94" name="top"/>
  <outline>
    <contour>
      <point x="-731" y="-429" type="curve"/>
      <point x="-733" y="-481"/>
      <point x="-711" y="-569"/>
      <point x="-680" y="-584" type="curve" smooth="yes"/>
      <point x="-606" y="-620"/>
      <point x="-521" y="-646"/>
      <point x="-413" y="-646" type="curve" smooth="yes"/>
      <point x="-28" y="-646"/>
      <point x="297" y="-321"/>
      <point x="364" y="-207" type="curve"/>
      <point x="368" y="-183"/>
      <point x="369" y="-167"/>
      <point x="369" y="-151" type="curve" smooth="yes"/>
      <point x="369" y="-137"/>
      <point x="368" y="-125"/>
      <point x="367" y="-118" type="curve" smooth="yes"/>
      <point x="366" y="-110"/>
      <point x="324" y="-92"/>
      <point x="268" y="-72" type="curve"/>
      <point x="311" y="-53"/>
      <point x="371" y="-21"/>
      <point x="389" y="-21" type="curve" smooth="yes"/>
      <point x="404" y="-21"/>
      <point x="407" y="-26"/>
      <point x="407" y="-47" type="curve" smooth="yes"/>
      <point x="407" y="-140"/>
      <point x="411" y="-207"/>
      <point x="434" y="-207" type="curve" smooth="yes"/>
      <point x="582" y="-207" type="line"/>
      <point x="582" y="-67" type="line"/>
      <point x="516" y="-67"/>
      <point x="472" y="-66"/>
      <point x="472" y="-29" type="curve" smooth="yes"/>
      <point x="472" y="-3"/>
      <point x="472" y="18"/>
      <point x="472" y="35" type="curve" smooth="yes"/>
      <point x="472" y="69"/>
      <point x="472" y="88"/>
      <point x="469" y="109" type="curve" smooth="yes"/>
      <point x="466" y="133"/>
      <point x="440" y="145"/>
      <point x="406" y="148" type="curve"/>
      <point x="316" y="72"/>
      <point x="232" y="0"/>
      <point x="78" y="-50" type="curve"/>
      <point x="78" y="-84"/>
      <point x="92" y="-153"/>
      <point x="105" y="-174" type="curve"/>
      <point x="146" y="-179"/>
      <point x="180" y="-184"/>
      <point x="244" y="-202" type="curve"/>
      <point x="47" y="-410"/>
      <point x="-171" y="-514"/>
      <point x="-422" y="-514" type="curve" smooth="yes"/>
      <point x="-537" y="-514"/>
      <point x="-645" y="-485"/>
    </contour>
  </outline>
</glyph>
<glyph name="alefMaksura-ar.fina.shrtail" format="2">
  <advance width="525"/>
  <anchor x="451" y="-139" name="bottom"/>
  <anchor x="525" y="0" name="entry"/>
  <anchor x="217" y="301" name="top"/>
  <outline>
    <contour>
      <point x="502" y="316" type="curve" smooth="yes"/>
      <point x="500" y="340"/>
      <point x="475" y="352"/>
      <point x="441" y="355" type="curve"/>
      <point x="356" y="279"/>
      <point x="272" y="207"/>
      <point x="118" y="157" type="curve"/>
      <point x="118" y="123"/>
      <point x="132" y="54"/>
      <point x="145" y="33" type="curve"/>
      <point x="197" y="29"/>
      <point x="224" y="23"/>
      <point x="275" y="5" type="curve"/>
      <point x="181" y="-124"/>
      <point x="43" y="-190"/>
      <point x="-100" y="-190" type="curve" smooth="yes"/>
      <point x="-208" y="-190"/>
      <point x="-318" y="-153"/>
      <point x="-416" y="-78" type="curve"/>
      <point x="-421" y="-93"/>
      <point x="-422" y="-109"/>
      <point x="-422" y="-126" type="curve" smooth="yes"/>
      <point x="-422" y="-165"/>
      <point x="-416" y="-208"/>
      <point x="-392" y="-225" type="curve" smooth="yes"/>
      <point x="-315" y="-282"/>
      <point x="-216" y="-316"/>
      <point x="-101" y="-316" type="curve" smooth="yes"/>
      <point x="64" y="-316"/>
      <point x="238" y="-229"/>
      <point x="394" y="-10" type="curve"/>
      <point x="397" y="6"/>
      <point x="399" y="38"/>
      <point x="399" y="59" type="curve" smooth="yes"/>
      <point x="399" y="69"/>
      <point x="398" y="79"/>
      <point x="397" y="88" type="curve" smooth="yes"/>
      <point x="396" y="96"/>
      <point x="354" y="114"/>
      <point x="298" y="135" type="curve"/>
      <point x="341" y="156"/>
      <point x="410" y="186"/>
      <point x="420" y="186" type="curve" smooth="yes"/>
      <point x="435" y="186"/>
      <point x="440" y="181"/>
      <point x="440" y="160" type="curve" smooth="yes"/>
      <point x="440" y="67"/>
      <point x="444" y="0"/>
      <point x="467" y="0" type="curve" smooth="yes"/>
      <point x="545" y="0" type="line"/>
      <point x="545" y="140" type="line"/>
      <point x="519" y="140"/>
      <point x="505" y="141"/>
      <point x="505" y="178" type="curve" smooth="yes"/>
      <point x="505" y="204"/>
      <point x="505" y="225"/>
      <point x="505" y="242" type="curve" smooth="yes"/>
      <point x="505" y="276"/>
      <point x="505" y="295"/>
    </contour>
  </outline>
</glyph>
<glyph name="alefMaksura-ar.longtail" format="2">
  <advance width="524"/>
  <anchor x="401" y="-139" name="bottom"/>
  <anchor x="217" y="301" name="top"/>
  <outline>
    <contour>
      <point x="243" y="5" type="curve"/>
      <point x="122" y="-185"/>
      <point x="-63" y="-336"/>
      <point x="-263" y="-336" type="curve" smooth="yes"/>
      <point x="-322" y="-336"/>
      <point x="-383" y="-322"/>
      <point x="-441" y="-292" type="curve"/>
      <point x="-443" y="-344"/>
      <point x="-421" y="-441"/>
      <point x="-390" y="-451" type="curve" smooth="yes"/>
      <point x="-346" y="-465"/>
      <point x="-302" y="-472"/>
      <point x="-259" y="-472" type="curve" smooth="yes"/>
      <point x="-21" y="-472"/>
      <point x="206" y="-257"/>
      <point x="374" y="0" type="curve"/>
      <point x="377" y="16"/>
      <point x="379" y="38"/>
      <point x="379" y="59" type="curve" smooth="yes"/>
      <point x="379" y="69"/>
      <point x="378" y="79"/>
      <point x="377" y="88" type="curve" smooth="yes"/>
      <point x="376" y="96"/>
      <point x="334" y="114"/>
      <point x="278" y="135" type="curve"/>
      <point x="321" y="156"/>
      <point x="390" y="186"/>
      <point x="400" y="186" type="curve" smooth="yes"/>
      <point x="415" y="186"/>
      <point x="417" y="181"/>
      <point x="420" y="160" type="curve" smooth="yes"/>
      <point x="425" y="130"/>
      <point x="429" y="79"/>
      <point x="429" y="0" type="curve"/>
      <point x="480" y="0" type="line"/>
      <point x="483" y="77"/>
      <point x="483" y="244"/>
      <point x="484" y="316" type="curve" smooth="yes"/>
      <point x="484" y="340"/>
      <point x="455" y="352"/>
      <point x="421" y="355" type="curve"/>
      <point x="336" y="279"/>
      <point x="242" y="207"/>
      <point x="88" y="157" type="curve"/>
      <point x="88" y="123"/>
      <point x="102" y="54"/>
      <point x="115" y="33" type="curve"/>
      <point x="168" y="29"/>
      <point x="193" y="21"/>
    </contour>
  </outline>
</glyph>
<glyph name="approxequal.rtl" format="2">
  <advance width="571"/>
  <outline>
    <contour>
      <point x="180" y="346" type="curve" smooth="yes"/>
      <point x="286" y="346"/>
      <point x="321" y="441"/>
      <point x="419" y="441" type="curve"/>
      <point x="449" y="430"/>
      <point x="499" y="384"/>
      <point x="525" y="361" type="curve"/>
      <point x="557" y="381" type="line"/>
      <point x="515" y="441"/>
      <point x="452" y="530"/>
      <point x="376" y="530" type="curve" smooth="yes"/>
      <point x="269" y="530"/>
      <point x="245" y="445"/>
      <point x="158" y="445" type="curve"/>
      <point x="119" y="455"/>
      <point x="63" y="488"/>
      <point x="34" y="515" type="curve"/>
      <point x="6" y="495" type="line"/>
      <point x="55" y="414"/>
      <point x="118" y="346"/>
    </contour>
    <contour>
      <point x="180" y="146" type="curve" smooth="yes"/>
      <point x="286" y="146"/>
      <point x="321" y="241"/>
      <point x="419" y="241" type="curve"/>
      <point x="449" y="230"/>
      <point x="499" y="184"/>
      <point x="525" y="161" type="curve"/>
      <point x="557" y="181" type="line"/>
      <point x="515" y="241"/>
      <point x="452" y="330"/>
      <point x="376" y="330" type="curve" smooth="yes"/>
      <point x="269" y="330"/>
      <point x="245" y="245"/>
      <point x="158" y="245" type="curve"/>
      <point x="119" y="255"/>
      <point x="63" y="288"/>
      <point x="34" y="315" type="curve"/>
      <point x="6" y="295" type="line"/>
      <point x="55" y="214"/>
      <point x="118" y="146"/>
    </contour>
  </outline>
</glyph>
<glyph name="b.sc" format="2">
  <advance width="565"/>
  <anchor x="294" y="0" name="bottom"/>
  <anchor x="285" y="510" name="top"/>
  <outline>
    <contour>
      <point x="334" y="265" type="curve"/>
      <point x="422" y="270"/>
      <point x="489" y="331"/>
      <point x="489" y="400" type="curve" smooth="yes"/>
      <point x="489" y="460"/>
      <point x="446" y="518"/>
      <point x="333" y="518" type="curve" smooth="yes"/>
      <point x="279" y="518"/>
      <point x="254" y="513"/>
      <point x="162" y="513" type="curve" smooth="yes"/>
      <point x="93" y="513"/>
      <point x="74" y="516"/>
      <point x="33" y="518" type="curve"/>
      <point x="20" y="479" type="line"/>
      <point x="98" y="458" type="line"/>
      <point x="101" y="391"/>
      <point x="102" y="334"/>
      <point x="102" y="273" type="curve" smooth="yes"/>
      <point x="102" y="193"/>
      <point x="100" y="127"/>
      <point x="98" y="59" type="curve"/>
      <point x="20" y="38" type="line"/>
      <point x="33" y="0" type="line"/>
      <point x="74" y="1"/>
      <point x="102" y="3"/>
      <point x="158" y="3" type="curve"/>
      <point x="243" y="3"/>
      <point x="228" y="21"/>
      <point x="238" y="32" type="curve"/>
      <point x="241" y="49" type="line"/>
      <point x="240" y="98"/>
      <point x="239" y="151"/>
      <point x="239" y="205" type="curve" smooth="yes"/>
      <point x="239" y="288"/>
      <point x="240" y="375"/>
      <point x="241" y="461" type="curve"/>
      <point x="260" y="465"/>
      <point x="267" y="467"/>
      <point x="284" y="467" type="curve" smooth="yes"/>
      <point x="321" y="467"/>
      <point x="351" y="430"/>
      <point x="351" y="388" type="curve" smooth="yes"/>
      <point x="351" y="337"/>
      <point x="332" y="309"/>
      <point x="305" y="294" type="curve"/>
      <point x="277" y="293"/>
      <point x="260" y="293"/>
      <point x="182" y="304" type="curve"/>
      <point x="182" y="264" type="line"/>
      <point x="219" y="261"/>
      <point x="230" y="259"/>
      <point x="243" y="259" type="curve"/>
      <point x="259" y="259"/>
      <point x="294" y="264"/>
    </contour>
    <contour>
      <point x="180" y="237" type="line"/>
      <point x="240" y="239"/>
      <point x="233" y="240"/>
      <point x="268" y="240" type="curve" smooth="yes"/>
      <point x="345" y="240"/>
      <point x="382" y="197"/>
      <point x="382" y="145" type="curve" smooth="yes"/>
      <point x="382" y="86"/>
      <point x="359" y="65"/>
      <point x="330" y="52" type="curve"/>
      <point x="299" y="50"/>
      <point x="257" y="58"/>
      <point x="229" y="69" type="curve"/>
      <point x="222" y="50"/>
      <point x="153" y="3"/>
      <point x="158" y="3" type="curve"/>
      <point x="243" y="3"/>
      <point x="268" y="-1"/>
      <point x="325" y="-1" type="curve"/>
      <point x="466" y="-1"/>
      <point x="525" y="63"/>
      <point x="525" y="144" type="curve" smooth="yes"/>
      <point x="525" y="218"/>
      <point x="473" y="286"/>
      <point x="334" y="286" type="curve"/>
      <point x="318" y="286"/>
      <point x="252" y="286"/>
      <point x="185" y="279" type="curve"/>
    </contour>
  </outline>
</glyph>
<glyph name="behDotless-ar.fina" format="2">
  <advance width="444"/>
  <anchor x="212" y="-40" name="bottom"/>
  <anchor x="444" y="0" name="entry"/>
  <anchor x="304" y="289" name="top"/>
  <outline>
    <contour>
      <point x="50" y="140" type="line"/>
      <point x="50" y="78"/>
      <point x="58" y="0"/>
      <point x="90" y="0" type="curve"/>
      <point x="464" y="0" type="line"/>
      <point x="464" y="140" type="line"/>
      <point x="374" y="140" type="line" smooth="yes"/>
      <point x="362" y="140"/>
      <point x="358" y="141"/>
      <point x="357" y="148" type="curve" smooth="yes"/>
      <point x="354" y="188"/>
      <point x="355" y="216"/>
      <point x="347" y="256" type="curve"/>
      <point x="328" y="256"/>
      <point x="306" y="252"/>
      <point x="291" y="246" type="curve" smooth="yes"/>
      <point x="282" y="242"/>
      <point x="279" y="240"/>
      <point x="279" y="234" type="curve" smooth="yes"/>
      <point x="279" y="226"/>
      <point x="292" y="187"/>
      <point x="292" y="159" type="curve" smooth="yes"/>
      <point x="292" y="146"/>
      <point x="289" y="140"/>
      <point x="280" y="140" type="curve" smooth="yes"/>
    </contour>
  </outline>
</glyph>
